SplineFontDB: 3.0
FontName: ltfont
FullName: ltfont
FamilyName: ltfont
Weight: Regular
Copyright: Copyright (c) 2017, ,,,
UComments: "2017-10-21: Created with FontForge (http://fontforge.org)"
Version: 001.000
ItalicAngle: 0
UnderlinePosition: -83.3333
UnderlineWidth: 41.6667
Ascent: 833
Descent: 167
InvalidEm: 0
LayerCount: 2
Layer: 0 0 "Back" 1
Layer: 1 0 "Fore" 0
XUID: [1021 881 2055310830 19285]
FSType: 0
OS2Version: 0
OS2_WeightWidthSlopeOnly: 0
OS2_UseTypoMetrics: 1
CreationTime: 1508636382
ModificationTime: 1508690230
PfmFamily: 17
TTFWeight: 400
TTFWidth: 5
LineGap: 75
VLineGap: 0
OS2TypoAscent: 0
OS2TypoAOffset: 1
OS2TypoDescent: 0
OS2TypoDOffset: 1
OS2TypoLinegap: 75
OS2WinAscent: 0
OS2WinAOffset: 1
OS2WinDescent: 0
OS2WinDOffset: 1
HheadAscent: 0
HheadAOffset: 1
HheadDescent: 0
HheadDOffset: 1
OS2Vendor: 'PfEd'
Lookup: 4 0 1 "ltligs" { "ltligs1"  } ['liga' ('latn' <'dflt' > ) ]
MarkAttachClasses: 1
DEI: 91125
LangName: 1033
Encoding: ISO8859-1
UnicodeInterp: none
NameList: AGL For New Fonts
DisplaySize: -48
AntiAlias: 1
FitToEm: 0
WinInfo: 38 38 14
BeginPrivate: 0
EndPrivate
BeginChars: 1038 674

StartChar: W
Encoding: 87 87 0
Width: 833
VWidth: 0
Flags: W
HStem: 110 42<141 703> 502 42<142 705> 665 20G<398.276 422.857>
LayerCount: 2
Fore
SplineSet
452 -2 m 5
 435 -31 l 5
 418 -2 l 5
 87 512 l 5
 66 544 l 5
 104 544 l 5
 742 545 l 5
 778 545 l 5
 760 513 l 5
 452 -2 l 5
434 48 m 5
 705 503 l 5
 142 502 l 5
 434 48 l 5
393 656 m 5
 410 685 l 5
 428 657 l 5
 759 142 l 5
 780 110 l 5
 742 110 l 5
 104 109 l 5
 68 109 l 5
 86 141 l 5
 393 656 l 5
412 606 m 5
 141 151 l 5
 703 152 l 5
 412 606 l 5
EndSplineSet
Validated: 5
EndChar

StartChar: T
Encoding: 84 84 1
Width: 833
VWidth: 0
Flags: W
HStem: 533 46<238 402 404 440 443 584> 633 43<394 443>
VStem: 392 42<-8 436.667> 401 41<194 579>
LayerCount: 2
Fore
SplineSet
413 -8 m 5xe0
 392 -8 l 5
 392 12 l 5xe0
 401 558 l 5
 402 579 l 5
 422 579 l 5
 443 579 l 5
 442 558 l 5xd0
 434 12 l 5
 434 -8 l 5
 413 -8 l 5xe0
189 485 m 5
 170 494 l 5
 180 513 l 5
 207 564 l 5
 212 575 l 5
 225 575 l 5
 593 578 l 5
 604 578 l 5
 611 570 l 5
 649 519 l 5
 662 502 l 5
 645 490 l 5
 628 478 l 5
 616 494 l 5
 584 537 l 5
 238 533 l 5
 217 493 l 5
 207 475 l 5
 189 485 l 5
420 595 m 5
 443 633 l 5
 394 633 l 5
 420 595 l 5
404 545 m 5
 338 642 l 5
 316 673 l 5
 355 674 l 5
 480 676 l 5
 517 677 l 5
 498 644 l 5
 440 546 l 5
 423 518 l 5
 404 545 l 5
EndSplineSet
Validated: 5
EndChar

StartChar: P
Encoding: 80 80 2
Width: 833
VWidth: 0
Flags: W
VStem: 192 42<82.3125 195.7>
LayerCount: 2
Fore
SplineSet
215 366 m 5
 643 327 l 5
 640 285 l 5
 210 324 l 5
 215 366 l 5
194 531 m 1
 180 546 l 1
 194 560 l 1
 193 559 195 560 194 560 c 1
 261 625 345 669 452 650 c 0
 482 644 515 633 545 616 c 0
 601 585 662 526 625 460 c 0
 577 375 491 359 418 307 c 0
 321 239 229 218 233 128 c 0
 233 126 234 124 234 122 c 0
 242 62 333 29 415 39 c 0
 499 49 552 113 604 190 c 2
 616 207 l 1
 633 196 l 1
 651 184 l 1
 639 167 l 2
 587 90 524 11 420 -2 c 0
 335 -12 204 15 192 117 c 0
 191 119 192 124 192 126 c 0
 185 251 313 285 393 341 c 0
 478 400 550 414 588 482 c 0
 605 513 581 548 525 579 c 0
 499 594 469 604 445 608 c 0
 356 625 285 589 223 530 c 2
 208 515 l 1
 194 531 l 1
EndSplineSet
Validated: 37
EndChar

StartChar: K
Encoding: 75 75 3
Width: 833
VWidth: 0
Flags: W
HStem: 22 43<509 691> 640 20G<649.923 722.836>
LayerCount: 2
Fore
SplineSet
566 263 m 1
 582 293 l 1
 602 265 l 1
 748 60 l 1
 771 28 l 1
 732 28 l 1
 474 22 l 1
 440 22 l 1
 456 52 l 1
 566 263 l 1
587 214 m 1
 509 65 l 1
 691 68 l 1
 587 214 l 1
673 447 m 1
 652 452 l 1
 632 456 l 1
 638 477 l 1
 659 574 l 1
 89 18 l 1
 73 4 l 1
 59 18 l 1
 44 34 l 1
 60 48 l 1
 612 588 l 1
 509 562 l 1
 499 602 l 1
 525 608 l 1
 728 660 l 1
 673 447 l 1
EndSplineSet
Validated: 1
EndChar

StartChar: S
Encoding: 83 83 4
Width: 833
VWidth: 0
Flags: W
HStem: 270 42<119 412.462> 283 42<412.462 667> 338 42<670.66 709.021> 668 20G<393 414.875>
VStem: 393 42<15 592> 400 42<-7 592>
LayerCount: 2
Fore
SplineSet
671 310 m 0x70
 673 291 683 282 690 283 c 0
 702 284 713 295 711 310 c 0
 709 328 696 340 681 338 c 0
 676 338 669 330 671 310 c 0x70
629 303 m 0
 626 330 635 378 678 380 c 0
 718 383 748 351 752 316 c 0
 757 281 732 244 693 242 c 0
 653 240 633 275 629 303 c 0
119 291 m 1
 118 312 l 1
 140 312 l 1
 139 312 140 311 140 312 c 1xb0
 646 325 l 1
 667 326 l 1
 668 305 l 1
 668 284 l 1
 648 283 l 1x70
 140 271 l 1
 140 272 139 271 140 271 c 1
 119 270 l 1xb0
 119 291 l 1
421 -7 m 1
 400 -7 l 1
 400 14 l 1x34
 393 640 l 1
 393 688 l 1
 428 656 l 1
 640 464 l 1
 656 450 l 1
 641 434 l 1
 627 418 l 1
 612 432 l 1
 435 592 l 1x38
 442 15 l 1
 442 -7 l 1x34
 421 -7 l 1
EndSplineSet
Validated: 37
EndChar

StartChar: X
Encoding: 88 88 5
Width: 833
VWidth: 0
Flags: W
HStem: 98 40<266.938 324.214> 623 20G<698 718>
VStem: 125 42<542.333 594.781> 266 42<98 306.978> 677 41<163.889 642> 685 42<12 491.111>
LayerCount: 2
Fore
SplineSet
698 642 m 1xf8
 718 643 l 1
 718 622 l 1xf8
 727 33 l 1
 727 12 l 1
 707 12 l 1
 685 12 l 1
 685 33 l 1xf4
 677 622 l 1
 677 642 l 1
 698 642 l 1xf8
287 98 m 1
 266 98 l 1
 267 118 l 2
 269 180 241 235 275 307 c 0
 332 429 469 413 448 498 c 0
 426 585 327 578 212 599 c 0
 209 600 204 600 199 599 c 0
 177 595 165 578 167 564 c 2
 170 543 l 1
 149 540 l 1
 129 536 l 1
 125 557 l 2
 117 602 156 633 192 640 c 0
 201 642 209 642 219 640 c 0
 317 622 457 631 488 508 c 0
 517 390 345 358 313 290 c 0
 287 235 310 196 308 118 c 2
 308 97 l 1
 287 98 l 1
287 68 m 4
 289 49 300 41 307 42 c 4
 319 43 329 53 327 68 c 4
 325 86 313 99 298 97 c 4
 293 97 285 88 287 68 c 4
245 62 m 4
 242 89 250 136 293 138 c 4
 333 141 364 109 368 74 c 4
 373 39 348 2 309 0 c 4
 269 -2 249 34 245 62 c 4
EndSplineSet
Validated: 37
EndChar

StartChar: F
Encoding: 70 70 6
Width: 833
VWidth: 0
Flags: W
HStem: 18 21G<112 142> 632 20G<399 430 635 657>
VStem: 395 42<15 622> 635 42<492.919 651> 732 39<482.113 545.538>
LayerCount: 2
Fore
SplineSet
758 552 m 5
 777 545 l 5
 771 525 l 6
 738 424 720 366 636 290 c 4
 543 207 428 292 356 244 c 4
 255 178 221 129 142 33 c 6
 128 18 l 5
 112 31 l 5
 97 43 l 5
 110 60 l 6
 188 153 226 210 332 279 c 4
 440 350 541 261 608 321 c 4
 685 390 699 436 732 538 c 6
 738 558 l 5
 758 552 l 5
657 651 m 5
 677 651 l 5
 677 630 l 6
 675 528 666 459 580 382 c 4
 487 299 370 386 298 338 c 4
 197 272 164 223 85 127 c 6
 72 110 l 5
 57 123 l 5
 40 138 l 5
 52 153 l 6
 130 246 171 303 277 372 c 4
 385 443 485 354 552 414 c 4
 628 482 633 530 635 631 c 6
 635 652 l 5
 657 651 l 5
399 638 m 1
 415 654 l 1
 430 637 l 1
 590 452 l 1
 574 438 l 1
 558 423 l 1
 413 592 l 1
 250 421 l 1
 235 435 l 1
 219 449 l 1
 399 638 l 1
412 622 m 1
 433 622 l 1
 433 616 l 1
 437 35 l 1
 437 15 l 1
 416 14 l 1
 395 14 l 1
 395 35 l 1
 392 616 l 1
 392 622 l 1
 412 622 l 1
EndSplineSet
Validated: 37
EndChar

StartChar: N
Encoding: 78 78 7
Width: 835
VWidth: 0
Flags: W
HStem: 18 43<188 638> 635 20G<677.212 696.362>
VStem: 656 40<268.727 552> 664 43<94 434.273>
LayerCount: 2
Fore
SplineSet
638 61 m 5xc0
 416 298 l 5
 188 57 l 5
 638 61 l 5xc0
656 552 m 5xe0
 445 329 l 5
 664 94 l 5xd0
 656 552 l 5xe0
417 358 m 5
 696 655 l 5xe0
 707 48 l 5
 707 18 l 5
 685 18 l 5
 666 18 l 5
 91 13 l 5
 388 328 l 5
 131 604 l 5
 161 632 l 5
 417 358 l 5
EndSplineSet
Validated: 1
EndChar

StartChar: M
Encoding: 77 77 8
Width: 833
VWidth: 0
Flags: W
HStem: 8 42<198 677> 178 41<427.371 649> 419 43<198 353.109> 639 20G<157.939 199>
VStem: 156 42<50 419 462 659>
LayerCount: 2
Fore
SplineSet
199 659 m 5
 198 462 l 5
 276 464 362 465 425 393 c 4
 430 387 433 380 435 372 c 4
 443 324 366 283 358 272 c 5
 441 210 496 227 632 219 c 6
 652 218 l 5
 651 198 l 5
 649 177 l 5
 628 178 l 6
 501 186 430 166 332 240 c 4
 324 247 317 255 315 266 c 4
 313 280 321 290 327 298 c 4
 350 328 390 354 393 365 c 5
 344 423 278 421 198 419 c 5
 198 50 l 5
 677 53 l 5
 678 12 l 5
 156 8 l 5
 158 659 l 5
 199 659 l 5
EndSplineSet
Validated: 33
EndChar

StartChar: H
Encoding: 72 72 9
Width: 833
VWidth: 0
Flags: W
HStem: 632 20G<627 655>
LayerCount: 2
Fore
SplineSet
655 633 m 1
 665 615 l 1
 646 606 l 2
 523 544 412 490 429 422 c 0
 442 367 667 417 677 302 c 0
 689 167 559 109 452 38 c 2
 435 26 l 1
 423 43 l 1
 412 60 l 1
 430 72 l 2
 547 150 644 197 635 298 c 0
 628 367 419 285 389 412 c 0
 362 527 520 589 627 643 c 2
 646 652 l 1
 655 633 l 1
406 598 m 1
 415 580 l 1
 396 570 l 2
 273 508 162 454 179 386 c 0
 192 331 417 381 427 266 c 0
 439 131 309 73 202 2 c 1
 203 2 203 3 202 2 c 1
 185 -9 l 1
 174 8 l 1
 162 26 l 1
 180 37 l 2
 297 115 394 161 385 262 c 0
 378 331 169 250 139 377 c 0
 112 492 270 554 377 608 c 2
 396 617 l 1
 406 598 l 1
EndSplineSet
Validated: 37
EndChar

StartChar: Z
Encoding: 90 90 10
Width: 833
VWidth: 0
Flags: W
HStem: 624 41G<131.5 135 529 558>
VStem: 404 42<224.094 445.913>
LayerCount: 2
Fore
SplineSet
558 632 m 5
 575 619 l 5
 562 602 l 6
 484 494 442 434 446 313 c 4
 450 196 505 144 583 39 c 6
 596 22 l 5
 579 10 l 5
 562 -2 l 5
 550 14 l 6
 473 116 408 180 404 312 c 4
 400 446 451 520 529 627 c 6
 541 644 l 5
 558 632 l 5
713 330 m 1
 118 2 l 1
 111 14 105 26 98 38 c 1
 275 136 451 234 628 332 c 1
 115 629 l 1
 122 641 128 653 135 665 c 1
 135 665 526 438 713 330 c 1
EndSplineSet
Validated: 37
EndChar

StartChar: Y
Encoding: 89 89 11
Width: 833
VWidth: 0
Flags: W
HStem: -2 41<337.357 513.92> 528 41<361.967 490.296> 652 20G<409 436>
VStem: 160 42<184.237 375.094> 664 42<189.772 380.905>
LayerCount: 2
Fore
SplineSet
260 478 m 1
 247 493 l 1
 262 508 l 1
 409 660 l 1
 422 672 l 1
 436 661 l 1
 593 511 l 1
 610 498 l 1
 598 482 l 1
 584 466 l 1
 568 478 l 1
 424 618 l 1
 290 478 l 1
 275 463 l 1
 260 478 l 1
423 528 m 0
 302 530 205 410 202 282 c 0
 200 160 298 41 416 39 c 0
 552 37 660 143 664 280 c 0
 668 415 559 526 423 528 c 0
423 569 m 0
 581 567 710 438 706 278 c 0
 702 120 574 -4 415 -2 c 0
 269 0 157 140 160 282 c 0
 163 426 272 571 423 569 c 0
EndSplineSet
Validated: 37
EndChar

StartChar: C
Encoding: 67 67 12
Width: 833
VWidth: 0
Flags: W
HStem: 3 42<143 683> 628 42<402.175 439.021>
LayerCount: 2
Fore
SplineSet
401 600 m 4
 403 581 413 572 420 573 c 4
 432 574 443 586 441 601 c 4
 439 619 426 630 411 628 c 4
 406 628 399 620 401 600 c 4
359 593 m 4
 356 620 365 668 408 670 c 4
 448 673 478 642 482 607 c 4
 487 572 462 534 423 532 c 4
 383 530 363 565 359 593 c 4
398 533 m 1
 415 562 l 1
 432 533 l 1
 738 35 l 1
 758 2 l 1
 721 2 l 1
 106 3 l 1
 68 3 l 1
 88 35 l 1
 398 533 l 1
415 483 m 1
 143 45 l 1
 683 44 l 1
 415 483 l 1
EndSplineSet
Validated: 37
EndChar

StartChar: L
Encoding: 76 76 13
Width: 833
VWidth: 0
Flags: W
HStem: -4 42<447.977 689.65> 649 20G<362 392.556>
VStem: 348 41<123.917 322 368 596>
LayerCount: 2
Fore
SplineSet
389 331 m 1
 388 261 390 191 402 113 c 0
 412 51 492 40 588 38 c 0
 668 36 688 53 756 107 c 2
 772 119 l 1
 785 102 l 1
 798 87 l 1
 782 73 l 2
 714 19 677 -6 587 -4 c 0
 501 -2 377 3 361 107 c 0
 349 184 347 254 348 322 c 1
 102 452 l 1
 70 469 l 1
 101 488 l 1
 362 650 l 1
 392 669 l 1
 393 633 l 2
 396 523 392 433 390 346 c 1
 389 341 l 1
 389 331 l 1
348 368 m 1
 350 440 354 511 352 596 c 1
 153 472 l 1
 348 368 l 1
EndSplineSet
Validated: 33
EndChar

StartChar: G
Encoding: 71 71 14
Width: 833
VWidth: 0
Flags: W
HStem: 662 20G<142 169 598.5 603>
VStem: 603 44<600.909 655>
LayerCount: 2
Fore
SplineSet
81 240 m 2
 179 262 276 295 367 318 c 0
 371 320 386 325 388 328 c 0
 391 333 414 345 417 350 c 0
 420 355 414 352 418 357 c 1
 408 354 382 350 372 348 c 0
 210 326 177 531 131 648 c 2
 123 668 l 1
 142 675 l 1
 162 682 l 1
 169 663 l 2
 223 524 250 367 365 383 c 0
 420 391 491 443 538 511 c 0
 578 568 594 637 603 655 c 1
 603 655 647 673 647 652 c 0
 647 635 644 645 642 638 c 0
 640 636 639 632 637 627 c 0
 602 545 567 486 535 442 c 0
 502 396 470 364 444 335 c 1
 535 351 623 350 697 307 c 0
 760 270 744 187 709 127 c 0
 686 87 651 50 608 27 c 0
 524 -18 370 -15 325 70 c 0
 317 86 313 107 315 127 c 0
 321 189 331 233 349 270 c 1
 267 248 181 220 90 200 c 2
 69 195 l 1
 65 215 l 1
 60 236 l 1
 81 240 l 2
81 240 m 1
 82 240 80 240 81 240 c 1
405 284 m 0
 403 282 401 278 399 276 c 0
 377 241 363 195 356 122 c 0
 354 109 357 99 362 90 c 0
 389 39 514 23 588 63 c 0
 623 81 653 114 673 148 c 0
 707 206 704 254 675 272 c 0
 607 312 522 310 422 288 c 0
 416 286 411 286 405 284 c 0
EndSplineSet
Validated: 37
EndChar

StartChar: Q
Encoding: 81 81 15
Width: 833
VWidth: 0
Flags: W
HStem: 653 20G<622 643>
VStem: 205 42<-13 297 338 443> 222 30<298 338> 602 41<308 672>
LayerCount: 2
Fore
SplineSet
435 424 m 1xd0
 431 404 l 1
 410 409 l 1
 252 443 l 1xb0
 247 7 l 1
 247 -14 l 1
 226 -13 l 1
 205 -13 l 1
 205 8 l 1
 205 9 204 8 205 8 c 1
 211 470 l 1
 211 496 l 1
 236 490 l 1
 419 449 l 1
 440 445 l 1
 435 424 l 1xd0
622 672 m 1
 643 673 l 1
 643 652 l 1
 648 286 l 1
 648 263 l 1
 625 265 l 1
 242 297 l 1
 222 298 l 1
 223 319 l 1
 225 340 l 1
 246 338 l 1
 606 308 l 1
 602 652 l 1
 602 672 l 1
 622 672 l 1
EndSplineSet
Validated: 5
EndChar

StartChar: D
Encoding: 68 68 16
Width: 833
VWidth: 0
Flags: W
HStem: 642 20G<153 182 651 680>
LayerCount: 2
Fore
SplineSet
680 648 m 1
 696 635 l 1
 682 619 l 1
 182 3 l 1
 169 -12 l 1
 153 1 l 1
 138 14 l 1
 151 30 l 1
 651 646 l 1
 664 662 l 1
 680 648 l 1
153 648 m 1
 169 662 l 1
 182 646 l 1
 682 30 l 1
 696 14 l 1
 680 1 l 1
 664 -12 l 1
 651 3 l 1
 151 619 l 1
 138 635 l 1
 153 648 l 1
EndSplineSet
Validated: 5
EndChar

StartChar: B
Encoding: 66 66 17
Width: 833
VWidth: 0
Flags: W
HStem: 22 41<461.655 633.683>
VStem: 113 42<145.229 486.418> 300 41<384.638 487> 640 41<63.6001 134.176>
LayerCount: 2
Fore
SplineSet
321 489 m 5
 341 492 l 5
 343 471 l 6
 352 404 357 365 385 367 c 4
 417 370 418 432 416 483 c 6
 416 488 l 5
 457 485 l 6
 463 484 467 431 469 419 c 4
 488 337 488 282 436 211 c 4
 426 197 410 192 397 193 c 4
 364 195 318 229 321 268 c 6
 323 290 l 5
 343 288 l 5
 365 285 l 5
 362 265 l 6
 363 258 390 233 402 235 c 4
 434 280 445 338 441 381 c 5
 431 366 412 327 390 325 c 4
 309 317 309 422 302 465 c 6
 300 486 l 5
 321 489 l 5
648 552 m 5
 630 540 l 5
 618 557 l 6
 600 582 572 620 558 619 c 4
 393 609 300 622 209 529 c 4
 140 458 154 429 155 332 c 4
 156 233 145 159 217 87 c 4
 307 -4 425 53 627 63 c 5
 633 73 638 105 640 120 c 6
 643 141 l 5
 664 138 l 5
 684 133 l 5
 681 113 l 6
 680 106 681 24 633 22 c 4
 445 13 301 -57 187 58 c 4
 102 144 114 238 113 331 c 4
 112 424 96 473 179 558 c 4
 292 674 404 654 559 661 c 4
 601 663 634 607 652 582 c 6
 664 564 l 5
 648 552 l 5
EndSplineSet
Validated: 33
EndChar

StartChar: A
Encoding: 65 65 18
Width: 833
VWidth: 0
Flags: W
HStem: -2 42<158 684> 471 41<395.313 437.094> 603 42<231.493 310.818 531.384 594.327>
LayerCount: 2
Fore
SplineSet
402 413 m 1
 418 433 l 1
 433 413 l 1
 743 32 l 1
 772 -2 l 1
 728 -2 l 1
 114 -2 l 1
 71 -2 l 1
 98 32 l 1
 402 413 l 1
418 367 m 1
 158 40 l 1
 684 39 l 1
 418 367 l 1
140 482 m 1
 122 493 l 1
 132 512 l 2
 164 567 197 647 285 645 c 0
 387 643 375 513 414 512 c 0
 444 511 473 644 551 641 c 0
 630 637 667 567 708 512 c 2
 720 496 l 1
 703 483 l 1
 687 471 l 1
 674 488 l 2
 628 550 601 597 549 599 c 0
 524 601 494 469 412 471 c 0
 316 473 336 601 284 603 c 0
 228 605 207 555 168 490 c 2
 158 472 l 1
 140 482 l 1
EndSplineSet
Validated: 33
EndChar

StartChar: E
Encoding: 69 69 19
Width: 833
VWidth: 0
Flags: W
HStem: -12 41<143 200 201 298>
VStem: 201 41<-7 185.156> 455 40<44.25 98.0972>
LayerCount: 2
Fore
SplineSet
537 160 m 1
 540 155 l 1
 535 152 l 2
 534 148 534 145 532 142 c 0
 522 111 508 88 500 56 c 2
 495 35 l 1
 475 41 l 1
 455 46 l 1
 460 66 l 2
 467 89 475 107 482 124 c 1
 459 112 420 94 392 128 c 0
 351 180 417 230 447 249 c 0
 455 254 461 256 469 258 c 0
 496 261 534 248 539 212 c 0
 541 193 540 176 537 160 c 1
498 182 m 0
 499 190 500 198 498 207 c 0
 497 210 489 219 476 217 c 0
 474 216 470 215 468 214 c 0
 430 190 415 165 424 154 c 0
 432 144 445 153 490 177 c 0
 492 179 496 180 498 182 c 0
209 343 m 1
 207 241 238 147 242 14 c 1
 241 14 242 13 242 14 c 1
 242 -7 l 1
 222 -8 l 1
 201 -8 l 1
 200 12 l 2
 196 147 161 243 168 365 c 0
 170 400 175 437 185 478 c 0
 209 570 277 669 385 651 c 0
 398 649 412 645 427 641 c 0
 529 613 683 538 650 415 c 0
 604 246 347 330 209 343 c 1
211 385 m 1
 378 369 578 307 610 426 c 0
 631 504 524 572 416 601 c 0
 403 604 390 608 378 610 c 0
 305 623 249 554 226 468 c 0
 218 439 213 412 211 385 c 1
143 8 m 1
 143 29 l 1
 165 29 l 1
 277 28 l 1
 298 27 l 1
 298 7 l 1
 298 -15 l 1
 277 -14 l 1
 164 -12 l 1
 143 -12 l 1
 143 8 l 1
EndSplineSet
Validated: 37
EndChar

StartChar: I
Encoding: 73 73 20
Width: 833
VWidth: 0
Flags: W
LayerCount: 2
Fore
SplineSet
718 517 m 1
 702 506 l 1
 690 523 l 2
 688 525 687 527 685 529 c 0
 637 597 565 637 514 602 c 0
 402 524 350 315 382 177 c 0
 390 141 409 109 432 86 c 0
 497 21 608 7 702 102 c 2
 717 118 l 1
 732 102 l 1
 746 88 l 1
 732 73 l 2
 623 -37 484 -25 402 57 c 0
 373 86 350 124 340 167 c 0
 304 319 358 544 490 636 c 0
 573 694 669 625 720 553 c 0
 722 551 723 548 725 546 c 2
 736 528 l 1
 718 517 l 1
101 482 m 1
 82 490 l 1
 90 510 l 2
 102 537 123 565 146 592 c 0
 197 648 281 702 349 640 c 0
 501 500 557 339 498 138 c 0
 481 82 454 42 418 18 c 0
 321 -47 189 12 110 130 c 2
 98 148 l 1
 116 159 l 1
 133 171 l 1
 144 153 l 2
 217 44 327 7 395 52 c 0
 422 70 443 102 458 150 c 0
 513 336 464 478 321 610 c 0
 283 645 227 620 177 564 c 0
 156 541 138 514 128 492 c 2
 119 473 l 1
 101 482 l 1
EndSplineSet
Validated: 37
EndChar

StartChar: U
Encoding: 85 85 21
Width: 833
VWidth: 0
Flags: W
HStem: 302 42<443.158 688.435> 596 42<221.688 619.521> 628 41<125 141>
LayerCount: 2
Fore
SplineSet
123 648 m 1xa0
 125 669 l 1xa0
 146 668 l 2
 258 656 317 640 427 638 c 0
 522 636 576 651 675 659 c 2
 727 663 l 1
 692 624 l 2
 592 511 503 468 441 357 c 1
 487 350 535 346 592 344 c 0
 646 342 672 359 733 383 c 2
 752 391 l 1
 760 372 l 1
 768 352 l 1
 748 345 l 2
 692 323 657 300 591 302 c 0
 527 304 473 311 422 318 c 1
 379 217 418 156 427 33 c 2
 432 -37 l 1
 381 16 l 1
 112 375 l 1
 82 415 l 1
 132 408 l 2
 238 393 316 376 398 363 c 1
 458 479 539 529 623 612 c 1
 559 604 506 594 427 596 c 0xc0
 313 598 250 614 141 626 c 2
 120 628 l 1
 123 648 l 1xa0
379 324 m 1
 314 334 253 348 176 360 c 1
 383 78 l 1
 371 151 347 239 379 324 c 1
EndSplineSet
Validated: 33
EndChar

StartChar: R
Encoding: 82 82 22
Width: 833
VWidth: 0
Flags: W
HStem: 1 40<494.7 546.43> 651 20G<318 346 486 512>
VStem: 65 42<246.734 444.111> 697 41<121.659 206.263 450.006 536.998>
LayerCount: 2
Fore
SplineSet
486 652 m 1
 493 671 l 1
 512 664 l 2
 600 632 737 605 739 482 c 0
 741 376 539 350 532 340 c 1
 540 324 738 278 738 168 c 0
 738 56 593 29 515 7 c 2
 495 1 l 1
 489 21 l 1
 483 41 l 1
 503 47 l 1
 595 74 697 100 697 168 c 0
 697 248 489 254 489 340 c 0
 489 431 700 407 698 481 c 0
 696 566 599 589 498 624 c 2
 479 632 l 1
 486 652 l 1
346 654 m 1
 356 636 l 1
 337 627 l 2
 209 561 105 484 107 348 c 0
 109 200 206 115 348 50 c 2
 366 41 l 1
 357 22 l 1
 348 3 l 1
 330 12 l 2
 183 80 67 179 65 348 c 0
 63 510 190 597 318 663 c 2
 337 673 l 1
 346 654 l 1
EndSplineSet
Validated: 33
EndChar

StartChar: O
Encoding: 79 79 23
Width: 833
VWidth: 0
Flags: W
HStem: 233 42<392.175 430.562> 675 20G<409.915 426.333>
LayerCount: 2
Fore
SplineSet
391 204 m 4
 393 185 403 177 410 178 c 4
 422 179 434 191 432 206 c 4
 430 224 416 235 401 233 c 4
 396 233 389 224 391 204 c 4
349 198 m 4
 346 225 355 273 398 275 c 4
 438 278 468 246 472 211 c 4
 477 176 452 139 413 137 c 4
 373 135 353 170 349 198 c 4
157 -1 m 1
 138 7 l 1
 146 27 l 1
 399 648 l 1
 418 695 l 1
 438 647 l 1
 685 23 l 1
 692 3 l 1
 673 -4 l 1
 653 -12 l 1
 646 8 l 1
 418 583 l 1
 184 10 l 1
 177 -9 l 1
 157 -1 l 1
EndSplineSet
Validated: 33
EndChar

StartChar: ltd01
Encoding: 256 -1 24
Width: 833
VWidth: 0
Flags: W
HStem: 640 20G<649.923 722.836>
LayerCount: 2
Fore
SplineSet
673 447 m 5
 652 452 l 5
 632 456 l 5
 638 477 l 5
 659 574 l 5
 89 18 l 5
 73 4 l 5
 59 18 l 5
 44 34 l 5
 60 48 l 5
 612 588 l 5
 509 562 l 5
 499 602 l 5
 525 608 l 5
 728 660 l 5
 673 447 l 5
EndSplineSet
Validated: 1
EndChar

StartChar: V
Encoding: 86 86 25
Width: 833
VWidth: 0
Flags: W
HStem: 658 20G<539 564.154>
VStem: 231 41<254.638 449.012> 364 42<256.824 423.815>
LayerCount: 2
Fore
SplineSet
569 652 m 1
 561 642 l 2
 483 542 404 407 406 353 c 0
 408 293 454 134 572 24 c 2
 578 18 l 1
 562 -14 l 1
 552 -11 l 2
 345 47 238 186 231 352 c 0
 224 511 361 619 539 675 c 2
 548 678 l 1
 569 652 l 1
487 612 m 1
 350 554 267 466 272 354 c 0
 277 227 346 121 485 58 c 1
 400 168 366 291 364 352 c 0
 362 419 423 522 487 612 c 1
EndSplineSet
Validated: 33
EndChar

StartChar: ltd02
Encoding: 257 -1 26
Width: 833
VWidth: 0
Flags: W
HStem: 533 42<238 404 440 584> 633 43<394 443>
LayerCount: 2
Fore
SplineSet
189 485 m 1
 170 494 l 1
 180 513 l 1
 207 564 l 1
 212 575 l 1
 225 575 l 1
 593 578 l 1
 604 578 l 1
 611 570 l 1
 649 519 l 1
 662 502 l 1
 645 490 l 1
 628 478 l 1
 616 494 l 1
 584 537 l 1
 238 533 l 1
 217 493 l 1
 207 475 l 1
 189 485 l 1
420 595 m 1
 443 633 l 1
 394 633 l 1
 420 595 l 1
404 545 m 1
 338 642 l 1
 316 673 l 1
 355 674 l 1
 480 676 l 1
 517 677 l 1
 498 644 l 1
 440 546 l 1
 422 544 l 1
 404 545 l 1
EndSplineSet
Validated: 5
EndChar

StartChar: ltd03
Encoding: 258 -1 27
Width: 833
VWidth: 0
Flags: W
HStem: 270 42<48 400.308> 283 42<400.308 707> 338 42<709.713 749.021>
LayerCount: 2
Fore
SplineSet
710 310 m 4x60
 712 291 724 282 731 283 c 4
 743 284 753 295 751 310 c 4
 749 328 736 340 721 338 c 4
 716 338 708 330 710 310 c 4x60
669 303 m 4
 666 330 675 378 718 380 c 4
 758 383 788 351 792 316 c 4
 797 281 772 244 733 242 c 4
 693 240 673 275 669 303 c 4
47 291 m 1
 46 312 l 1
 67 312 l 1
 66 312 67 311 67 312 c 1xa0
 686 325 l 5
 707 326 l 5
 708 305 l 5
 708 284 l 5
 688 283 l 5x60
 68 271 l 1
 68 272 67 271 68 271 c 1
 48 270 l 1xa0
 47 291 l 1
EndSplineSet
Validated: 37
EndChar

StartChar: ltd04
Encoding: 259 -1 28
Width: 833
VWidth: 0
Flags: W
HStem: 623 20G<728 748.952>
VStem: 708 41<229.333 642> 716 42<12 491.111>
LayerCount: 2
Fore
SplineSet
728 642 m 1xc0
 748 643 l 1
 749 622 l 1xc0
 758 33 l 1
 758 12 l 1
 737 12 l 1
 716 12 l 1
 716 33 l 1xa0
 708 622 l 1
 707 642 l 1
 728 642 l 1xc0
EndSplineSet
Validated: 1
EndChar

StartChar: ltd05
Encoding: 260 -1 29
Width: 833
VWidth: 0
Flags: W
HStem: -132 114
VStem: 378 128
LayerCount: 2
Fore
SplineSet
391 -34 m 1
 404 -18 l 1
 506 -99 l 1
 492 -116 l 1
 479 -132 l 1
 378 -51 l 1
 391 -34 l 1
EndSplineSet
Validated: 1
EndChar

StartChar: ltd06
Encoding: 261 -1 30
Width: 833
VWidth: 0
Flags: W
HStem: -53 41<390.331 429.021>
VStem: 349 123
LayerCount: 2
Fore
SplineSet
390 -82 m 0
 392 -101 403 -109 410 -108 c 0
 422 -107 434 -97 432 -82 c 0
 430 -64 416 -51 401 -53 c 0
 396 -53 388 -62 390 -82 c 0
349 -88 m 0
 346 -61 355 -14 398 -12 c 0
 438 -9 468 -41 472 -76 c 0
 477 -111 452 -148 413 -150 c 0
 373 -152 353 -116 349 -88 c 0
EndSplineSet
Validated: 33
EndChar

StartChar: ltd07
Encoding: 262 -1 31
Width: 833
VWidth: 0
Flags: W
HStem: 18 21G<112 142> 632 20G<635 657>
VStem: 635 42<492.919 651> 732 39<482.113 545.538>
LayerCount: 2
Fore
SplineSet
758 552 m 5
 777 545 l 5
 771 525 l 6
 738 424 720 366 636 290 c 4
 543 207 428 292 356 244 c 4
 255 178 221 129 142 33 c 6
 128 18 l 5
 112 31 l 5
 97 43 l 5
 110 60 l 6
 188 153 226 210 332 279 c 4
 440 350 541 261 608 321 c 4
 685 390 699 436 732 538 c 6
 738 558 l 5
 758 552 l 5
657 651 m 5
 677 651 l 5
 677 630 l 6
 675 528 666 459 580 382 c 4
 487 299 370 386 298 338 c 4
 197 272 164 223 85 127 c 6
 72 110 l 5
 57 123 l 5
 40 138 l 5
 52 153 l 6
 130 246 171 303 277 372 c 4
 385 443 485 354 552 414 c 4
 628 482 633 530 635 631 c 6
 635 652 l 5
 657 651 l 5
EndSplineSet
Validated: 33
EndChar

StartChar: ltd08
Encoding: 263 -1 32
Width: 833
VWidth: 0
Flags: W
HStem: 624 20G<529 558>
VStem: 404 42<214.654 445.913>
LayerCount: 2
Fore
SplineSet
558 632 m 5
 575 619 l 5
 562 602 l 6
 484 494 442 434 446 313 c 4
 450 196 505 144 583 39 c 6
 596 22 l 5
 579 10 l 5
 562 -2 l 5
 550 14 l 6
 473 116 408 180 404 312 c 4
 400 446 451 520 529 627 c 6
 541 644 l 5
 558 632 l 5
EndSplineSet
Validated: 33
EndChar

StartChar: lt_ZA
Encoding: 264 -1 33
Width: 833
VWidth: 0
Flags: W
HStem: -2 42<158 684> 471 41<395.313 437.094> 603 42<231.493 310.818 531.384 594.327>
VStem: 506 33<-43.575 79.0539>
LayerCount: 2
Fore
SplineSet
581 144 m 5
 588 140 l 5
 594 135 l 5
 589 128 l 5
 584 122 l 6
 567 100 556 83 548 65 c 4
 541 49 538 32 539 10 c 4
 539 0 541 -9 543 -17 c 4
 551 -44 568 -62 592 -94 c 6
 598 -101 l 5
 602 -108 l 5
 596 -112 l 5
 589 -118 l 5
 582 -122 l 5
 576 -128 l 5
 571 -121 l 5
 566 -114 l 6
 545 -86 525 -64 514 -34 c 4
 509 -21 507 -7 506 10 c 4
 505 37 510 58 518 77 c 4
 527 99 541 118 558 141 c 6
 562 148 l 5
 568 154 l 5
 573 149 l 5
 581 144 l 5
402 413 m 1
 418 433 l 1
 433 413 l 1
 743 32 l 1
 772 -2 l 1
 728 -2 l 1
 114 -2 l 1
 71 -2 l 1
 98 32 l 1
 402 413 l 1
418 367 m 1
 158 40 l 1
 684 39 l 1
 418 367 l 1
140 482 m 1
 122 493 l 1
 132 512 l 2
 164 567 197 647 285 645 c 0
 387 643 375 513 414 512 c 0
 444 511 473 644 551 641 c 0
 630 637 667 567 708 512 c 2
 720 496 l 1
 703 483 l 1
 687 471 l 1
 674 488 l 2
 628 550 601 597 549 599 c 0
 524 601 494 469 412 471 c 0
 316 473 336 601 284 603 c 0
 228 605 207 555 168 490 c 2
 158 472 l 1
 140 482 l 1
EndSplineSet
Validated: 37
Ligature2: "ltligs1" Z A
EndChar

StartChar: lt_ZB
Encoding: 265 -1 34
Width: 833
VWidth: 0
Flags: W
HStem: 22 41<531.798 633.683>
VStem: 113 42<145.229 486.418> 300 41<384.638 487> 495 33<35 110.994> 640 41<63.6001 134.176>
LayerCount: 2
Fore
SplineSet
321 489 m 1
 341 492 l 1
 343 471 l 2
 352 404 357 365 385 367 c 0
 417 370 418 432 416 483 c 2
 416 488 l 1
 457 485 l 2
 463 484 467 431 469 419 c 0
 488 337 488 282 436 211 c 0
 426 197 410 192 397 193 c 0
 364 195 318 229 321 268 c 2
 323 290 l 1
 343 288 l 1
 365 285 l 1
 362 265 l 2
 363 258 390 233 402 235 c 0
 434 280 445 338 441 381 c 1
 431 366 412 327 390 325 c 0
 309 317 309 422 302 465 c 2
 300 486 l 1
 321 489 l 1
648 552 m 1
 630 540 l 1
 618 557 l 2
 600 582 572 620 558 619 c 0
 393 609 300 622 209 529 c 0
 140 458 154 429 155 332 c 0
 156 233 145 159 217 87 c 0
 307 -4 425 53 627 63 c 1
 633 73 638 105 640 120 c 2
 643 141 l 1
 664 138 l 1
 684 133 l 1
 681 113 l 2
 680 106 681 24 633 22 c 0
 445 13 301 -57 187 58 c 0
 102 144 114 238 113 331 c 0
 112 424 96 473 179 558 c 0
 292 674 404 654 559 661 c 0
 601 663 634 607 652 582 c 2
 664 564 l 1
 648 552 l 1
570 178 m 5
 577 173 l 5
 583 168 l 5
 578 162 l 5
 573 156 l 6
 556 134 546 116 538 98 c 4
 531 82 527 67 528 45 c 4
 528 35 530 26 532 18 c 4
 540 -9 558 -28 582 -60 c 6
 587 -67 l 5
 592 -73 l 5
 585 -78 l 5
 578 -83 l 5
 572 -88 l 5
 565 -93 l 5
 560 -87 l 5
 555 -80 l 6
 534 -52 513 -30 502 0 c 4
 497 13 496 26 495 43 c 4
 494 70 499 92 507 111 c 4
 516 133 530 152 547 175 c 6
 552 182 l 5
 557 189 l 5
 563 184 l 5
 570 178 l 5
EndSplineSet
Validated: 37
Ligature2: "ltligs1" Z B
EndChar

StartChar: lt_ZC
Encoding: 266 -1 35
Width: 833
VWidth: 0
Flags: W
HStem: 3 42<143 495 502 528 532 683> 628 42<402.175 439.021>
VStem: 495 33<44.532 110.994>
LayerCount: 2
Fore
SplineSet
570 178 m 5
 577 173 l 5
 583 168 l 5
 578 162 l 5
 573 156 l 6
 556 134 546 116 538 98 c 4
 531 82 527 67 528 45 c 4
 528 35 530 26 532 18 c 4
 540 -9 558 -28 582 -60 c 6
 587 -67 l 5
 592 -73 l 5
 585 -78 l 5
 578 -83 l 5
 572 -88 l 5
 565 -93 l 5
 560 -87 l 5
 555 -80 l 6
 534 -52 513 -30 502 0 c 4
 497 13 496 26 495 43 c 4
 494 70 499 92 507 111 c 4
 516 133 530 152 547 175 c 6
 552 182 l 5
 557 189 l 5
 563 184 l 5
 570 178 l 5
401 600 m 0
 403 581 413 572 420 573 c 0
 432 574 443 586 441 601 c 0
 439 619 426 630 411 628 c 0
 406 628 399 620 401 600 c 0
359 593 m 0
 356 620 365 668 408 670 c 0
 448 673 478 642 482 607 c 0
 487 572 462 534 423 532 c 0
 383 530 363 565 359 593 c 0
398 533 m 1
 415 562 l 1
 432 533 l 1
 738 35 l 1
 758 2 l 1
 721 2 l 1
 106 3 l 1
 68 3 l 1
 88 35 l 1
 398 533 l 1
415 483 m 1
 143 45 l 1
 683 44 l 1
 415 483 l 1
EndSplineSet
Validated: 37
Ligature2: "ltligs1" Z C
EndChar

StartChar: lt_ZD
Encoding: 267 -1 36
Width: 833
VWidth: 0
Flags: W
HStem: 642 20G<153 182 651 680>
VStem: 489 33<10.2857 102.783>
LayerCount: 2
Fore
SplineSet
683 201 m 5
 685 192 l 5
 686 184 l 5
 678 182 l 5
 669 182 l 6
 641 178 622 174 604 167 c 4
 588 160 574 151 559 135 c 4
 552 127 547 120 543 113 c 4
 530 90 529 63 523 23 c 6
 522 15 l 5
 520 7 l 5
 512 8 l 5
 504 9 l 5
 496 10 l 5
 488 12 l 5
 489 20 l 5
 490 28 l 6
 495 63 496 93 510 122 c 4
 516 134 524 146 535 158 c 4
 553 177 572 190 591 198 c 4
 613 207 637 211 665 215 c 6
 672 216 l 5
 681 218 l 5
 682 209 l 5
 683 201 l 5
680 648 m 1
 696 635 l 1
 682 619 l 1
 182 3 l 1
 169 -12 l 1
 153 1 l 1
 138 14 l 1
 151 30 l 1
 651 646 l 1
 664 662 l 1
 680 648 l 1
153 648 m 1
 169 662 l 1
 182 646 l 1
 682 30 l 1
 696 14 l 1
 680 1 l 1
 664 -12 l 1
 651 3 l 1
 151 619 l 1
 138 635 l 1
 153 648 l 1
EndSplineSet
Validated: 5
Ligature2: "ltligs1" Z D
EndChar

StartChar: lt_ZE
Encoding: 268 -1 37
Width: 833
VWidth: 0
Flags: W
HStem: -12 41<143 200 201 298>
VStem: 201 41<-7 185.156> 263 34<269.576 392.057> 455 40<44.25 98.0972>
LayerCount: 2
Fore
SplineSet
338 458 m 5
 345 453 l 5
 352 448 l 5
 347 442 l 5
 342 435 l 6
 325 413 315 396 307 378 c 4
 300 362 296 346 297 324 c 4
 297 314 299 306 301 298 c 4
 309 271 326 251 350 219 c 6
 355 212 l 5
 360 207 l 5
 353 202 l 5
 347 196 l 5
 340 191 l 5
 333 186 l 5
 328 193 l 5
 323 199 l 6
 302 227 283 249 272 279 c 4
 267 292 264 306 263 323 c 4
 262 350 267 371 275 390 c 4
 284 412 298 432 315 455 c 6
 320 461 l 5
 325 468 l 5
 332 463 l 5
 338 458 l 5
537 160 m 1
 540 155 l 1
 535 152 l 2
 534 148 534 145 532 142 c 0
 522 111 508 88 500 56 c 2
 495 35 l 1
 475 41 l 1
 455 46 l 1
 460 66 l 2
 467 89 475 107 482 124 c 1
 459 112 420 94 392 128 c 0
 351 180 417 230 447 249 c 0
 455 254 461 256 469 258 c 0
 496 261 534 248 539 212 c 0
 541 193 540 176 537 160 c 1
498 182 m 0
 499 190 500 198 498 207 c 0
 497 210 489 219 476 217 c 0
 474 216 470 215 468 214 c 0
 430 190 415 165 424 154 c 0
 432 144 445 153 490 177 c 0
 492 179 496 180 498 182 c 0
209 343 m 1
 207 241 238 147 242 14 c 1
 241 14 242 13 242 14 c 1
 242 -7 l 1
 222 -8 l 1
 201 -8 l 1
 200 12 l 2
 196 147 161 243 168 365 c 0
 170 400 175 437 185 478 c 0
 209 570 277 669 385 651 c 0
 398 649 412 645 427 641 c 0
 529 613 683 538 650 415 c 0
 604 246 347 330 209 343 c 1
211 385 m 1
 378 369 578 307 610 426 c 0
 631 504 524 572 416 601 c 0
 403 604 390 608 378 610 c 0
 305 623 249 554 226 468 c 0
 218 439 213 412 211 385 c 1
143 8 m 1
 143 29 l 1
 165 29 l 1
 277 28 l 1
 298 27 l 1
 298 7 l 1
 298 -15 l 1
 277 -14 l 1
 164 -12 l 1
 143 -12 l 1
 143 8 l 1
EndSplineSet
Validated: 37
Ligature2: "ltligs1" Z E
EndChar

StartChar: lt_ZF
Encoding: 269 -1 38
Width: 833
VWidth: 0
Flags: W
HStem: 18 21G<112 142> 632 20G<399 430 635 657>
VStem: 395 42<15 622> 518 34<172.055 251.392> 635 42<492.919 651> 732 39<482.113 545.538>
LayerCount: 2
Fore
SplineSet
592 362 m 1
 599 357 l 1
 607 352 l 1
 602 345 l 1
 597 339 l 2
 580 317 568 300 560 282 c 0
 553 266 551 250 552 228 c 0
 552 218 553 209 555 201 c 0
 563 174 580 155 604 123 c 2
 610 117 l 1
 615 110 l 1
 608 105 l 1
 602 100 l 1
 594 94 l 1
 588 90 l 1
 582 97 l 1
 578 102 l 2
 557 130 537 153 526 183 c 0
 521 196 519 210 518 227 c 0
 517 254 522 274 530 293 c 0
 539 315 552 335 569 358 c 2
 574 365 l 1
 579 372 l 1
 586 367 l 1
 592 362 l 1
758 552 m 1
 777 545 l 1
 771 525 l 2
 738 424 720 366 636 290 c 0
 543 207 428 292 356 244 c 0
 255 178 221 129 142 33 c 2
 128 18 l 1
 112 31 l 1
 97 43 l 1
 110 60 l 2
 188 153 226 210 332 279 c 0
 440 350 541 261 608 321 c 0
 685 390 699 436 732 538 c 2
 738 558 l 1
 758 552 l 1
657 651 m 1
 677 651 l 1
 677 630 l 2
 675 528 666 459 580 382 c 0
 487 299 370 386 298 338 c 0
 197 272 164 223 85 127 c 2
 72 110 l 1
 57 123 l 1
 40 138 l 1
 52 153 l 2
 130 246 171 303 277 372 c 0
 385 443 485 354 552 414 c 0
 628 482 633 530 635 631 c 2
 635 652 l 1
 657 651 l 1
399 638 m 1
 415 654 l 1
 430 637 l 1
 590 452 l 1
 574 438 l 1
 558 423 l 1
 413 592 l 1
 250 421 l 1
 235 435 l 1
 219 449 l 1
 399 638 l 1
412 622 m 1
 433 622 l 1
 433 616 l 1
 437 35 l 1
 437 15 l 1
 416 14 l 1
 395 14 l 1
 395 35 l 1
 392 616 l 1
 392 622 l 1
 412 622 l 1
EndSplineSet
Validated: 37
Ligature2: "ltligs1" Z F
EndChar

StartChar: lt_ZG
Encoding: 270 -1 39
Width: 833
VWidth: 0
Flags: W
HStem: 662 20G<142 169 598.5 603>
VStem: 495 33<42.206 110.994> 603 44<600.909 655>
LayerCount: 2
Fore
SplineSet
570 178 m 5
 577 173 l 5
 583 168 l 5
 578 162 l 5
 573 156 l 6
 556 134 546 116 538 98 c 4
 531 82 527 67 528 45 c 4
 528 35 530 26 532 18 c 4
 540 -9 558 -28 582 -60 c 6
 587 -67 l 5
 592 -73 l 5
 585 -78 l 5
 578 -83 l 5
 572 -88 l 5
 565 -93 l 5
 560 -87 l 5
 555 -80 l 6
 534 -52 513 -30 502 0 c 4
 497 13 496 26 495 43 c 4
 494 70 499 92 507 111 c 4
 516 133 530 152 547 175 c 6
 552 182 l 5
 557 189 l 5
 563 184 l 5
 570 178 l 5
81 240 m 2
 179 262 276 295 367 318 c 0
 371 320 386 325 388 328 c 0
 391 333 414 345 417 350 c 0
 420 355 414 352 418 357 c 1
 408 354 382 350 372 348 c 0
 210 326 177 531 131 648 c 2
 123 668 l 1
 142 675 l 1
 162 682 l 1
 169 663 l 2
 223 524 250 367 365 383 c 0
 420 391 491 443 538 511 c 0
 578 568 594 637 603 655 c 1
 603 655 647 673 647 652 c 0
 647 635 644 645 642 638 c 0
 640 636 639 632 637 627 c 0
 602 545 567 486 535 442 c 0
 502 396 470 364 444 335 c 1
 535 351 623 350 697 307 c 0
 760 270 744 187 709 127 c 0
 686 87 651 50 608 27 c 0
 524 -18 370 -15 325 70 c 0
 317 86 313 107 315 127 c 0
 321 189 331 233 349 270 c 1
 267 248 181 220 90 200 c 2
 69 195 l 1
 65 215 l 1
 60 236 l 1
 81 240 l 2
81 240 m 1
 82 240 80 240 81 240 c 1
405 284 m 0
 403 282 401 278 399 276 c 0
 377 241 363 195 356 122 c 0
 354 109 357 99 362 90 c 0
 389 39 514 23 588 63 c 0
 623 81 653 114 673 148 c 0
 707 206 704 254 675 272 c 0
 607 312 522 310 422 288 c 0
 416 286 411 286 405 284 c 0
EndSplineSet
Validated: 37
Ligature2: "ltligs1" Z G
EndChar

StartChar: lt_ZH
Encoding: 271 -1 40
Width: 833
VWidth: 0
Flags: W
HStem: 632 20G<627 655>
LayerCount: 2
Fore
SplineSet
568 258 m 5
 574 252 l 5
 582 248 l 5
 577 241 l 5
 571 234 l 6
 554 212 543 196 535 178 c 4
 528 162 525 145 526 123 c 4
 526 113 528 105 530 97 c 4
 538 70 555 50 579 18 c 6
 584 12 l 5
 590 6 l 5
 582 1 l 5
 576 -5 l 5
 569 -10 l 5
 562 -15 l 5
 558 -8 l 5
 552 -2 l 6
 531 26 512 48 501 78 c 4
 496 91 493 105 492 122 c 4
 491 149 496 171 504 190 c 4
 513 212 527 231 544 254 c 6
 549 260 l 5
 554 268 l 5
 561 262 l 5
 568 258 l 5
655 633 m 1
 665 615 l 1
 646 606 l 2
 523 544 412 490 429 422 c 0
 442 367 667 417 677 302 c 0
 689 167 559 109 452 38 c 2
 435 26 l 1
 423 43 l 1
 412 60 l 1
 430 72 l 2
 547 150 644 197 635 298 c 0
 628 367 419 285 389 412 c 0
 362 527 520 589 627 643 c 2
 646 652 l 1
 655 633 l 1
406 598 m 1
 415 580 l 1
 396 570 l 2
 273 508 162 454 179 386 c 0
 192 331 417 381 427 266 c 0
 439 131 309 73 202 2 c 1
 203 2 203 3 202 2 c 1
 185 -9 l 1
 174 8 l 1
 162 26 l 1
 180 37 l 2
 297 115 394 161 385 262 c 0
 378 331 169 250 139 377 c 0
 112 492 270 554 377 608 c 2
 396 617 l 1
 406 598 l 1
EndSplineSet
Validated: 37
Ligature2: "ltligs1" Z H
EndChar

StartChar: lt_ZI
Encoding: 272 -1 41
Width: 833
VWidth: 0
Flags: W
VStem: 557 33<-37.9453 86.0539>
LayerCount: 2
Fore
SplineSet
632 152 m 5
 638 147 l 5
 645 142 l 5
 640 135 l 5
 635 128 l 6
 618 106 607 90 599 72 c 4
 592 56 589 40 590 18 c 4
 590 8 591 -2 593 -10 c 4
 601 -37 619 -56 643 -88 c 6
 648 -93 l 5
 653 -101 l 5
 647 -106 l 5
 640 -110 l 5
 633 -116 l 5
 627 -121 l 5
 622 -114 l 5
 617 -108 l 6
 596 -80 576 -57 565 -27 c 4
 560 -14 558 0 557 17 c 4
 556 44 560 65 568 84 c 4
 577 106 591 125 608 148 c 6
 613 155 l 5
 618 161 l 5
 625 157 l 5
 632 152 l 5
718 517 m 1
 702 506 l 1
 690 523 l 2
 688 525 687 527 685 529 c 0
 637 597 565 637 514 602 c 0
 402 524 350 315 382 177 c 0
 390 141 409 109 432 86 c 0
 497 21 608 7 702 102 c 2
 717 118 l 1
 732 102 l 1
 746 88 l 1
 732 73 l 2
 623 -37 484 -25 402 57 c 0
 373 86 350 124 340 167 c 0
 304 319 358 544 490 636 c 0
 573 694 669 625 720 553 c 0
 722 551 723 548 725 546 c 2
 736 528 l 1
 718 517 l 1
101 482 m 1
 82 490 l 1
 90 510 l 2
 102 537 123 565 146 592 c 0
 197 648 281 702 349 640 c 0
 501 500 557 339 498 138 c 0
 481 82 454 42 418 18 c 0
 321 -47 189 12 110 130 c 2
 98 148 l 1
 116 159 l 1
 133 171 l 1
 144 153 l 2
 217 44 327 7 395 52 c 0
 422 70 443 102 458 150 c 0
 513 336 464 478 321 610 c 0
 283 645 227 620 177 564 c 0
 156 541 138 514 128 492 c 2
 119 473 l 1
 101 482 l 1
EndSplineSet
Validated: 37
Ligature2: "ltligs1" Z I
EndChar

StartChar: lt_ZK
Encoding: 273 -1 42
Width: 833
VWidth: 0
Flags: W
HStem: 22 43<509 691> 640 20G<649.923 722.836>
VStem: 543 34<-55.9453 23.2441>
LayerCount: 2
Fore
SplineSet
618 133 m 1
 625 128 l 1
 632 123 l 1
 627 117 l 1
 622 110 l 2
 605 88 594 71 586 53 c 0
 579 37 576 21 577 -1 c 0
 577 -11 579 -20 581 -28 c 0
 589 -55 606 -74 630 -106 c 2
 635 -112 l 1
 640 -118 l 1
 633 -123 l 1
 627 -128 l 1
 620 -134 l 1
 613 -139 l 1
 608 -132 l 1
 603 -126 l 2
 582 -98 563 -75 552 -45 c 0
 547 -32 544 -19 543 -2 c 0
 542 25 548 46 556 65 c 0
 565 87 578 107 595 130 c 2
 600 136 l 1
 605 143 l 1
 612 138 l 1
 618 133 l 1
566 263 m 1
 582 293 l 1
 602 265 l 1
 748 60 l 1
 771 28 l 1
 732 28 l 1
 474 22 l 1
 440 22 l 1
 456 52 l 1
 566 263 l 1
587 214 m 1
 509 65 l 1
 691 68 l 1
 587 214 l 1
673 447 m 1
 652 452 l 1
 632 456 l 1
 638 477 l 1
 659 574 l 1
 89 18 l 1
 73 4 l 1
 59 18 l 1
 44 34 l 1
 60 48 l 1
 612 588 l 1
 509 562 l 1
 499 602 l 1
 525 608 l 1
 728 660 l 1
 673 447 l 1
EndSplineSet
Validated: 37
Ligature2: "ltligs1" Z K
EndChar

StartChar: lt_ZL
Encoding: 274 -1 43
Width: 833
VWidth: 0
Flags: W
HStem: -4 42<447.977 689.65> 649 20G<362 392.556>
VStem: 348 41<123.917 322 368 596> 565 33<-37.2381 83.0298>
LayerCount: 2
Fore
SplineSet
640 150 m 5
 647 145 l 5
 653 140 l 5
 648 133 l 5
 643 127 l 6
 626 105 616 88 608 70 c 4
 601 54 597 38 598 16 c 4
 598 6 600 -3 602 -11 c 4
 610 -38 628 -57 652 -89 c 6
 657 -96 l 5
 662 -102 l 5
 655 -107 l 5
 648 -112 l 5
 642 -118 l 5
 635 -122 l 5
 630 -115 l 5
 625 -109 l 6
 604 -81 584 -59 573 -29 c 4
 568 -16 566 -2 565 15 c 4
 564 42 569 63 577 82 c 4
 586 104 600 124 617 147 c 6
 622 152 l 5
 627 160 l 5
 633 155 l 5
 640 150 l 5
389 331 m 1
 388 261 390 191 402 113 c 0
 412 51 492 40 588 38 c 0
 668 36 688 53 756 107 c 2
 772 119 l 1
 785 102 l 1
 798 87 l 1
 782 73 l 2
 714 19 677 -6 587 -4 c 0
 501 -2 377 3 361 107 c 0
 349 184 347 254 348 322 c 1
 102 452 l 1
 70 469 l 1
 101 488 l 1
 362 650 l 1
 392 669 l 1
 393 633 l 2
 396 523 392 433 390 346 c 1
 389 341 l 1
 389 331 l 1
348 368 m 1
 350 440 354 511 352 596 c 1
 153 472 l 1
 348 368 l 1
EndSplineSet
Validated: 37
Ligature2: "ltligs1" Z L
EndChar

StartChar: lt_ZM
Encoding: 275 -1 44
Width: 833
VWidth: 0
Flags: W
HStem: 8 42<198 677> 178 41<427.371 649> 418 42<166 352.244> 639 20G<158 199>
VStem: 158 41<50 419 461 659> 165 34<419 460> 501 33<-41.575 81.0703>
LayerCount: 2
Fore
SplineSet
576 147 m 5xf2
 582 142 l 5
 589 137 l 5
 584 130 l 5
 579 123 l 6
 562 101 551 85 543 67 c 4
 536 51 533 34 534 12 c 4
 534 2 536 -7 538 -15 c 4
 546 -42 564 -60 588 -92 c 6
 592 -98 l 5
 598 -106 l 5
 591 -110 l 5
 584 -115 l 5
 578 -121 l 5
 571 -126 l 5
 566 -118 l 5
 561 -112 l 6
 540 -84 520 -62 509 -32 c 4
 504 -19 502 -5 501 12 c 4
 500 39 504 59 512 78 c 4
 521 100 535 120 552 143 c 6
 558 150 l 5
 562 157 l 5
 568 152 l 5
 576 147 l 5xf2
165 440 m 1xf6
 165 460 l 1
 185 461 l 2
 266 463 358 470 425 393 c 0
 430 387 433 380 435 372 c 0
 443 324 366 283 358 272 c 1
 441 210 496 227 632 219 c 2
 652 218 l 1
 651 198 l 1
 649 177 l 1
 628 178 l 2
 501 186 430 166 332 240 c 0
 324 247 317 255 315 266 c 0
 313 280 321 290 327 298 c 0
 350 328 390 354 393 365 c 0
 341 425 272 421 187 419 c 2
 166 418 l 1
 165 440 l 1xf6
178 659 m 1
 199 659 l 1
 199 638 l 1
 199 639 200 638 199 638 c 1
 198 50 l 1
 657 53 l 1
 677 53 l 1
 678 32 l 1
 678 12 l 1
 657 12 l 1
 177 8 l 1
 156 8 l 1
 156 29 l 1
 158 638 l 1
 157 638 158 639 158 638 c 1
 158 659 l 1xfa
 178 659 l 1
EndSplineSet
Validated: 37
Ligature2: "ltligs1" Z M
EndChar

StartChar: lt_ZN
Encoding: 276 -1 45
Width: 835
VWidth: 0
Flags: W
HStem: 18 43<188 638> 635 20G<677.212 696.362>
VStem: 377 33<-39.2134 82.0284> 656 40<268.727 552> 664 43<94 434.273>
LayerCount: 2
Fore
SplineSet
452 148 m 5xe0
 458 143 l 5
 465 138 l 5
 460 132 l 5
 455 125 l 6
 438 103 427 86 419 68 c 4
 412 52 409 37 410 15 c 4
 410 5 412 -4 414 -12 c 4
 422 -39 439 -59 463 -91 c 6
 468 -98 l 5
 473 -104 l 5
 467 -109 l 5
 460 -114 l 5
 453 -118 l 5
 447 -124 l 5
 442 -118 l 5
 437 -110 l 6
 416 -82 396 -61 385 -31 c 4
 380 -18 378 -4 377 13 c 4
 376 40 380 62 388 81 c 4
 397 103 411 121 428 144 c 6
 433 152 l 5
 438 158 l 5
 445 152 l 5
 452 148 l 5xe0
638 61 m 1
 416 298 l 1
 188 57 l 1
 638 61 l 1
656 552 m 1xf0
 445 329 l 1
 664 94 l 1xe8
 656 552 l 1xf0
417 358 m 1
 696 655 l 1xf0
 707 48 l 1
 707 18 l 1
 685 18 l 1
 666 18 l 1
 91 13 l 1
 388 328 l 1
 131 604 l 1
 161 632 l 1
 417 358 l 1
EndSplineSet
Validated: 37
Ligature2: "ltligs1" Z N
EndChar

StartChar: lt_ZO
Encoding: 277 -1 46
Width: 833
VWidth: 0
Flags: W
HStem: 233 42<392.175 430.562> 675 20G<409.915 426.333>
LayerCount: 2
Fore
SplineSet
758 138 m 1
 754 131 l 1
 752 123 l 1
 743 126 l 1
 736 128 l 2
 710 138 690 147 672 149 c 0
 655 151 640 151 618 144 c 0
 608 142 599 138 592 134 c 0
 569 120 555 99 529 67 c 2
 524 60 l 1
 518 53 l 1
 512 59 l 1
 506 64 l 1
 499 69 l 1
 493 74 l 1
 498 82 l 1
 503 88 l 2
 525 116 541 140 568 158 c 0
 579 166 592 172 608 177 c 0
 633 185 656 184 677 182 c 0
 700 179 721 170 748 160 c 2
 756 157 l 1
 764 153 l 1
 760 146 l 1
 758 138 l 1
391 204 m 0
 393 185 403 177 410 178 c 0
 422 179 434 191 432 206 c 0
 430 224 416 235 401 233 c 0
 396 233 389 224 391 204 c 0
349 198 m 0
 346 225 355 273 398 275 c 0
 438 278 468 246 472 211 c 0
 477 176 452 139 413 137 c 0
 373 135 353 170 349 198 c 0
157 -1 m 1
 138 7 l 1
 146 27 l 1
 399 648 l 1
 418 695 l 1
 438 647 l 1
 685 23 l 1
 692 3 l 1
 673 -4 l 1
 653 -12 l 1
 646 8 l 1
 418 583 l 1
 184 10 l 1
 177 -9 l 1
 157 -1 l 1
EndSplineSet
Validated: 37
Ligature2: "ltligs1" Z O
EndChar

StartChar: lt_ZP
Encoding: 278 -1 47
Width: 833
VWidth: 0
Flags: W
HStem: 324 42<214 235>
VStem: 192 42<82.3125 195.7>
LayerCount: 2
Fore
SplineSet
536 190 m 5
 542 185 l 5
 549 180 l 5
 544 173 l 5
 540 167 l 6
 523 145 511 128 503 110 c 4
 496 94 493 79 494 57 c 4
 494 47 496 37 498 29 c 4
 506 2 524 -16 548 -48 c 6
 552 -56 l 5
 558 -62 l 5
 551 -68 l 5
 544 -72 l 5
 538 -77 l 5
 532 -82 l 5
 526 -76 l 5
 521 -68 l 6
 500 -40 479 -19 468 11 c 4
 463 24 462 38 461 55 c 4
 460 82 465 103 473 122 c 4
 482 144 495 163 512 186 c 6
 518 193 l 5
 522 200 l 5
 529 195 l 5
 536 190 l 5
212 345 m 1
 215 366 l 1
 235 364 l 1
 623 329 l 1
 643 327 l 1
 642 307 l 1
 640 285 l 1
 618 288 l 1
 232 323 l 1
 210 324 l 1
 212 345 l 1
194 531 m 1
 180 546 l 1
 194 560 l 1
 193 559 195 560 194 560 c 1
 261 625 345 669 452 650 c 0
 482 644 515 633 545 616 c 0
 601 585 662 526 625 460 c 0
 577 375 491 359 418 307 c 0
 321 239 229 218 233 128 c 0
 233 126 234 124 234 122 c 0
 242 62 333 29 415 39 c 0
 499 49 552 113 604 190 c 2
 616 207 l 1
 633 196 l 1
 651 184 l 1
 639 167 l 2
 587 90 524 11 420 -2 c 0
 335 -12 204 15 192 117 c 0
 191 119 192 124 192 126 c 0
 185 251 313 285 393 341 c 0
 478 400 550 414 588 482 c 0
 605 513 581 548 525 579 c 0
 499 594 469 604 445 608 c 0
 356 625 285 589 223 530 c 2
 208 515 l 1
 194 531 l 1
EndSplineSet
Validated: 37
Ligature2: "ltligs1" Z P
EndChar

StartChar: lt_ZQ
Encoding: 279 -1 48
Width: 833
VWidth: 0
Flags: W
HStem: 653 20G<622 643>
VStem: 205 42<-13 297 338 443> 222 30<298 338> 443 34<209.893 278.516> 602 41<308 672>
LayerCount: 2
Fore
SplineSet
518 398 m 5x98
 525 393 l 5
 532 388 l 5
 527 382 l 5
 522 375 l 6
 505 353 494 336 486 318 c 4
 479 302 476 287 477 265 c 4
 477 255 479 246 481 238 c 4
 489 211 506 192 530 160 c 6
 535 152 l 5
 540 147 l 5
 533 141 l 5
 527 136 l 5
 520 132 l 5
 513 127 l 5
 508 132 l 5
 503 140 l 6
 482 168 463 189 452 219 c 4
 447 232 444 246 443 263 c 4
 442 290 448 312 456 331 c 4
 465 353 478 371 495 394 c 6
 500 402 l 5
 505 408 l 5
 512 403 l 5
 518 398 l 5x98
435 424 m 1
 431 404 l 1
 410 409 l 1
 252 443 l 1xb8
 247 7 l 1
 247 -14 l 1
 226 -13 l 1
 205 -13 l 1
 205 8 l 1
 205 9 204 8 205 8 c 1xd8
 211 470 l 1
 211 496 l 1
 236 490 l 1
 419 449 l 1
 440 445 l 1
 435 424 l 1
622 672 m 1
 643 673 l 1
 643 652 l 1
 648 286 l 1
 648 263 l 1
 625 265 l 1
 242 297 l 1
 222 298 l 1
 223 319 l 1
 225 340 l 1
 246 338 l 1
 606 308 l 1
 602 652 l 1
 602 672 l 1
 622 672 l 1
EndSplineSet
Validated: 37
Ligature2: "ltligs1" Z Q
EndChar

StartChar: lt_ZR
Encoding: 280 -1 49
Width: 833
VWidth: 0
Flags: W
HStem: 1 40<494.7 546.43> 651 20G<318 346 486 512>
VStem: 65 42<246.734 444.111> 242 34<-21.575 48.5479> 697 41<121.659 206.263 450.006 536.998>
LayerCount: 2
Fore
SplineSet
318 167 m 5
 324 162 l 5
 331 157 l 5
 326 150 l 5
 321 143 l 6
 304 121 293 105 285 87 c 4
 278 71 275 54 276 32 c 4
 276 22 278 14 280 6 c 4
 288 -21 305 -40 329 -72 c 6
 334 -79 l 5
 340 -85 l 5
 332 -90 l 5
 326 -96 l 5
 319 -101 l 5
 312 -106 l 5
 308 -98 l 5
 302 -92 l 6
 281 -64 262 -42 251 -12 c 4
 246 1 243 15 242 32 c 4
 241 59 246 79 254 98 c 4
 263 120 277 140 294 163 c 6
 299 169 l 5
 304 177 l 5
 310 172 l 5
 318 167 l 5
486 652 m 1
 493 671 l 1
 512 664 l 2
 600 632 737 605 739 482 c 0
 741 376 539 350 532 340 c 1
 540 324 738 278 738 168 c 0
 738 56 593 29 515 7 c 2
 495 1 l 1
 489 21 l 1
 483 41 l 1
 503 47 l 1
 595 74 697 100 697 168 c 0
 697 248 489 254 489 340 c 0
 489 431 700 407 698 481 c 0
 696 566 599 589 498 624 c 2
 479 632 l 1
 486 652 l 1
346 654 m 1
 356 636 l 1
 337 627 l 2
 209 561 105 484 107 348 c 0
 109 200 206 115 348 50 c 2
 366 41 l 1
 357 22 l 1
 348 3 l 1
 330 12 l 2
 183 80 67 179 65 348 c 0
 63 510 190 597 318 663 c 2
 337 673 l 1
 346 654 l 1
EndSplineSet
Validated: 37
Ligature2: "ltligs1" Z R
EndChar

StartChar: lt_ZS
Encoding: 281 -1 50
Width: 833
VWidth: 0
Flags: W
HStem: 270 42<119 412.462> 283 42<412.462 667> 338 42<670.66 709.021> 668 20G<393 414.875>
VStem: 393 42<15 592> 400 42<-7 592> 477 33<232.762 354.054>
LayerCount: 2
Fore
SplineSet
552 420 m 5x32
 558 415 l 5
 565 410 l 5
 560 403 l 5
 556 397 l 6
 539 375 527 358 519 340 c 4
 512 324 509 308 510 286 c 4
 510 276 512 267 514 259 c 4
 522 232 539 214 563 182 c 6
 568 174 l 5
 573 168 l 5
 567 162 l 5
 560 158 l 5
 553 152 l 5
 547 148 l 5
 542 154 l 5
 537 161 l 6
 516 189 496 211 485 241 c 4
 480 254 478 268 477 285 c 4
 476 312 481 333 489 352 c 4
 498 374 511 393 528 416 c 6
 533 423 l 5
 538 430 l 5
 545 425 l 5
 552 420 l 5x32
671 310 m 0
 673 291 683 282 690 283 c 0x72
 702 284 713 295 711 310 c 0
 709 328 696 340 681 338 c 0
 676 338 669 330 671 310 c 0
629 303 m 0
 626 330 635 378 678 380 c 0
 718 383 748 351 752 316 c 0
 757 281 732 244 693 242 c 0
 653 240 633 275 629 303 c 0
119 291 m 1
 118 312 l 1
 140 312 l 1
 139 312 140 311 140 312 c 1xb2
 646 325 l 1
 667 326 l 1
 668 305 l 1
 668 284 l 1
 648 283 l 1x72
 140 271 l 1
 140 272 139 271 140 271 c 1
 119 270 l 1xb2
 119 291 l 1
421 -7 m 1
 400 -7 l 1
 400 14 l 1x36
 393 640 l 1
 393 688 l 1
 428 656 l 1
 640 464 l 1
 656 450 l 1
 641 434 l 1
 627 418 l 1
 612 432 l 1
 435 592 l 1x3a
 442 15 l 1
 442 -7 l 1x36
 421 -7 l 1
EndSplineSet
Validated: 37
Ligature2: "ltligs1" Z S
EndChar

StartChar: lt_ZT
Encoding: 282 -1 51
Width: 833
VWidth: 0
Flags: W
HStem: 533 46<238 402 404 440 443 584> 633 43<394 443> 675 20G<558 570>
VStem: 392 42<-8 436.667> 401 41<194 579> 502 33<497.425 619.029>
LayerCount: 2
Fore
SplineSet
577 685 m 5xa4
 583 680 l 5
 590 675 l 5
 585 668 l 5
 581 662 l 6
 564 640 552 623 544 605 c 4
 537 589 534 574 535 552 c 4
 535 542 537 532 539 524 c 4
 547 497 564 479 588 447 c 6
 593 440 l 5
 598 432 l 5
 592 428 l 5
 585 423 l 5
 578 418 l 5
 572 413 l 5
 567 419 l 5
 562 427 l 6
 541 455 521 477 510 507 c 4
 505 520 503 533 502 550 c 4
 501 577 506 599 514 618 c 4
 523 640 536 659 553 682 c 6
 558 688 l 5
 563 695 l 5
 570 690 l 5
 577 685 l 5xa4
413 -8 m 1
 392 -8 l 1
 392 12 l 1x94
 401 558 l 1
 402 579 l 1
 422 579 l 1
 443 579 l 1
 442 558 l 1x8c
 434 12 l 1
 434 -8 l 1x94
 413 -8 l 1
189 485 m 1
 170 494 l 1
 180 513 l 1
 207 564 l 1
 212 575 l 1
 225 575 l 1
 593 578 l 1
 604 578 l 1
 611 570 l 1
 649 519 l 1
 662 502 l 1
 645 490 l 1
 628 478 l 1
 616 494 l 1
 584 537 l 1
 238 533 l 1
 217 493 l 1
 207 475 l 1
 189 485 l 1
420 595 m 1
 443 633 l 1
 394 633 l 1xc4
 420 595 l 1
404 545 m 1
 338 642 l 1
 316 673 l 1
 355 674 l 1
 480 676 l 1
 517 677 l 1
 498 644 l 1
 440 546 l 1
 423 518 l 1
 404 545 l 1
EndSplineSet
Validated: 37
Ligature2: "ltligs1" Z T
EndChar

StartChar: lt_ZU
Encoding: 283 -1 52
Width: 833
VWidth: 0
Flags: W
HStem: 302 42<443.158 688.435> 596 42<221.688 619.521> 628 41<125 141>
LayerCount: 2
Fore
SplineSet
666 438 m 5x80
 672 432 l 5
 679 428 l 5
 674 421 l 5
 669 414 l 6
 652 392 641 376 633 358 c 4
 626 342 623 325 624 303 c 4
 624 293 626 285 628 277 c 4
 636 250 654 230 678 198 c 6
 682 192 l 5
 688 185 l 5
 682 181 l 5
 674 176 l 5
 668 170 l 5
 661 165 l 5
 657 172 l 5
 651 178 l 6
 630 206 610 229 599 259 c 4
 594 272 592 285 591 302 c 4
 590 329 594 350 602 369 c 4
 611 391 625 411 642 434 c 6
 648 440 l 5
 652 448 l 5
 659 442 l 5
 666 438 l 5x80
123 648 m 1
 125 669 l 1xa0
 146 668 l 2
 258 656 317 640 427 638 c 0
 522 636 576 651 675 659 c 2
 727 663 l 1
 692 624 l 2
 592 511 503 468 441 357 c 1
 487 350 535 346 592 344 c 0
 646 342 672 359 733 383 c 2
 752 391 l 1
 760 372 l 1
 768 352 l 1
 748 345 l 2
 692 323 657 300 591 302 c 0
 527 304 473 311 422 318 c 1
 379 217 418 156 427 33 c 2
 432 -37 l 1
 381 16 l 1
 112 375 l 1
 82 415 l 1
 132 408 l 2
 238 393 316 376 398 363 c 1
 458 479 539 529 623 612 c 1
 559 604 506 594 427 596 c 0xc0
 313 598 250 614 141 626 c 2
 120 628 l 1xa0
 123 648 l 1
379 324 m 1
 314 334 253 348 176 360 c 1
 383 78 l 1
 371 151 347 239 379 324 c 1
EndSplineSet
Validated: 37
Ligature2: "ltligs1" Z U
EndChar

StartChar: lt_ZV
Encoding: 284 -1 53
Width: 833
VWidth: 0
Flags: W
HStem: 169 33<456.276 533.833> 658 20G<539 564.154>
VStem: 231 41<254.638 449.012> 364 42<256.824 423.815>
LayerCount: 2
Fore
SplineSet
535 188 m 5
 535 179 l 5
 536 171 l 5
 528 170 l 5
 519 169 l 6
 491 167 470 166 452 160 c 4
 435 155 423 147 406 132 c 4
 398 125 393 119 388 112 c 4
 373 90 369 64 360 24 c 6
 358 16 l 5
 357 8 l 5
 348 10 l 5
 340 12 l 5
 332 13 l 5
 323 15 l 5
 326 23 l 5
 328 32 l 6
 336 66 339 95 355 123 c 4
 362 135 371 147 383 158 c 4
 402 176 422 185 442 192 c 4
 465 199 489 200 517 202 c 6
 525 203 l 5
 533 204 l 5
 534 196 l 5
 535 188 l 5
569 652 m 1
 561 642 l 2
 483 542 404 407 406 353 c 0
 408 293 454 134 572 24 c 2
 578 18 l 1
 562 -14 l 1
 552 -11 l 2
 345 47 238 186 231 352 c 0
 224 511 361 619 539 675 c 2
 548 678 l 1
 569 652 l 1
487 612 m 1
 350 554 267 466 272 354 c 0
 277 227 346 121 485 58 c 1
 400 168 366 291 364 352 c 0
 362 419 423 522 487 612 c 1
EndSplineSet
Validated: 37
Ligature2: "ltligs1" Z V
EndChar

StartChar: lt_ZW
Encoding: 285 -1 54
Width: 833
VWidth: 0
Flags: W
HStem: 110 42<141 703> 502 42<142 705> 665 20G<398.276 422.857>
VStem: 490 41<195.319 430.913>
LayerCount: 2
Fore
SplineSet
643 615 m 5
 660 603 l 5
 648 587 l 6
 570 479 527 419 531 298 c 4
 535 181 590 128 668 23 c 6
 681 7 l 5
 664 -7 l 5
 648 -18 l 5
 635 -2 l 6
 558 100 494 164 490 296 c 4
 486 430 536 504 614 611 c 6
 627 628 l 5
 643 615 l 5
452 -2 m 1
 435 -31 l 1
 418 -2 l 1
 87 512 l 1
 66 544 l 1
 104 544 l 1
 742 545 l 1
 778 545 l 1
 760 513 l 1
 452 -2 l 1
434 48 m 1
 705 503 l 1
 142 502 l 1
 434 48 l 1
393 656 m 1
 410 685 l 1
 428 657 l 1
 759 142 l 1
 780 110 l 1
 742 110 l 1
 104 109 l 1
 68 109 l 1
 86 141 l 1
 393 656 l 1
412 606 m 1
 141 151 l 1
 703 152 l 1
 412 606 l 1
EndSplineSet
Validated: 37
Ligature2: "ltligs1" Z W
EndChar

StartChar: lt_ZX
Encoding: 286 -1 55
Width: 833
VWidth: 0
Flags: W
HStem: 98 40<266.938 324.214> 623 20G<698 718>
VStem: 125 42<542.333 594.781> 266 42<98 306.978> 323 34<362 441.075> 677 41<163.889 642> 685 42<12 491.111>
LayerCount: 2
Fore
SplineSet
398 506 m 5xf8
 405 501 l 5
 412 496 l 5
 407 489 l 5
 402 482 l 6
 385 460 374 444 366 426 c 4
 359 410 356 394 357 372 c 4
 357 362 358 352 360 344 c 4
 368 317 386 299 410 267 c 6
 415 260 l 5
 420 253 l 5
 413 248 l 5
 407 243 l 5
 400 238 l 5
 393 233 l 5
 388 240 l 5
 383 247 l 6
 362 275 343 297 332 327 c 4
 327 340 324 354 323 371 c 4
 322 398 327 419 335 438 c 4
 344 460 358 479 375 502 c 6
 380 509 l 5
 385 515 l 5
 392 510 l 5
 398 506 l 5xf8
698 642 m 1
 718 643 l 1
 718 622 l 1xfc
 727 33 l 1
 727 12 l 1
 707 12 l 1
 685 12 l 1
 685 33 l 1xfa
 677 622 l 1
 677 642 l 1xfc
 698 642 l 1
287 98 m 1
 266 98 l 1
 267 118 l 2
 269 180 241 235 275 307 c 0
 332 429 469 413 448 498 c 0
 426 585 327 578 212 599 c 0
 209 600 204 600 199 599 c 0
 177 595 165 578 167 564 c 2
 170 543 l 1
 149 540 l 1
 129 536 l 1
 125 557 l 2
 117 602 156 633 192 640 c 0
 201 642 209 642 219 640 c 0
 317 622 457 631 488 508 c 0
 517 390 345 358 313 290 c 0
 287 235 310 196 308 118 c 2
 308 97 l 1
 287 98 l 1
287 68 m 0
 289 49 300 41 307 42 c 0
 319 43 329 53 327 68 c 0
 325 86 313 99 298 97 c 0
 293 97 285 88 287 68 c 0
245 62 m 0
 242 89 250 136 293 138 c 0
 333 141 364 109 368 74 c 0
 373 39 348 2 309 0 c 0
 269 -2 249 34 245 62 c 0
EndSplineSet
Validated: 37
Ligature2: "ltligs1" Z X
EndChar

StartChar: lt_ZY
Encoding: 287 -1 56
Width: 833
VWidth: 0
Flags: W
HStem: -2 41<337.357 513.92> 528 41<361.967 490.296> 652 20G<409 436>
VStem: 160 42<184.237 375.094> 520 42<203.654 435.32> 664 42<189.772 380.905>
LayerCount: 2
Fore
SplineSet
674 621 m 5
 691 608 l 5
 678 592 l 6
 600 484 558 423 562 302 c 4
 566 185 621 133 699 28 c 6
 712 11 l 5
 695 -2 l 5
 678 -14 l 5
 666 2 l 6
 589 104 524 169 520 301 c 4
 516 435 567 509 645 616 c 6
 657 632 l 5
 674 621 l 5
260 478 m 1
 247 493 l 1
 262 508 l 1
 409 660 l 1
 422 672 l 1
 436 661 l 1
 593 511 l 1
 610 498 l 1
 598 482 l 1
 584 466 l 1
 568 478 l 1
 424 618 l 1
 290 478 l 1
 275 463 l 1
 260 478 l 1
423 528 m 0
 302 530 205 410 202 282 c 0
 200 160 298 41 416 39 c 0
 552 37 660 143 664 280 c 0
 668 415 559 526 423 528 c 0
423 569 m 0
 581 567 710 438 706 278 c 0
 702 120 574 -4 415 -2 c 0
 269 0 157 140 160 282 c 0
 163 426 272 571 423 569 c 0
EndSplineSet
Validated: 37
Ligature2: "ltligs1" Z Y
EndChar

StartChar: ltd09
Encoding: 288 -1 57
Width: 833
VWidth: 0
Flags: W
HStem: 628 42<402.175 439.021>
VStem: 359 123
LayerCount: 2
Fore
SplineSet
401 600 m 4
 403 581 413 572 420 573 c 4
 432 574 443 586 441 601 c 4
 439 619 426 630 411 628 c 4
 406 628 399 620 401 600 c 4
359 593 m 4
 356 620 365 668 408 670 c 4
 448 673 478 642 482 607 c 4
 487 572 462 534 423 532 c 4
 383 530 363 565 359 593 c 4
EndSplineSet
Validated: 33
EndChar

StartChar: lt_WA
Encoding: 289 -1 58
Width: 833
VWidth: 0
Flags: W
HStem: -62 42<242.727 311.687 528.373 614.219> 67 84<398 467> 109 42<158 424 429 684> 466 86<375 444> 466 42<158 412 418 685> 643 42<231.493 310.818 531.384 594.327>
LayerCount: 2
Fore
SplineSet
402 524 m 1xa4
 418 545 l 1
 433 525 l 1
 743 143 l 1
 772 109 l 1
 728 109 l 1
 114 110 l 1
 71 110 l 1
 98 143 l 1
 402 524 l 1xa4
418 478 m 1
 158 152 l 1
 684 151 l 1
 418 478 l 1
140 523 m 1
 122 533 l 1
 132 552 l 2
 164 607 197 687 285 685 c 0
 387 683 375 553 414 552 c 0
 444 551 473 684 551 681 c 0
 630 677 667 607 708 552 c 2x94
 720 535 l 1
 703 523 l 1
 687 511 l 1
 674 528 l 2
 628 590 601 637 549 639 c 0
 524 641 494 509 412 511 c 0
 316 513 336 641 284 643 c 0
 228 645 207 595 168 530 c 2
 158 512 l 1
 140 523 l 1
441 92 m 1
 425 72 l 1
 408 92 l 1
 98 473 l 1
 71 508 l 1
 115 508 l 1x8c
 728 507 l 1
 772 507 l 1
 744 473 l 1
 441 92 l 1
424 138 m 1
 685 465 l 1
 158 466 l 1
 424 138 l 1
702 96 m 1
 720 85 l 1
 709 68 l 2
 677 13 646 -68 558 -66 c 0
 456 -64 467 66 428 67 c 0
 398 68 369 -65 291 -62 c 0
 212 -58 176 12 135 67 c 2xc4
 122 83 l 1
 139 96 l 1
 156 108 l 1
 168 92 l 2
 214 30 241 -18 293 -20 c 0
 318 -22 347 110 429 108 c 0
 525 106 506 -22 558 -24 c 0
 614 -26 634 24 673 89 c 2
 684 107 l 1
 702 96 l 1
EndSplineSet
Validated: 37
Ligature2: "ltligs1" W A
EndChar

StartChar: lt_WB
Encoding: 290 -1 59
Width: 833
VWidth: 0
Flags: W
HStem: -10 42<246.25 492.232>
VStem: 108 41<151.351 484.462> 316 42<372.997 439> 690 42<167.658 513.844>
LayerCount: 2
Fore
SplineSet
337 439 m 1
 358 439 l 1
 358 400 374 364 396 363 c 0
 418 362 426 459 458 464 c 0
 490 468 482 435 482 435 c 1
 461 380 457 346 436 314 c 1
 496 301 514 250 511 188 c 1
 490 189 l 1
 469 190 l 1
 472 247 458 266 426 273 c 2
 424 273 395 216 367 193 c 0
 361 189 334 193 332 215 c 0
 328 247 372 284 379 298 c 0
 383 306 387 314 392 322 c 1
 330 328 316 401 316 439 c 1
 337 439 l 1
209 535 m 2
 192 547 l 1
 207 532 l 1
 134 456 148 424 149 331 c 0
 150 239 139 160 213 85 c 0
 228 70 262 30 287 32 c 0
 439 39 534 21 634 123 c 0
 707 199 691 231 690 324 c 0
 689 417 705 499 628 568 c 0
 575 616 487 619 410 612 c 0
 337 605 279 590 261 580 c 0
 226 560 210 536 209 535 c 2
203 539 m 2
 199 541 194 546 188 550 c 2
 192 547 l 1
 203 539 l 2
175 560 m 0
 181 568 200 594 240 616 c 0
 270 633 330 646 407 653 c 0
 485 660 588 661 656 599 c 0
 750 514 731 409 732 324 c 0
 733 239 747 179 663 93 c 0
 548 -25 432 -3 289 -10 c 0
 233 -12 191 50 184 57 c 0
 96 146 109 245 108 330 c 0
 107 415 92 473 175 560 c 0
EndSplineSet
Validated: 37
Ligature2: "ltligs1" W B
EndChar

StartChar: lt_WC
Encoding: 291 -1 60
Width: 837
VWidth: 0
Flags: W
HStem: -15 42<392.291 430.819> 103 42<149 689> 510 42<149 403 429 689> 628 42<407.181 445.752>
LayerCount: 2
Fore
SplineSet
407 600 m 0
 409 581 420 572 427 573 c 0
 439 574 449 586 447 601 c 0
 445 619 432 630 417 628 c 0
 412 628 405 620 407 600 c 0
365 593 m 0
 362 620 370 668 413 670 c 0
 453 673 484 642 488 607 c 0
 493 572 468 534 429 532 c 0
 389 530 369 565 365 593 c 0
403 533 m 1
 421 562 l 1
 438 533 l 1
 744 135 l 1
 765 102 l 1
 727 102 l 1
 112 103 l 1
 73 103 l 1
 93 135 l 1
 403 533 l 1
421 483 m 1
 149 145 l 1
 689 144 l 1
 421 483 l 1
432 56 m 0
 430 75 419 83 412 82 c 0
 400 81 389 69 391 54 c 0
 393 36 407 25 422 27 c 0
 427 27 434 36 432 56 c 0
473 61 m 0
 476 34 468 -13 425 -15 c 0
 385 -18 354 13 350 48 c 0
 345 83 370 121 409 123 c 0
 449 125 469 89 473 61 c 0
435 122 m 1
 418 93 l 1
 400 122 l 1
 93 521 l 1
 73 552 l 1
 112 552 l 1
 727 552 l 1
 765 552 l 1
 743 519 l 1
 435 122 l 1
418 172 m 1
 689 510 l 1
 149 510 l 1
 418 172 l 1
EndSplineSet
Validated: 37
Ligature2: "ltligs1" W C
EndChar

StartChar: lt_WD
Encoding: 292 -1 61
Width: 833
VWidth: 0
Flags: W
HStem: 642 20G<104 133 208 237 602 631 705 734>
LayerCount: 2
Fore
SplineSet
631 648 m 1
 647 635 l 1
 633 619 l 1
 133 3 l 1
 121 -12 l 1
 104 1 l 1
 88 14 l 1
 102 30 l 1
 602 646 l 1
 615 662 l 1
 631 648 l 1
104 648 m 1
 121 662 l 1
 133 646 l 1
 633 30 l 1
 647 14 l 1
 631 1 l 1
 615 -12 l 1
 602 3 l 1
 102 619 l 1
 88 635 l 1
 104 648 l 1
734 648 m 1
 750 635 l 1
 737 619 l 1
 237 3 l 1
 223 -12 l 1
 208 1 l 1
 192 14 l 1
 205 30 l 1
 705 646 l 1
 718 662 l 1
 734 648 l 1
208 648 m 1
 223 662 l 1
 237 646 l 1
 737 30 l 1
 750 14 l 1
 734 1 l 1
 718 -12 l 1
 705 3 l 1
 205 619 l 1
 192 635 l 1
 208 648 l 1
EndSplineSet
Validated: 5
Ligature2: "ltligs1" W D
EndChar

StartChar: lt_WE
Encoding: 293 -1 62
Width: 833
VWidth: 0
Flags: W
HStem: -12 41<90 147 148 243> 607 41<566 698> 609 42<545 601 642 678>
VStem: 147 41<-7 193.375> 342 40<526.713 590.357> 402 40<44.25 98.0972> 601 41<442.125 643>
LayerCount: 2
Fore
SplineSet
484 160 m 1x9e
 486 155 l 1
 482 152 l 2
 481 148 481 145 479 142 c 0
 469 111 455 88 447 56 c 2
 442 35 l 1
 422 41 l 1
 402 46 l 1
 407 66 l 2
 414 89 421 107 428 124 c 1
 405 112 367 94 339 128 c 0
 298 180 363 230 393 249 c 0
 401 254 409 256 417 258 c 0
 444 261 480 248 485 212 c 0
 487 193 487 176 484 160 c 1x9e
445 182 m 0
 446 190 446 198 444 207 c 0
 443 210 435 219 422 217 c 0
 420 216 417 215 415 214 c 0
 377 190 363 165 372 154 c 0
 380 144 391 153 436 177 c 0
 438 179 443 180 445 182 c 0
156 343 m 1
 154 241 184 147 188 14 c 1
 187 14 188 13 188 14 c 1
 189 -7 l 1
 168 -8 l 1
 148 -8 l 1
 147 12 l 2
 143 147 108 243 115 365 c 0
 117 400 122 437 132 478 c 0
 156 570 224 669 332 651 c 0xbe
 345 649 358 645 373 641 c 0
 475 613 630 538 597 415 c 0
 551 246 294 330 156 343 c 1
158 385 m 1
 325 369 525 307 557 426 c 0
 578 504 470 572 362 601 c 0
 349 604 337 608 325 610 c 0
 252 623 196 554 173 468 c 0
 165 439 160 412 158 385 c 1
90 8 m 1
 90 29 l 1
 111 29 l 1
 223 28 l 1
 244 27 l 1
 244 7 l 1
 243 -15 l 1
 223 -14 l 1
 110 -12 l 1
 90 -12 l 1
 90 8 l 1
306 477 m 1
 302 482 l 1
 307 483 l 2
 308 487 308 491 310 494 c 0
 320 525 334 549 342 581 c 2
 348 601 l 1
 368 595 l 1
 388 590 l 1
 382 570 l 2
 375 547 368 529 361 512 c 1
 384 524 422 542 450 508 c 0
 491 456 426 406 396 387 c 0
 388 382 380 380 372 378 c 0
 345 375 308 388 303 424 c 0
 301 443 303 461 306 477 c 1
343 454 m 0
 342 446 342 439 344 430 c 0
 345 427 354 417 367 419 c 0
 369 420 371 421 373 422 c 0
 411 446 427 471 418 482 c 0
 410 492 397 483 352 459 c 0
 350 457 345 456 343 454 c 0
633 293 m 1
 635 395 605 489 601 622 c 1
 602 622 601 623 601 622 c 1
 600 643 l 1
 621 643 l 1
 642 644 l 1
 642 623 l 2
 646 488 681 393 674 271 c 0
 672 236 667 199 657 158 c 0
 633 66 565 -33 457 -15 c 0
 444 -13 430 -9 415 -5 c 0
 313 23 159 99 192 222 c 0
 238 391 495 306 633 293 c 1
632 252 m 1
 465 268 264 329 232 210 c 0
 211 132 319 64 427 35 c 0
 440 32 453 29 465 27 c 0
 538 14 593 82 616 168 c 0
 624 197 630 225 632 252 c 1
699 627 m 1
 698 607 l 1
 678 607 l 1xde
 565 608 l 1
 544 609 l 1
 545 630 l 1
 545 651 l 1xbe
 566 650 l 1
 678 648 l 1
 699 648 l 1xde
 699 627 l 1
EndSplineSet
Validated: 37
Ligature2: "ltligs1" W E
EndChar

StartChar: lt_WF
Encoding: 294 -1 63
Width: 833
VWidth: 0
Flags: W
HStem: 18 21G<112 142> 632 20G<399 430 635 657>
VStem: 395 42<15 22 35 622> 635 42<492.919 651> 732 39<482.113 545.538>
LayerCount: 2
Fore
SplineSet
435 -24 m 1
 419 -41 l 1
 404 -23 l 1
 243 162 l 1
 260 176 l 1
 276 190 l 1
 421 22 l 1
 584 193 l 1
 599 178 l 1
 615 165 l 1
 435 -24 l 1
758 552 m 1
 777 545 l 1
 771 525 l 2
 738 424 720 366 636 290 c 0
 543 207 428 292 356 244 c 0
 255 178 221 129 142 33 c 2
 128 18 l 1
 112 31 l 1
 97 43 l 1
 110 60 l 2
 188 153 226 210 332 279 c 0
 440 350 541 261 608 321 c 0
 685 390 699 436 732 538 c 2
 738 558 l 1
 758 552 l 1
657 651 m 1
 677 651 l 1
 677 630 l 2
 675 528 666 459 580 382 c 0
 487 299 370 386 298 338 c 0
 197 272 164 223 85 127 c 2
 72 110 l 1
 57 123 l 1
 40 138 l 1
 52 153 l 2
 130 246 171 303 277 372 c 0
 385 443 485 354 552 414 c 0
 628 482 633 530 635 631 c 2
 635 652 l 1
 657 651 l 1
399 638 m 1
 415 654 l 1
 430 637 l 1
 590 452 l 1
 574 438 l 1
 558 423 l 1
 413 592 l 1
 250 421 l 1
 235 435 l 1
 219 449 l 1
 399 638 l 1
412 622 m 1
 433 622 l 1
 433 616 l 1
 437 35 l 1
 437 15 l 1
 416 14 l 1
 395 14 l 1
 395 35 l 1
 392 616 l 1
 392 622 l 1
 412 622 l 1
EndSplineSet
Validated: 37
Ligature2: "ltligs1" W F
EndChar

StartChar: lt_WG
Encoding: 295 -1 64
Width: 833
VWidth: 0
Flags: W
HStem: 312 50<358.9 431.107>
VStem: 148 42<82 98.9098> 600 42<538.949 593>
LayerCount: 2
Fore
SplineSet
367 418 m 0
 369 421 369 424 371 426 c 0
 389 458 403 496 410 562 c 0
 412 573 409 582 405 590 c 0
 382 633 274 648 207 615 c 1
 213 599 l 2
 241 528 260 454 290 405 c 1
 310 407 330 410 352 415 c 0
 357 416 362 416 367 418 c 0
424 256 m 0
 422 253 421 250 419 248 c 0
 401 216 388 178 381 112 c 0
 379 101 382 91 386 83 c 0
 409 40 516 26 583 59 c 1
 578 74 l 2
 550 145 531 220 501 269 c 1
 481 267 460 263 438 258 c 0
 433 257 429 258 424 256 c 0
546 272 m 1
 578 214 596 142 616 90 c 2
 618 83 l 1
 636 98 651 117 662 136 c 0
 693 188 690 228 665 243 c 0
 630 264 590 273 546 272 c 1
248 207 m 1
 215 157 198 99 190 82 c 2
 190 82 174 73 162 73 c 0
 155 73 148 77 148 85 c 0
 148 100 150 97 152 99 c 0
 154 101 155 106 157 110 c 0
 170 142 185 169 198 193 c 1
 180 188 159 183 140 179 c 2
 122 176 l 1
 119 175 l 1
 118 177 l 1
 115 195 l 1
 110 214 l 1
 110 215 l 1
 112 216 l 1
 131 220 l 2
 163 227 195 235 227 244 c 1
 234 255 241 266 248 276 c 0
 266 299 283 318 298 336 c 1
 288 343 280 351 272 361 c 1
 212 357 155 363 104 393 c 0
 46 428 60 504 92 559 c 0
 114 595 145 629 184 650 c 0
 261 691 400 688 442 610 c 0
 450 595 454 576 452 558 c 0
 447 505 437 464 422 432 c 1
 462 442 501 456 543 468 c 1
 576 518 592 575 600 592 c 2
 600 593 l 1
 602 593 l 2
 602 593 616 600 628 600 c 0
 635 600 642 598 642 590 c 0
 642 575 640 577 638 575 c 0
 636 573 635 569 633 565 c 0
 620 533 606 505 593 481 c 1
 611 486 632 490 651 494 c 2
 669 498 l 1
 672 499 l 1
 672 498 l 1
 676 478 l 1
 680 460 l 1
 681 458 l 1
 678 458 l 1
 660 454 l 2
 628 447 595 438 563 429 c 1
 556 418 549 408 542 398 c 0
 524 375 507 356 492 338 c 1
 502 331 510 323 518 313 c 1
 578 317 635 310 686 280 c 0
 744 245 730 170 698 115 c 0
 676 79 646 44 607 23 c 0
 530 -18 391 -14 349 64 c 0
 341 79 338 97 340 115 c 0
 345 168 354 210 369 242 c 1
 329 232 290 219 248 207 c 1
469 307 m 1
 468 308 468 308 467 309 c 0
 466 307 465 308 464 307 c 1
 466 307 467 307 469 307 c 1
496 410 m 1
 464 401 433 392 402 384 c 0
 399 383 386 379 384 377 c 0
 380 371 360 360 358 357 c 2
 397 361 l 0
 408 363 418 363 428 362 c 1
 450 373 474 389 496 410 c 1
323 365 m 0
 324 367 326 367 327 368 c 1
 325 368 323 368 321 368 c 1
 322 367 322 366 323 365 c 0
172 591 m 1
 154 576 139 557 128 538 c 0
 97 486 100 445 125 430 c 0
 160 409 200 401 244 402 c 1
 212 460 194 533 174 585 c 2
 172 591 l 1
362 312 m 1
 340 301 317 285 295 264 c 1
 327 273 357 282 388 290 c 0
 391 291 405 296 407 298 c 0
 411 304 430 315 432 318 c 2
 393 313 l 0
 382 311 372 311 362 312 c 1
EndSplineSet
Validated: 33
Ligature2: "ltligs1" W G
EndChar

StartChar: lt_WH
Encoding: 296 -1 65
Width: 833
VWidth: 0
Flags: W
HStem: 630 20G<632 659>
LayerCount: 2
Fore
SplineSet
659 632 m 1
 668 613 l 1
 650 603 l 2
 527 541 416 487 433 419 c 0
 446 364 671 414 681 299 c 0
 693 164 564 106 457 35 c 2
 440 24 l 1
 428 42 l 1
 417 59 l 1
 434 70 l 2
 551 148 648 195 639 296 c 0
 632 365 422 283 392 410 c 0
 365 525 525 587 632 641 c 2
 650 650 l 1
 659 632 l 1
409 597 m 1
 418 578 l 1
 400 568 l 2
 277 506 166 452 183 384 c 0
 196 329 421 379 431 264 c 0
 443 129 314 72 207 1 c 1
 208 1 208 2 207 1 c 1
 190 -11 l 1
 178 7 l 1
 167 23 l 1
 184 35 l 2
 301 113 398 159 389 260 c 0
 382 329 173 247 143 374 c 0
 116 489 275 552 382 606 c 2
 400 615 l 1
 409 597 l 1
95 626 m 1
 114 635 l 1
 123 617 l 2
 185 494 240 383 308 400 c 0
 363 413 313 638 428 648 c 0
 563 660 621 530 692 423 c 2
 702 407 l 1
 685 394 l 1
 668 383 l 1
 657 401 l 2
 579 518 533 615 432 606 c 0
 363 599 445 389 318 359 c 0
 203 332 140 491 86 598 c 2
 77 617 l 1
 95 626 l 1
131 376 m 1
 149 385 l 1
 158 367 l 2
 220 244 275 133 343 150 c 0
 398 163 348 388 463 398 c 0
 598 410 656 280 727 173 c 1
 727 174 726 174 727 173 c 1
 738 157 l 1
 721 144 l 1
 703 133 l 1
 692 151 l 2
 614 268 568 365 467 356 c 0
 398 349 479 140 352 110 c 0
 237 83 176 241 122 348 c 2
 112 367 l 1
 131 376 l 1
EndSplineSet
Validated: 37
Ligature2: "ltligs1" W H
EndChar

StartChar: lt_WI
Encoding: 297 -1 66
Width: 833
VWidth: 0
Flags: W
VStem: 708 42<386.955 519.787>
LayerCount: 2
Fore
SplineSet
84 153 m 1
 70 190 70 230 102 265 c 0
 242 417 404 473 605 414 c 0
 661 397 701 369 725 333 c 0
 780 251 746 146 664 67 c 1
 649 52 651 57 638 47 c 1
 542 -31 474 -15 402 57 c 0
 373 86 350 124 340 167 c 0
 304 319 358 544 490 636 c 0
 528 663 569 663 607 648 c 1
 652 630 752 525 750 465 c 1
 748 408 725 356 686 317 c 0
 657 288 620 267 577 257 c 0
 425 221 199 273 107 405 c 0
 95 423 87 442 85 460 c 1
 78 528 200 643 232 657 c 1
 271 674 312 674 349 640 c 0
 501 500 557 339 498 138 c 0
 481 82 454 42 418 18 c 0
 376 -10 328 -15 280 -2 c 1
 218 16 97 118 84 153 c 1
291 39 m 1
 329 29 366 33 395 52 c 0
 422 70 443 102 458 150 c 0
 513 336 464 478 321 610 c 0
 299 630 271 630 241 615 c 1
 219 605 119 505 129 457 c 1
 131 447 134 437 141 429 c 0
 219 317 429 265 567 297 c 0
 603 305 634 324 657 347 c 0
 689 379 708 421 708 468 c 1
 708 516 624 598 589 610 c 1
 562 619 536 617 514 602 c 0
 402 524 350 315 382 177 c 0
 390 141 409 109 432 86 c 0
 489 29 531 19 609 82 c 1
 621 92 622 85 635 97 c 1
 708 167 728 253 690 310 c 0
 672 337 641 358 593 373 c 0
 407 428 265 379 133 236 c 0
 118 220 115 202 119 181 c 1
 126 153 240 52 291 39 c 1
EndSplineSet
Validated: 37
Ligature2: "ltligs1" W I
EndChar

StartChar: lt_WK
Encoding: 298 -1 67
Width: 833
VWidth: 0
Flags: W
HStem: 22 43<509 691> 595 41<124 307> 642 6G<341 366.032 684.2 759.906>
VStem: 142 36<212.389 232.75>
LayerCount: 2
Fore
SplineSet
566 263 m 1
 582 293 l 1
 602 265 l 1
 748 60 l 1
 771 28 l 1
 732 28 l 1
 474 22 l 1
 440 22 l 1
 456 52 l 1
 566 263 l 1
587 214 m 1
 509 65 l 1
 691 68 l 1
 587 214 l 1
469 362 m 1
 202 100 l 1
 307 126 l 1
 317 85 l 1
 291 78 l 1
 88 27 l 1
 142 240 l 1
 162 236 l 1
 182 232 l 1
 178 211 l 1
 157 112 l 1
 443 394 l 1
 651 597 l 1
 548 570 l 1
 537 610 l 1
 563 618 l 1
 765 668 l 1
 711 456 l 1
 691 460 l 1
 671 465 l 1
 675 485 l 1
 698 583 l 1
 469 362 l 1
250 401 m 1
 234 371 l 1
 215 398 l 1
 68 603 l 1
 44 635 l 1
 84 636 l 1
 341 642 l 1
 377 642 l 1
 360 611 l 1
 250 401 l 1
228 450 m 1
 307 599 l 1
 124 595 l 1
 228 450 l 1
EndSplineSet
Validated: 1
Ligature2: "ltligs1" W K
EndChar

StartChar: lt_WL
Encoding: 299 -1 68
Width: 833
VWidth: 0
Flags: W
HStem: -4 42<405.593 646.011> 628 41<180.722 416.123>
VStem: 305 42<123.917 322 368 596> 478 42<69 298 343 541.09>
LayerCount: 2
Fore
SplineSet
347 331 m 1
 346 261 348 191 360 113 c 0
 370 51 449 40 545 38 c 0
 625 36 644 53 712 107 c 2
 729 119 l 1
 742 102 l 1
 755 87 l 1
 739 73 l 2
 671 19 634 -6 544 -4 c 0
 458 -2 334 3 318 107 c 0
 306 184 304 254 305 322 c 1
 59 452 l 1
 28 469 l 1
 58 488 l 1
 318 650 l 1
 349 669 l 1
 351 633 l 2
 354 523 350 433 348 346 c 1
 347 341 l 1
 347 331 l 1
306 368 m 1
 308 440 312 511 310 596 c 1
 111 472 l 1
 306 368 l 1
478 335 m 1
 479 405 477 474 465 552 c 0
 455 614 376 626 280 628 c 0
 200 630 180 613 112 559 c 2
 96 546 l 1
 83 562 l 1
 70 578 l 1
 86 591 l 2
 154 645 191 671 281 669 c 0
 367 667 491 662 507 558 c 0
 519 481 521 411 520 343 c 1
 766 212 l 1
 798 196 l 1
 767 177 l 1
 507 15 l 1
 476 -4 l 1
 474 32 l 2
 471 142 476 231 478 318 c 1
 478 324 l 1
 478 335 l 1
519 298 m 1
 517 226 513 154 515 69 c 1
 714 193 l 1
 519 298 l 1
EndSplineSet
Validated: 37
Ligature2: "ltligs1" W L
EndChar

StartChar: lt_WM
Encoding: 300 -1 69
Width: 833
VWidth: 0
Flags: W
HStem: 8 42<198 636> 178 41<427.371 649> 418 42<166 352.244> 618 41<199 638>
VStem: 158 41<50 419 461 618> 165 34<419 460> 636 42<53 177 218 621> 636 15<177 218>
LayerCount: 2
Fore
SplineSet
165 440 m 1xf5
 165 460 l 1
 185 461 l 2
 266 463 358 470 425 393 c 0
 430 387 433 380 435 372 c 0
 443 324 366 283 358 272 c 1
 441 210 496 227 632 219 c 2
 652 218 l 1
 651 198 l 1
 649 177 l 1
 628 178 l 2
 501 186 430 166 332 240 c 0
 324 247 317 255 315 266 c 0
 313 280 321 290 327 298 c 0
 350 328 390 354 393 365 c 0
 341 425 272 421 187 419 c 2
 166 418 l 1
 165 440 l 1xf5
158 638 m 1xfa
 158 648 l 1
 158 659 l 2
 178 659 l 1
 188 659 l 1
 658 662 l 1
 679 662 l 1
 679 642 l 1
 678 32 l 1
 679 32 678 31 678 32 c 1
 678 23 l 1
 678 12 l 2
 657 12 l 1
 648 12 l 1
 177 8 l 1
 156 8 l 1
 156 29 l 1
 158 638 l 1xfa
158 638 m 1
 157 638 158 639 158 638 c 1
199 618 m 1
 198 50 l 1
 636 53 l 1
 638 621 l 1
 199 618 l 1
EndSplineSet
Validated: 37
Ligature2: "ltligs1" W M
EndChar

StartChar: lt_WN
Encoding: 301 -1 70
Width: 835
VWidth: 0
Flags: W
HStem: 18 43<257 593 624 707> 607 43<117 198 229 567>
VStem: 48 43<234.091 573> 59 39<116 399.909> 724 40<230.1 552> 732 42<94 472.9>
LayerCount: 2
Fore
SplineSet
707 61 m 1xc0
 485 298 l 1
 257 57 l 1
 707 61 l 1xc0
724 552 m 1xc8
 513 329 l 1
 732 94 l 1xc4
 724 552 l 1xc8
485 358 m 1
 764 655 l 1xc8
 774 48 l 1
 776 18 l 1
 754 18 l 1
 734 18 l 1
 159 13 l 1
 457 328 l 1
 198 604 l 1
 229 632 l 1
 485 358 l 1
117 607 m 1
 338 369 l 1
 567 611 l 1
 117 607 l 1
98 116 m 1xd0
 310 339 l 1
 91 573 l 1xe0
 98 116 l 1xd0
338 310 m 1
 59 13 l 1xd0
 48 621 l 1
 48 649 l 1
 68 649 l 1
 89 650 l 1
 664 655 l 1
 367 340 l 1
 624 64 l 1
 593 35 l 1
 338 310 l 1
EndSplineSet
Validated: 5
Ligature2: "ltligs1" W N
EndChar

StartChar: lt_WO
Encoding: 302 -1 71
Width: 833
VWidth: 0
Flags: W
HStem: 358 40<392.175 429.021> 675 20G<157 184 409.915 426.333 646 673>
LayerCount: 2
Fore
SplineSet
391 328 m 4
 393 309 403 301 410 302 c 4
 422 303 434 315 432 330 c 4
 430 348 416 360 401 358 c 4
 396 358 389 348 391 328 c 4
349 323 m 4
 346 350 355 396 398 398 c 4
 438 401 468 370 472 335 c 4
 477 300 452 262 413 260 c 4
 373 258 353 295 349 323 c 4
157 -1 m 1
 138 7 l 1
 146 27 l 1
 399 648 l 1
 418 695 l 1
 438 647 l 1
 685 23 l 1
 692 3 l 1
 673 -4 l 1
 653 -12 l 1
 646 8 l 1
 418 583 l 1
 184 10 l 1
 177 -9 l 1
 157 -1 l 1
673 684 m 1
 692 677 l 1
 684 657 l 1
 431 36 l 1
 411 -12 l 1
 392 36 l 1
 146 660 l 1
 138 680 l 1
 157 688 l 1
 177 695 l 1
 184 676 l 1
 412 100 l 1
 646 673 l 1
 653 692 l 1
 673 684 l 1
EndSplineSet
Validated: 37
Ligature2: "ltligs1" W O
EndChar

StartChar: lt_WP
Encoding: 303 -1 72
Width: 833
VWidth: 0
Flags: W
HStem: 332 41<81 98>
VStem: 98 41<82.3125 191.855> 682 41<456.145 561.827>
LayerCount: 2
Fore
SplineSet
78 352 m 1
 81 373 l 1
 101 372 l 1
 708 329 l 1
 728 327 l 1
 727 307 l 1
 725 285 l 1
 704 288 l 1
 98 330 l 1
 77 332 l 1
 78 352 l 1
99 531 m 1
 85 546 l 1
 100 560 l 1
 99 559 101 560 100 560 c 1
 167 625 251 669 358 650 c 0
 388 644 420 633 450 616 c 0
 506 585 567 526 530 460 c 0
 482 375 396 359 323 307 c 0
 226 239 134 218 138 128 c 0
 138 126 139 124 139 122 c 0
 147 62 238 29 320 39 c 0
 404 49 458 113 510 190 c 2
 521 207 l 1
 538 196 l 1
 556 184 l 1
 543 167 l 2
 491 90 429 11 325 -2 c 0
 240 -12 110 15 98 117 c 0
 97 119 97 124 97 126 c 0
 90 251 218 285 298 341 c 0
 383 400 455 414 493 482 c 0
 510 513 486 548 430 579 c 0
 404 594 375 604 351 608 c 0
 262 625 190 589 128 530 c 2
 114 515 l 1
 99 531 l 1
720 117 m 1
 735 102 l 1
 719 88 l 1
 720 89 718 88 719 88 c 1
 652 23 569 -21 462 -2 c 0
 432 4 399 15 369 32 c 0
 313 63 253 121 290 187 c 0
 338 272 424 288 497 340 c 0
 594 408 686 429 682 519 c 0
 682 521 681 523 681 525 c 0
 673 585 581 618 499 608 c 0
 415 598 362 535 310 458 c 2
 298 440 l 1
 282 452 l 1
 264 463 l 1
 276 481 l 2
 328 558 390 637 494 650 c 0
 579 660 710 633 722 531 c 0
 723 529 723 524 723 522 c 0
 730 397 601 363 521 307 c 0
 436 248 364 235 326 167 c 0
 309 136 334 99 390 68 c 0
 416 53 444 43 468 39 c 0
 557 22 629 59 691 118 c 2
 706 132 l 1
 720 117 l 1
EndSplineSet
Validated: 37
Ligature2: "ltligs1" W P
EndChar

StartChar: lt_WQ
Encoding: 304 -1 73
Width: 833
VWidth: 0
Flags: W
HStem: 653 20G<560 581 663.048 685>
VStem: 142 42<-13 297 338 443> 161 29<298 338> 267 41<-13 351> 539 42<308 672> 658 29<321 360> 664 42<215 672> 685 14<319 360>
LayerCount: 2
Fore
SplineSet
475 235 m 1x99
 479 255 l 1
 499 250 l 1
 658 215 l 1x9c
 663 652 l 1
 664 673 l 1x9a
 685 672 l 1x99
 706 672 l 1x9a
 705 652 l 1
 705 651 706 652 705 652 c 1
 699 189 l 1
 698 163 l 1
 673 168 l 1
 490 210 l 1
 470 214 l 1
 475 235 l 1x99
288 -13 m 1
 267 -14 l 1
 267 7 l 1
 262 373 l 1
 262 396 l 1
 285 393 l 1
 668 362 l 1
 688 360 l 1
 687 340 l 1x9c
 685 319 l 1x99
 664 321 l 1x9a
 304 351 l 1
 308 8 l 1
 308 -13 l 1
 288 -13 l 1
373 424 m 1
 368 404 l 1
 348 409 l 1
 190 443 l 1xb8
 184 7 l 1
 184 -14 l 1
 163 -13 l 1
 142 -13 l 1
 142 8 l 1
 142 9 141 8 142 8 c 1xd8
 148 470 l 1
 148 496 l 1
 173 490 l 1
 357 449 l 1
 377 445 l 1
 373 424 l 1
560 672 m 1
 581 673 l 1
 581 652 l 1
 585 286 l 1
 585 263 l 1
 562 265 l 1
 180 297 l 1
 159 298 l 1
 161 319 l 1
 162 340 l 1
 183 338 l 1
 543 308 l 1
 539 652 l 1
 539 672 l 1
 560 672 l 1
EndSplineSet
Validated: 5
Ligature2: "ltligs1" W Q
EndChar

StartChar: lt_WR
Encoding: 305 -1 74
Width: 833
VWidth: 0
Flags: W
HStem: 1 40<494.7 546.43> 627 41<236.246 309.75>
VStem: 66 42<137.495 224.961 467.737 552.374> 131 41<295.369 390.57> 632 41<284.43 379.588> 697 41<121.659 206.263 450.006 536.998>
LayerCount: 2
Fore
SplineSet
486 652 m 1
 493 671 l 1
 512 664 l 2
 600 632 737 605 739 482 c 0
 741 376 539 350 532 340 c 1
 540 324 738 278 738 168 c 0
 738 56 593 29 515 7 c 2
 495 1 l 1
 489 21 l 1
 483 41 l 1
 503 47 l 1
 595 74 697 100 697 168 c 0
 697 248 489 254 489 340 c 0
 489 431 700 407 698 481 c 0
 696 566 599 589 498 624 c 2
 479 632 l 1
 486 652 l 1
412 654 m 1
 422 636 l 1
 402 627 l 2
 274 561 170 484 172 348 c 0
 174 200 271 115 413 50 c 2
 432 41 l 1
 423 22 l 1
 415 3 l 1
 395 12 l 2
 248 80 133 179 131 348 c 0
 129 510 256 597 384 663 c 2
 402 673 l 1
 412 654 l 1
318 23 m 1
 311 3 l 1
 292 10 l 2
 204 42 67 70 65 193 c 0
 63 299 266 324 273 334 c 1
 265 350 66 396 66 506 c 0
 66 618 212 646 290 668 c 2
 309 673 l 1
 315 652 l 1
 321 632 l 1
 301 627 l 1
 209 600 108 574 108 506 c 0
 108 426 315 420 315 334 c 0
 315 243 105 267 107 193 c 0
 109 108 205 84 306 49 c 2
 325 42 l 1
 318 23 l 1
392 19 m 5
 382 38 l 5
 402 48 l 6
 530 114 634 191 632 327 c 4
 630 475 533 559 391 624 c 6
 372 632 l 5
 382 652 l 5
 390 671 l 5
 409 662 l 6
 556 594 671 496 673 327 c 4
 675 165 548 76 420 10 c 6
 402 1 l 5
 392 19 l 5
EndSplineSet
Validated: 37
Ligature2: "ltligs1" W R
EndChar

StartChar: lt_WS
Encoding: 306 -1 75
Width: 833
VWidth: 0
Flags: W
HStem: 242 42<72 325> 255 42<364.462 618> 318 42<217.786 257.211> 373 42<260 552.462> 386 42<554 807> 657 31G<345 378.333 485 527>
VStem: 345 43<14 592> 352 41<-7 592> 485 42<88 687>
LayerCount: 2
Fore
SplineSet
622 282 m 0x6480
 624 263 635 254 642 255 c 0
 654 256 664 267 662 282 c 0
 660 300 647 312 632 310 c 0
 627 310 620 302 622 282 c 0x6480
582 276 m 0
 577 328 586 346 629 352 c 0
 669 357 700 323 704 288 c 0
 709 253 683 215 644 213 c 0
 604 211 584 248 582 276 c 0
71 262 m 1
 70 283 l 1
 91 284 l 1
 90 284 91 283 91 284 c 1xa480
 598 297 l 1
 618 298 l 1
 619 277 l 1
 619 256 l 1
 598 255 l 1x6480
 92 242 l 1
 92 243 91 242 92 242 c 1
 72 242 l 1xa480
 71 262 l 1
373 -7 m 1
 352 -7 l 1
 352 14 l 1x2580
 345 640 l 1
 345 677 l 1
 380 656 l 1
 619 494 l 1
 635 481 l 1
 621 465 l 1
 607 450 l 1
 592 464 l 1
 388 592 l 1x2680
 393 15 l 1
 393 -7 l 1x2580
 373 -7 l 1
257 390 m 0
 255 409 244 416 237 415 c 0x3480
 225 414 214 403 216 388 c 0
 218 370 231 358 246 360 c 0
 251 360 259 370 257 390 c 0
298 395 m 0
 301 368 292 320 249 318 c 0
 209 315 178 347 174 382 c 0
 169 417 195 455 234 457 c 0
 274 459 294 423 298 395 c 0
808 408 m 1
 808 387 l 1
 788 386 l 1
 789 386 788 387 788 386 c 1x2c80
 281 373 l 1
 260 373 l 1
 259 394 l 1
 259 415 l 1
 280 415 l 1x3480
 786 428 l 1
 786 427 787 428 786 428 c 1
 807 428 l 1x2c80
 808 408 l 1
506 688 m 1
 527 688 l 1
 527 667 l 1
 533 41 l 1
 535 0 l 1
 498 25 l 1
 272 170 l 1
 257 184 l 1
 270 199 l 1
 284 215 l 1
 299 201 l 1
 491 88 l 1
 485 666 l 1
 485 687 l 1
 506 688 l 1
EndSplineSet
Validated: 37
Ligature2: "ltligs1" W S
EndChar

StartChar: lt_WT
Encoding: 307 -1 76
Width: 833
VWidth: 0
Flags: W
HStem: -8 42<400 448> 90 42<259 403 439 606> 109 23<403 418> 533 46<238 402 404 440 443 584> 633 43<394 443>
VStem: 398 41<110 579>
LayerCount: 2
Fore
SplineSet
655 183 m 1xdc
 673 173 l 1
 663 155 l 1
 637 104 l 1
 631 93 l 1
 618 93 l 1
 249 90 l 1
 239 90 l 1
 232 98 l 1
 193 148 l 1
 182 165 l 1
 198 178 l 1
 215 190 l 1
 227 173 l 1
 259 132 l 1
 606 135 l 1
 627 174 l 1
 636 193 l 1
 655 183 l 1xdc
423 73 m 1
 400 34 l 1
 448 35 l 1
 423 73 l 1
439 123 m 1
 506 27 l 1
 528 -6 l 1
 488 -7 l 1
 363 -8 l 1
 327 -8 l 1
 345 23 l 1
 403 122 l 1
 420 150 l 1
 439 123 l 1
418 109 m 1xbc
 398 110 l 1
 398 131 l 1
 401 558 l 1
 402 579 l 1
 422 579 l 1
 443 579 l 1
 442 558 l 1
 439 130 l 1
 439 109 l 1
 418 109 l 1xbc
189 485 m 1
 170 494 l 1
 180 513 l 1
 207 564 l 1
 212 575 l 1
 225 575 l 1
 593 578 l 1
 604 578 l 1
 611 570 l 1
 649 519 l 1
 662 502 l 1
 645 490 l 1
 628 478 l 1
 616 494 l 1
 584 537 l 1
 238 533 l 1
 217 493 l 1
 207 475 l 1
 189 485 l 1
420 595 m 1
 443 633 l 1
 394 633 l 1
 420 595 l 1
404 545 m 1
 338 642 l 1
 316 673 l 1
 355 674 l 1
 480 676 l 1
 517 677 l 1
 498 644 l 1
 440 546 l 1
 423 518 l 1
 404 545 l 1
EndSplineSet
Validated: 5
Ligature2: "ltligs1" W T
EndChar

StartChar: lt_WU
Encoding: 308 -1 77
Width: 833
VWidth: 0
Flags: W
HStem: -16 42<585.056 759.778> 14 42<263.586 662.312> 223 41<267.564 440.842> 388 41<386.158 557.295> 596 42<164.688 562.521> 628 41<68 85>
LayerCount: 2
Fore
SplineSet
66 648 m 1x34
 68 669 l 1x34
 89 668 l 2
 201 656 260 640 370 638 c 0
 465 636 519 651 618 659 c 2
 670 663 l 1
 635 624 l 2
 535 511 446 553 384 442 c 1
 430 435 479 431 536 429 c 0
 590 427 616 444 677 468 c 2
 696 477 l 1
 703 457 l 1
 711 438 l 1
 692 430 l 2
 636 408 600 386 534 388 c 0
 470 390 416 395 365 402 c 1
 322 301 361 241 370 118 c 2
 375 48 l 1
 324 101 l 1
 55 460 l 1
 25 500 l 1
 74 493 l 2
 180 478 258 461 340 448 c 1
 400 564 482 529 566 612 c 1
 502 604 448 594 369 596 c 0x38
 255 598 194 614 85 626 c 2
 64 628 l 1
 66 648 l 1x34
322 409 m 1
 257 419 195 432 118 444 c 1
 327 163 l 1
 315 236 290 324 322 409 c 1
761 2 m 5
 759 -18 l 5
 738 -16 l 6xb0
 626 -4 567 12 457 14 c 4
 362 16 307 0 208 -8 c 6
 157 -12 l 5
 191 27 l 6
 291 140 381 99 443 210 c 5
 397 217 348 221 291 223 c 4
 237 225 212 207 151 183 c 6
 132 176 l 5
 123 195 l 5
 116 214 l 5
 135 222 l 6
 191 244 226 266 292 264 c 4
 356 262 411 256 462 249 c 5
 505 350 466 410 457 533 c 6
 452 603 l 5
 502 551 l 5
 772 192 l 5
 802 152 l 5
 752 158 l 6
 646 173 569 190 487 203 c 5
 427 87 344 123 260 40 c 5
 324 48 378 58 457 56 c 4x70
 571 54 633 38 742 26 c 6xb0
 763 23 l 5
 761 2 l 5
505 242 m 5
 570 232 631 219 708 207 c 5
 500 488 l 5
 512 415 537 327 505 242 c 5
EndSplineSet
Validated: 37
Ligature2: "ltligs1" W U
EndChar

StartChar: lt_WV
Encoding: 309 -1 78
Width: 833
VWidth: 0
Flags: W
HStem: 640 38<330.5 341.122>
VStem: 175 42<254.638 449.012> 308 42<256.824 423.815> 491 41<240.136 401.231> 624 42<214.988 409.362>
LayerCount: 2
Fore
SplineSet
514 652 m 1
 506 642 l 2
 428 542 348 407 350 353 c 0
 352 293 398 134 516 24 c 2
 522 18 l 1
 507 -14 l 1
 496 -11 l 2
 289 47 182 186 175 352 c 0
 168 511 304 619 482 675 c 2
 492 678 l 1
 514 652 l 1
431 612 m 1
 294 554 212 466 217 354 c 0
 222 227 290 121 429 58 c 1
 344 168 310 291 308 352 c 0
 306 419 367 522 431 612 c 1
327 12 m 1
 335 22 l 2
 413 122 493 256 491 310 c 0
 489 370 443 530 325 640 c 2
 318 646 l 1
 334 678 l 1
 345 675 l 2
 552 617 659 478 666 312 c 0
 673 153 536 45 358 -11 c 2
 348 -14 l 1
 327 12 l 1
410 52 m 1
 547 110 629 198 624 310 c 0
 619 437 551 544 412 607 c 1
 497 497 530 373 532 312 c 0
 534 245 474 142 410 52 c 1
EndSplineSet
Validated: 37
Ligature2: "ltligs1" W V
EndChar

StartChar: lt_WX
Encoding: 310 -1 79
Width: 833
VWidth: 0
Flags: W
HStem: 98 40<298 356.458> 505 40<516.96 577> 623 20G<752 773.952>
VStem: 71 41<168 630> 79 42<1 479.333> 298 42<98 306.978> 534 42<335.022 544> 672 41<45.468 100.333> 732 42<180.25 642> 741 41<12 491.111>
LayerCount: 2
Fore
SplineSet
752 642 m 1xe780
 773 643 l 1
 774 622 l 1xe780
 782 33 l 1
 782 12 l 1
 762 12 l 1
 741 12 l 1
 741 33 l 1xe740
 732 622 l 1
 732 642 l 1
 752 642 l 1xe780
319 98 m 1
 298 98 l 1
 299 118 l 2
 301 180 275 235 308 307 c 0
 365 429 459 404 438 489 c 0
 416 576 359 580 244 599 c 0
 241 600 237 600 232 599 c 0
 210 595 196 578 198 564 c 2
 202 543 l 1
 182 540 l 1
 162 536 l 1
 158 557 l 2
 150 602 188 633 224 640 c 0
 233 642 242 642 252 640 c 0
 350 622 447 622 478 499 c 0
 507 381 378 358 346 290 c 0
 320 235 343 196 341 118 c 2
 340 97 l 1
 319 98 l 1
319 68 m 0
 321 49 332 41 339 42 c 0
 351 43 362 53 360 68 c 0
 358 86 344 99 329 97 c 0
 324 97 317 88 319 68 c 0
278 62 m 0
 275 89 284 136 327 138 c 0
 367 141 397 109 401 74 c 0
 406 39 381 2 342 0 c 0
 302 -2 282 34 278 62 c 0
100 0 m 1
 79 0 l 1
 79 21 l 1xef
 71 609 l 1
 70 630 l 1
 91 631 l 1
 112 631 l 1
 112 610 l 1xf7
 121 22 l 1
 121 1 l 1xef
 100 0 l 1
556 545 m 1
 577 544 l 1
 576 523 l 2
 574 461 600 407 567 335 c 0
 510 213 411 233 432 148 c 0
 454 61 515 62 630 43 c 0
 633 42 638 42 643 43 c 0
 665 47 678 65 676 79 c 2
 672 99 l 1
 693 103 l 1
 713 107 l 1
 717 87 l 2
 725 42 687 9 651 2 c 0
 642 0 633 0 623 2 c 0
 525 20 422 15 391 138 c 0
 362 256 497 285 529 353 c 0
 555 408 532 447 534 525 c 2
 535 546 l 1
 556 545 l 1
556 575 m 0
 554 594 543 603 536 602 c 0
 524 601 513 588 515 573 c 0
 517 555 530 544 545 546 c 0
 550 546 558 555 556 575 c 0
597 581 m 0
 600 554 591 507 548 505 c 0
 508 502 477 533 473 568 c 0
 468 603 494 641 533 643 c 0
 573 645 593 609 597 581 c 0
EndSplineSet
Validated: 37
Ligature2: "ltligs1" W X
EndChar

StartChar: lt_WY
Encoding: 311 -1 80
Width: 833
VWidth: 0
Flags: W
HStem: 93 42<337.357 511.562> 528 41<361.967 490.296> 652 20G<409 436>
VStem: 160 42<241.355 419.841> 664 42<248.378 422.291>
LayerCount: 2
Fore
SplineSet
592 162 m 1
 607 147 l 1
 591 132 l 1
 443 -19 l 1
 431 -32 l 1
 416 -21 l 1
 258 129 l 1
 242 142 l 1
 256 158 l 1
 268 174 l 1
 285 162 l 1
 428 23 l 1
 562 162 l 1
 578 177 l 1
 592 162 l 1
260 478 m 1
 247 493 l 1
 262 508 l 1
 409 660 l 1
 422 672 l 1
 436 661 l 1
 593 511 l 1
 610 498 l 1
 598 482 l 1
 584 466 l 1
 568 478 l 1
 424 618 l 1
 290 478 l 1
 275 463 l 1
 260 478 l 1
423 528 m 0
 302 530 205 460 202 332 c 0
 200 210 298 137 416 135 c 0
 552 133 660 194 664 331 c 0
 668 466 559 526 423 528 c 0
423 569 m 0
 581 567 710 489 706 329 c 0
 702 171 574 91 415 93 c 0
 269 95 157 191 160 333 c 0
 163 477 272 571 423 569 c 0
EndSplineSet
Validated: 37
Ligature2: "ltligs1" W Y
EndChar

StartChar: lt_WZ
Encoding: 312 -1 81
Width: 833
VWidth: 0
Flags: W
HStem: 18 21G<222 251> 624 41G<168.5 172 201 230 565 593 625.72 665.5>
VStem: 334 42<216.087 438.75> 440 42<224.094 445.913>
LayerCount: 2
Fore
SplineSet
593 632 m 1
 611 619 l 1
 598 602 l 2
 520 494 478 434 482 313 c 0
 486 196 541 144 619 39 c 2
 632 22 l 1
 615 10 l 1
 598 -2 l 1
 586 14 l 2
 509 116 444 180 440 312 c 0
 436 446 487 520 565 627 c 2
 577 644 l 1
 593 632 l 1
749 330 m 1
 153 2 l 1
 146 14 140 26 133 38 c 1
 310 136 488 234 665 332 c 1
 151 629 l 1
 158 641 165 653 172 665 c 1
 172 665 562 438 749 330 c 1
222 31 m 1
 205 43 l 1
 218 60 l 2
 296 168 338 228 334 349 c 0
 330 466 275 518 197 623 c 2
 184 640 l 1
 201 652 l 1
 218 665 l 1
 230 648 l 2
 307 546 372 483 376 351 c 0
 380 217 329 142 251 35 c 2
 239 18 l 1
 222 31 l 1
67 333 m 1
 662 661 l 1
 669 649 675 636 682 624 c 1
 505 526 329 429 152 331 c 1
 665 33 l 1
 658 21 650 10 643 -2 c 1
 643 -2 254 225 67 333 c 1
EndSplineSet
Validated: 37
Ligature2: "ltligs1" W Z
EndChar

StartChar: lt_DN
Encoding: 313 -1 82
Width: 833
VWidth: 833
Flags: W
HStem: 18 43<188 638> 293 42<650.103 789> 324 42<43.3333 175.032> 635 20G<677.212 696.362>
VStem: 391 41<469.625 700.526> 407 25<-7 684> 409 42<-23.6667 250.737> 656 40<268.727 552> 664 43<94 434.273>
LayerCount: 2
Fore
SplineSet
638 61 m 1x90
 416 298 l 1
 188 57 l 1
 638 61 l 1x90
656 552 m 1x91
 445 329 l 1
 664 94 l 1x9080
 656 552 l 1x91
417 358 m 1
 696 655 l 1x91
 707 48 l 1
 707 18 l 1
 685 18 l 1
 666 18 l 1
 91 13 l 1
 388 328 l 1
 131 604 l 1
 161 632 l 1
 417 358 l 1
410 702 m 5
 430 704 l 5
 432 684 l 5x98
 448 -2 l 5
 451 -23 l 5
 430 -25 l 5
 409 -27 l 5x92
 407 -7 l 5x94
 391 679 l 5x98
 389 700 l 5
 410 702 l 5
42 345 m 5
 44 366 l 5xb0
 65 364 l 5
 772 335 l 5
 793 333 l 5
 791 312 l 5
 789 292 l 5
 768 293 l 5xd0
 61 322 l 5
 40 324 l 5xb0
 42 345 l 5
EndSplineSet
Validated: 5
Ligature2: "ltligs1" D N
EndChar

StartChar: lt_DK
Encoding: 314 -1 83
Width: 833
VWidth: 833
Flags: W
HStem: 22 43<509 691> 293 42<623.931 762> 324 42<17 148.194> 640 20G<649.923 722.836>
VStem: 364 42<512.5 700.556> 382 41<-23 259.778>
LayerCount: 2
Fore
SplineSet
566 263 m 1xd0
 582 293 l 1
 602 265 l 1
 748 60 l 1
 771 28 l 1
 732 28 l 1
 474 22 l 1
 440 22 l 1
 456 52 l 1
 566 263 l 1xd0
587 214 m 1
 509 65 l 1
 691 68 l 1
 587 214 l 1
673 447 m 1
 652 452 l 1
 632 456 l 1
 638 477 l 1
 659 574 l 1
 89 18 l 1
 73 4 l 1
 59 18 l 1
 44 34 l 1
 60 48 l 1
 612 588 l 1
 509 562 l 1
 499 602 l 1
 525 608 l 1
 728 660 l 1
 673 447 l 1
382 702 m 5x94
 403 704 l 5
 406 684 l 5x98
 422 -2 l 5
 423 -23 l 5
 402 -25 l 5
 382 -27 l 5x94
 381 -7 l 5
 364 679 l 5x98
 362 700 l 5
 382 702 l 5x94
15 345 m 5
 18 366 l 5xb0
 38 364 l 5
 746 335 l 5
 767 333 l 5
 765 312 l 5
 762 292 l 5
 742 293 l 5xd0
 34 322 l 5
 13 324 l 5xb0
 15 345 l 5
EndSplineSet
Validated: 5
Ligature2: "ltligs1" D K
EndChar

StartChar: lt_DA
Encoding: 315 -1 84
Width: 833
VWidth: 833
Flags: W
HStem: 471 41<395.313 437.094> 603 42<231.493 310.818 531.384 594.327> 629 20G<153 182 651 680>
LayerCount: 2
Fore
SplineSet
402 432 m 1x80
 418 452 l 1
 433 432 l 1
 743 50 l 1
 772 16 l 1
 728 16 l 1
 114 17 l 1
 71 17 l 1
 98 51 l 1
 402 432 l 1x80
418 385 m 1
 158 58 l 1
 684 58 l 1
 418 385 l 1
140 482 m 1
 122 493 l 1
 132 512 l 2
 164 567 197 647 285 645 c 0
 387 643 375 513 414 512 c 0
 444 511 473 644 551 641 c 0
 630 637 667 567 708 512 c 2
 720 496 l 1
 703 483 l 1
 687 471 l 1
 674 488 l 2
 628 550 601 597 549 599 c 0
 524 601 494 469 412 471 c 0
 316 473 336 601 284 603 c 0xc0
 228 605 207 555 168 490 c 2
 158 472 l 1
 140 482 l 1
680 636 m 1
 696 623 l 1
 682 607 l 1
 182 -9 l 1
 169 -25 l 1
 153 -12 l 1
 138 2 l 1
 151 18 l 1
 651 633 l 1
 664 649 l 1xa0
 680 636 l 1
153 636 m 1
 169 649 l 1
 182 633 l 1
 682 18 l 1
 696 2 l 1
 680 -12 l 1
 664 -25 l 1
 651 -9 l 1
 151 607 l 1
 138 623 l 1
 153 636 l 1
EndSplineSet
Validated: 37
Ligature2: "ltligs1" D A
EndChar

StartChar: lt_DG
Encoding: 316 -1 85
Width: 833
VWidth: 833
Flags: W
HStem: 295 42<631.571 774.474> 327 41<28.3333 134.375> 662 20G<142 169 598.5 603>
VStem: 393 42<-21.7 277.882> 603 44<600.909 655>
LayerCount: 2
Fore
SplineSet
394 704 m 1x38
 415 707 l 1
 418 685 l 1
 433 0 l 1
 435 -21 l 1
 415 -23 l 1
 393 -25 l 1
 392 -5 l 1
 376 682 l 1
 373 702 l 1
 394 704 l 1x38
27 347 m 1
 29 368 l 1x78
 50 365 l 1
 758 337 l 1
 778 335 l 1
 777 314 l 1
 773 293 l 1
 753 295 l 1xb8
 46 324 l 1
 25 327 l 1x78
 27 347 l 1
81 240 m 2
 179 262 276 295 367 318 c 0
 371 320 386 325 388 328 c 0
 391 333 414 345 417 350 c 0
 420 355 414 352 418 357 c 1
 408 354 382 350 372 348 c 0
 210 326 177 531 131 648 c 2
 123 668 l 1
 142 675 l 1
 162 682 l 1
 169 663 l 2
 223 524 250 367 365 383 c 0
 420 391 491 443 538 511 c 0
 578 568 594 637 603 655 c 1
 603 655 647 673 647 652 c 0
 647 635 644 645 642 638 c 0
 640 636 639 632 637 627 c 0
 602 545 567 486 535 442 c 0
 502 396 470 364 444 335 c 1
 535 351 623 350 697 307 c 0
 760 270 744 187 709 127 c 0
 686 87 651 50 608 27 c 0
 524 -18 370 -15 325 70 c 0
 317 86 313 107 315 127 c 0
 321 189 331 233 349 270 c 1
 267 248 181 220 90 200 c 2
 69 195 l 1
 65 215 l 1
 60 236 l 1
 81 240 l 2
81 240 m 1
 82 240 80 240 81 240 c 1
405 284 m 0
 403 282 401 278 399 276 c 0
 377 241 363 195 356 122 c 0
 354 109 357 99 362 90 c 0
 389 39 514 23 588 63 c 0
 623 81 653 114 673 148 c 0
 707 206 704 254 675 272 c 0
 607 312 522 310 422 288 c 0
 416 286 411 286 405 284 c 0
EndSplineSet
Validated: 37
Ligature2: "ltligs1" D G
EndChar

StartChar: lt_DZ
Encoding: 317 -1 86
Width: 833
VWidth: 833
Flags: W
HStem: 624 38G<108.5 112 192 222 556 585 690 718>
LayerCount: 2
Fore
SplineSet
585 632 m 5
 602 619 l 5
 590 602 l 6
 512 494 468 434 472 313 c 4
 476 196 532 144 610 39 c 6
 622 22 l 5
 606 10 l 5
 589 -2 l 5
 577 14 l 6
 500 116 435 180 431 312 c 4
 427 446 478 520 556 627 c 6
 568 644 l 5
 585 632 l 5
689 330 m 1
 93 2 l 1
 86 14 80 26 73 38 c 1
 250 136 427 234 604 332 c 1
 91 629 l 1
 98 641 105 653 112 665 c 1
 112 665 502 438 689 330 c 1
718 648 m 1
 735 635 l 1
 722 619 l 1
 222 3 l 1
 209 -12 l 1
 192 1 l 1
 177 14 l 1
 190 30 l 1
 690 646 l 1
 702 662 l 1
 718 648 l 1
192 648 m 1
 209 662 l 1
 222 646 l 1
 722 30 l 1
 735 14 l 1
 718 1 l 1
 702 -12 l 1
 690 3 l 1
 190 619 l 1
 177 635 l 1
 192 648 l 1
EndSplineSet
Validated: 37
Ligature2: "ltligs1" D Z
EndChar

StartChar: lt_DU
Encoding: 318 -1 87
Width: 833
VWidth: 833
Flags: W
HStem: 302 42<414.158 660.435> 596 42<274.608 591.008> 628 41<97 112> 642 20G<220 249 718 747>
LayerCount: 2
Fore
SplineSet
94 648 m 1xa0
 97 669 l 1xa0
 118 668 l 2
 230 656 288 640 398 638 c 0
 493 636 548 651 647 659 c 2
 698 663 l 1
 664 624 l 2
 564 511 474 468 412 357 c 1
 458 350 507 346 564 344 c 0
 618 342 644 359 705 383 c 2
 724 391 l 1
 732 372 l 1
 740 352 l 1
 720 345 l 2
 664 323 628 300 562 302 c 0
 498 304 444 311 393 318 c 1
 350 217 389 156 398 33 c 2
 403 -37 l 1
 352 16 l 1
 83 375 l 1
 53 415 l 1
 102 408 l 2
 208 393 286 376 368 363 c 1
 428 479 510 529 594 612 c 1
 530 604 477 594 398 596 c 0xc0
 284 598 221 614 112 626 c 2
 92 628 l 1
 94 648 l 1xa0
351 324 m 1
 286 334 225 348 148 360 c 1
 355 78 l 1
 343 151 319 239 351 324 c 1
747 648 m 1
 762 635 l 1
 749 619 l 1
 249 3 l 1
 236 -12 l 1
 220 1 l 1
 204 14 l 1
 218 30 l 1
 718 646 l 1
 731 662 l 1x90
 747 648 l 1
220 648 m 1
 236 662 l 1
 249 646 l 1
 749 30 l 1
 762 14 l 1
 747 1 l 1
 731 -12 l 1
 718 3 l 1
 218 619 l 1
 204 635 l 1
 220 648 l 1
EndSplineSet
Validated: 37
Ligature2: "ltligs1" D U
EndChar

StartChar: ltd10
Encoding: 319 -1 88
Width: 833
VWidth: 0
Flags: W
HStem: 22 41<461.655 633.683>
VStem: 113 42<145.229 486.418> 640 41<63.6001 134.176>
LayerCount: 2
Fore
SplineSet
648 552 m 1
 630 540 l 1
 618 557 l 2
 600 582 572 620 558 619 c 0
 393 609 300 622 209 529 c 0
 140 458 154 429 155 332 c 0
 156 233 145 159 217 87 c 0
 307 -4 425 53 627 63 c 1
 633 73 638 105 640 120 c 2
 643 141 l 1
 664 138 l 1
 684 133 l 1
 681 113 l 2
 680 106 681 24 633 22 c 0
 445 13 301 -57 187 58 c 0
 102 144 114 238 113 331 c 0
 112 424 96 473 179 558 c 0
 292 674 404 654 559 661 c 0
 601 663 634 607 652 582 c 2
 664 564 l 1
 648 552 l 1
EndSplineSet
Validated: 33
EndChar

StartChar: ltd11
Encoding: 320 -1 89
Width: 833
VWidth: 0
Flags: W
HStem: 471 41<395.313 437.094> 603 42<231.493 310.818 531.384 594.327>
LayerCount: 2
Fore
SplineSet
140 482 m 1
 122 493 l 1
 132 512 l 2
 164 567 197 647 285 645 c 0
 387 643 375 513 414 512 c 0
 444 511 473 644 551 641 c 0
 630 637 667 567 708 512 c 2
 720 496 l 1
 703 483 l 1
 687 471 l 1
 674 488 l 2
 628 550 601 597 549 599 c 0
 524 601 494 469 412 471 c 0
 316 473 336 601 284 603 c 0
 228 605 207 555 168 490 c 2
 158 472 l 1
 140 482 l 1
EndSplineSet
Validated: 33
EndChar

StartChar: ltd12
Encoding: 321 -1 90
Width: 833
VWidth: 0
Flags: W
HStem: -12 41<143 200 201 298>
VStem: 201 41<-7 185.156>
LayerCount: 2
Fore
SplineSet
209 343 m 1
 207 241 238 147 242 14 c 1
 241 14 242 13 242 14 c 1
 242 -7 l 1
 222 -8 l 1
 201 -8 l 1
 200 12 l 2
 196 147 161 243 168 365 c 0
 170 400 175 437 185 478 c 0
 209 570 277 669 385 651 c 0
 398 649 412 645 427 641 c 0
 529 613 683 538 650 415 c 0
 604 246 347 330 209 343 c 1
211 385 m 1
 378 369 578 307 610 426 c 0
 631 504 524 572 416 601 c 0
 403 604 390 608 378 610 c 0
 305 623 249 554 226 468 c 0
 218 439 213 412 211 385 c 1
143 8 m 1
 143 29 l 1
 165 29 l 1
 277 28 l 1
 298 27 l 1
 298 7 l 1
 298 -15 l 1
 277 -14 l 1
 164 -12 l 1
 143 -12 l 1
 143 8 l 1
EndSplineSet
Validated: 37
EndChar

StartChar: ltd13
Encoding: 322 -1 91
Width: 833
VWidth: 0
Flags: W
HStem: 1 40<591.75 640.297> 651 20G<584 610>
VStem: 732 42<102.632 212.371 441.849 557.828>
LayerCount: 2
Fore
SplineSet
584 652 m 5
 591 671 l 5
 610 664 l 6
 698 632 773 605 775 482 c 4
 777 376 635 350 628 340 c 5
 636 324 774 278 774 168 c 4
 774 56 690 29 612 7 c 6
 592 1 l 5
 587 21 l 5
 582 41 l 5
 601 47 l 5
 693 74 732 100 732 168 c 4
 732 248 587 254 587 340 c 4
 587 431 735 407 733 481 c 4
 731 566 698 589 597 624 c 6
 577 632 l 5
 584 652 l 5
EndSplineSet
Validated: 33
EndChar

StartChar: lt_OA
Encoding: 323 -1 92
Width: 833
VWidth: 0
Flags: W
HStem: -2 42<158 684> 275 42<397.188 435.752> 471 41<395.313 437.094> 603 42<231.493 310.818 531.384 594.327>
LayerCount: 2
Fore
SplineSet
397 246 m 4
 399 227 409 218 416 219 c 4
 428 220 439 233 437 248 c 4
 435 266 422 277 407 275 c 4
 402 275 395 266 397 246 c 4
356 240 m 4
 353 267 360 315 403 317 c 4
 443 320 474 287 478 252 c 4
 483 217 457 180 418 178 c 4
 378 176 360 212 356 240 c 4
402 413 m 1
 418 433 l 1
 433 413 l 1
 743 32 l 1
 772 -2 l 1
 728 -2 l 1
 114 -2 l 1
 71 -2 l 1
 98 32 l 1
 402 413 l 1
418 367 m 1
 158 40 l 1
 684 39 l 1
 418 367 l 1
140 482 m 1
 122 493 l 1
 132 512 l 2
 164 567 197 647 285 645 c 0
 387 643 375 513 414 512 c 0
 444 511 473 644 551 641 c 0
 630 637 667 567 708 512 c 2
 720 496 l 1
 703 483 l 1
 687 471 l 1
 674 488 l 2
 628 550 601 597 549 599 c 0
 524 601 494 469 412 471 c 0
 316 473 336 601 284 603 c 0
 228 605 207 555 168 490 c 2
 158 472 l 1
 140 482 l 1
EndSplineSet
Validated: 33
Ligature2: "ltligs1" O A
EndChar

StartChar: lt_OB
Encoding: 324 -1 93
Width: 833
VWidth: 0
Flags: W
HStem: 22 41<461.655 633.683> 240 42<522.188 559.214>
VStem: 113 42<145.229 486.418> 300 41<384.638 487> 640 41<63.6001 134.176>
LayerCount: 2
Fore
SplineSet
522 211 m 4
 524 192 534 184 541 185 c 4
 553 186 564 197 562 212 c 4
 560 230 547 242 532 240 c 4
 527 240 520 231 522 211 c 4
481 206 m 4
 478 233 485 280 528 282 c 4
 568 285 599 253 603 218 c 4
 608 183 582 145 543 143 c 4
 503 141 485 178 481 206 c 4
321 489 m 1
 341 492 l 1
 343 471 l 2
 352 404 357 365 385 367 c 0
 417 370 418 432 416 483 c 2
 416 488 l 1
 457 485 l 2
 463 484 467 431 469 419 c 0
 488 337 488 282 436 211 c 0
 426 197 410 192 397 193 c 0
 364 195 318 229 321 268 c 2
 323 290 l 1
 343 288 l 1
 365 285 l 1
 362 265 l 2
 363 258 390 233 402 235 c 0
 434 280 445 338 441 381 c 1
 431 366 412 327 390 325 c 0
 309 317 309 422 302 465 c 2
 300 486 l 1
 321 489 l 1
648 552 m 1
 630 540 l 1
 618 557 l 2
 600 582 572 620 558 619 c 0
 393 609 300 622 209 529 c 0
 140 458 154 429 155 332 c 0
 156 233 145 159 217 87 c 0
 307 -4 425 53 627 63 c 1
 633 73 638 105 640 120 c 2
 643 141 l 1
 664 138 l 1
 684 133 l 1
 681 113 l 2
 680 106 681 24 633 22 c 0
 445 13 301 -57 187 58 c 0
 102 144 114 238 113 331 c 0
 112 424 96 473 179 558 c 0
 292 674 404 654 559 661 c 0
 601 663 634 607 652 582 c 2
 664 564 l 1
 648 552 l 1
EndSplineSet
Validated: 33
Ligature2: "ltligs1" O B
EndChar

StartChar: lt_OC
Encoding: 325 -1 94
Width: 833
VWidth: 0
Flags: W
HStem: 3 42<143 683> 277 41<393.188 430.214> 628 42<402.175 439.021>
LayerCount: 2
Fore
SplineSet
392 248 m 4
 394 229 405 221 412 222 c 4
 424 223 434 235 432 250 c 4
 430 268 417 279 402 277 c 4
 397 277 390 268 392 248 c 4
352 243 m 4
 349 270 356 316 399 318 c 4
 439 321 470 290 474 255 c 4
 479 220 454 183 415 181 c 4
 375 179 356 215 352 243 c 4
401 600 m 0
 403 581 413 572 420 573 c 0
 432 574 443 586 441 601 c 0
 439 619 426 630 411 628 c 0
 406 628 399 620 401 600 c 0
359 593 m 0
 356 620 365 668 408 670 c 0
 448 673 478 642 482 607 c 0
 487 572 462 534 423 532 c 0
 383 530 363 565 359 593 c 0
398 533 m 1
 415 562 l 1
 432 533 l 1
 738 35 l 1
 758 2 l 1
 721 2 l 1
 106 3 l 1
 68 3 l 1
 88 35 l 1
 398 533 l 1
415 483 m 1
 143 45 l 1
 683 44 l 1
 415 483 l 1
EndSplineSet
Validated: 37
Ligature2: "ltligs1" O C
EndChar

StartChar: lt_OD
Encoding: 326 -1 95
Width: 833
VWidth: 0
Flags: W
HStem: 182 41<398.188 435.214> 642 20G<153 182 651 680>
LayerCount: 2
Fore
SplineSet
398 153 m 4
 400 134 411 126 418 127 c 4
 430 128 440 140 438 155 c 4
 436 173 423 184 408 182 c 4
 403 182 396 173 398 153 c 4
357 148 m 4
 354 175 361 221 404 223 c 4
 444 226 475 195 479 160 c 4
 484 125 459 87 420 85 c 4
 380 83 361 120 357 148 c 4
680 648 m 1
 696 635 l 1
 682 619 l 1
 182 3 l 1
 169 -12 l 1
 153 1 l 1
 138 14 l 1
 151 30 l 1
 651 646 l 1
 664 662 l 1
 680 648 l 1
153 648 m 1
 169 662 l 1
 182 646 l 1
 682 30 l 1
 696 14 l 1
 680 1 l 1
 664 -12 l 1
 651 3 l 1
 151 619 l 1
 138 635 l 1
 153 648 l 1
EndSplineSet
Validated: 37
Ligature2: "ltligs1" O D
EndChar

StartChar: lt_OE
Encoding: 327 -1 96
Width: 833
VWidth: 0
Flags: W
HStem: -12 41<143 200 201 298> 488 42<431.181 468.214>
VStem: 201 41<-7 185.156> 455 40<44.25 98.0972>
LayerCount: 2
Fore
SplineSet
430 460 m 4
 432 441 442 432 449 433 c 4
 461 434 472 445 470 460 c 4
 468 478 455 490 440 488 c 4
 435 488 428 480 430 460 c 4
389 453 m 4
 386 480 394 528 437 530 c 4
 477 533 508 501 512 466 c 4
 517 431 491 394 452 392 c 4
 412 390 393 425 389 453 c 4
537 160 m 1
 540 155 l 1
 535 152 l 2
 534 148 534 145 532 142 c 0
 522 111 508 88 500 56 c 2
 495 35 l 1
 475 41 l 1
 455 46 l 1
 460 66 l 2
 467 89 475 107 482 124 c 1
 459 112 420 94 392 128 c 0
 351 180 417 230 447 249 c 0
 455 254 461 256 469 258 c 0
 496 261 534 248 539 212 c 0
 541 193 540 176 537 160 c 1
498 182 m 0
 499 190 500 198 498 207 c 0
 497 210 489 219 476 217 c 0
 474 216 470 215 468 214 c 0
 430 190 415 165 424 154 c 0
 432 144 445 153 490 177 c 0
 492 179 496 180 498 182 c 0
209 343 m 1
 207 241 238 147 242 14 c 1
 241 14 242 13 242 14 c 1
 242 -7 l 1
 222 -8 l 1
 201 -8 l 1
 200 12 l 2
 196 147 161 243 168 365 c 0
 170 400 175 437 185 478 c 0
 209 570 277 669 385 651 c 0
 398 649 412 645 427 641 c 0
 529 613 683 538 650 415 c 0
 604 246 347 330 209 343 c 1
211 385 m 1
 378 369 578 307 610 426 c 0
 631 504 524 572 416 601 c 0
 403 604 390 608 378 610 c 0
 305 623 249 554 226 468 c 0
 218 439 213 412 211 385 c 1
143 8 m 1
 143 29 l 1
 165 29 l 1
 277 28 l 1
 298 27 l 1
 298 7 l 1
 298 -15 l 1
 277 -14 l 1
 164 -12 l 1
 143 -12 l 1
 143 8 l 1
EndSplineSet
Validated: 37
Ligature2: "ltligs1" O E
EndChar

StartChar: lt_OF
Encoding: 328 -1 97
Width: 833
VWidth: 0
Flags: W
HStem: 18 21G<112 142> 197 41<502.181 539.021> 632 20G<399 430 635 657>
VStem: 395 42<15 622> 635 42<492.919 651> 732 39<482.113 545.538>
LayerCount: 2
Fore
SplineSet
501 168 m 4
 503 149 513 141 520 142 c 4
 532 143 543 153 541 168 c 4
 539 186 526 199 511 197 c 4
 506 197 499 188 501 168 c 4
460 162 m 4
 457 189 465 236 508 238 c 4
 548 241 578 209 582 174 c 4
 587 139 562 102 523 100 c 4
 483 98 464 134 460 162 c 4
758 552 m 1
 777 545 l 1
 771 525 l 2
 738 424 720 366 636 290 c 0
 543 207 428 292 356 244 c 0
 255 178 221 129 142 33 c 2
 128 18 l 1
 112 31 l 1
 97 43 l 1
 110 60 l 2
 188 153 226 210 332 279 c 0
 440 350 541 261 608 321 c 0
 685 390 699 436 732 538 c 2
 738 558 l 1
 758 552 l 1
657 651 m 1
 677 651 l 1
 677 630 l 2
 675 528 666 459 580 382 c 0
 487 299 370 386 298 338 c 0
 197 272 164 223 85 127 c 2
 72 110 l 1
 57 123 l 1
 40 138 l 1
 52 153 l 2
 130 246 171 303 277 372 c 0
 385 443 485 354 552 414 c 0
 628 482 633 530 635 631 c 2
 635 652 l 1
 657 651 l 1
399 638 m 1
 415 654 l 1
 430 637 l 1
 590 452 l 1
 574 438 l 1
 558 423 l 1
 413 592 l 1
 250 421 l 1
 235 435 l 1
 219 449 l 1
 399 638 l 1
412 622 m 1
 433 622 l 1
 433 616 l 1
 437 35 l 1
 437 15 l 1
 416 14 l 1
 395 14 l 1
 395 35 l 1
 392 616 l 1
 392 622 l 1
 412 622 l 1
EndSplineSet
Validated: 37
Ligature2: "ltligs1" O F
EndChar

StartChar: lt_OG
Encoding: 329 -1 98
Width: 833
VWidth: 0
Flags: W
HStem: 241 41<442.175 479.021> 662 20G<142 169 598.5 603>
VStem: 603 44<600.909 655>
LayerCount: 2
Fore
SplineSet
441 212 m 4
 443 193 453 184 460 185 c 4
 472 186 484 198 482 213 c 4
 480 231 466 243 451 241 c 4
 446 241 439 232 441 212 c 4
399 207 m 4
 396 234 405 280 448 282 c 4
 488 285 518 253 522 218 c 4
 527 183 502 145 463 143 c 4
 423 141 403 179 399 207 c 4
81 240 m 2
 179 262 276 295 367 318 c 0
 371 320 386 325 388 328 c 0
 391 333 414 345 417 350 c 0
 420 355 414 352 418 357 c 1
 408 354 382 350 372 348 c 0
 210 326 177 531 131 648 c 2
 123 668 l 1
 142 675 l 1
 162 682 l 1
 169 663 l 2
 223 524 250 367 365 383 c 0
 420 391 491 443 538 511 c 0
 578 568 594 637 603 655 c 1
 603 655 647 673 647 652 c 0
 647 635 644 645 642 638 c 0
 640 636 639 632 637 627 c 0
 602 545 567 486 535 442 c 0
 502 396 470 364 444 335 c 1
 535 351 623 350 697 307 c 0
 760 270 744 187 709 127 c 0
 686 87 651 50 608 27 c 0
 524 -18 370 -15 325 70 c 0
 317 86 313 107 315 127 c 0
 321 189 331 233 349 270 c 1
 267 248 181 220 90 200 c 2
 69 195 l 1
 65 215 l 1
 60 236 l 1
 81 240 l 2
81 240 m 1
 82 240 80 240 81 240 c 1
405 284 m 0
 403 282 401 278 399 276 c 0
 377 241 363 195 356 122 c 0
 354 109 357 99 362 90 c 0
 389 39 514 23 588 63 c 0
 623 81 653 114 673 148 c 0
 707 206 704 254 675 272 c 0
 607 312 522 310 422 288 c 0
 416 286 411 286 405 284 c 0
EndSplineSet
Validated: 37
Ligature2: "ltligs1" O G
EndChar

StartChar: lt_OH
Encoding: 330 -1 99
Width: 833
VWidth: 0
Flags: W
HStem: 459 42<276.188 313.407> 632 20G<627 655>
LayerCount: 2
Fore
SplineSet
276 431 m 4
 278 412 288 403 295 404 c 4
 307 405 318 417 316 432 c 4
 314 450 301 461 286 459 c 4
 281 459 274 451 276 431 c 4
235 424 m 4
 232 451 239 499 282 501 c 4
 322 504 354 472 358 437 c 4
 363 402 337 364 298 362 c 4
 258 360 239 396 235 424 c 4
655 633 m 1
 665 615 l 1
 646 606 l 2
 523 544 412 490 429 422 c 0
 442 367 667 417 677 302 c 0
 689 167 559 109 452 38 c 2
 435 26 l 1
 423 43 l 1
 412 60 l 1
 430 72 l 2
 547 150 644 197 635 298 c 0
 628 367 419 285 389 412 c 0
 362 527 520 589 627 643 c 2
 646 652 l 1
 655 633 l 1
406 598 m 1
 415 580 l 1
 396 570 l 2
 273 508 162 454 179 386 c 0
 192 331 417 381 427 266 c 0
 439 131 309 73 202 2 c 1
 203 2 203 3 202 2 c 1
 185 -9 l 1
 174 8 l 1
 162 26 l 1
 180 37 l 2
 297 115 394 161 385 262 c 0
 378 331 169 250 139 377 c 0
 112 492 270 554 377 608 c 2
 396 617 l 1
 406 598 l 1
EndSplineSet
Validated: 37
Ligature2: "ltligs1" O H
EndChar

StartChar: lt_OI
Encoding: 331 -1 100
Width: 833
VWidth: 0
Flags: W
HStem: 332 41<402.181 439.021>
LayerCount: 2
Fore
SplineSet
401 303 m 4
 403 284 413 276 420 277 c 4
 432 278 443 290 441 305 c 4
 439 323 426 334 411 332 c 4
 406 332 399 323 401 303 c 4
360 298 m 4
 357 325 365 371 408 373 c 4
 448 376 478 345 482 310 c 4
 487 275 462 237 423 235 c 4
 383 233 364 270 360 298 c 4
700 517 m 1
 682 506 l 1
 671 523 l 2
 669 525 669 527 667 529 c 0
 619 597 545 637 494 602 c 0
 382 524 330 315 362 177 c 0
 370 141 389 109 412 86 c 0
 477 21 588 7 682 102 c 2
 698 118 l 1
 712 102 l 1
 727 88 l 1
 712 73 l 2
 603 -37 464 -25 382 57 c 0
 353 86 332 124 322 167 c 0
 286 319 339 544 471 636 c 0
 554 694 650 625 701 553 c 0
 703 551 704 548 706 546 c 2
 718 528 l 1
 700 517 l 1
112 482 m 1
 93 490 l 1
 102 510 l 2
 114 537 135 565 158 592 c 0
 209 648 292 702 360 640 c 0
 512 500 569 339 510 138 c 0
 493 82 466 42 430 18 c 0
 333 -47 201 12 122 130 c 2
 110 148 l 1
 128 159 l 1
 145 171 l 1
 157 153 l 2
 230 44 339 7 407 52 c 0
 434 70 455 102 470 150 c 0
 525 336 475 478 332 610 c 0
 294 645 238 620 188 564 c 0
 167 541 150 514 140 492 c 2
 132 473 l 1
 112 482 l 1
EndSplineSet
Validated: 37
Ligature2: "ltligs1" O I
EndChar

StartChar: lt_OK
Encoding: 332 -1 101
Width: 833
VWidth: 0
Flags: W
HStem: 22 43<509 691> 243 42<407.181 445.774> 640 20G<649.923 722.836>
LayerCount: 2
Fore
SplineSet
407 215 m 4
 409 196 420 187 427 188 c 4
 439 189 450 200 448 215 c 4
 446 233 432 245 417 243 c 4
 412 243 405 235 407 215 c 4
365 208 m 4
 362 235 370 283 413 285 c 4
 453 288 484 256 488 221 c 4
 493 186 468 149 429 147 c 4
 389 145 369 180 365 208 c 4
566 263 m 1
 582 293 l 1
 602 265 l 1
 748 60 l 1
 771 28 l 1
 732 28 l 1
 474 22 l 1
 440 22 l 1
 456 52 l 1
 566 263 l 1
587 214 m 1
 509 65 l 1
 691 68 l 1
 587 214 l 1
673 447 m 1
 652 452 l 1
 632 456 l 1
 638 477 l 1
 659 574 l 1
 89 18 l 1
 73 4 l 1
 59 18 l 1
 44 34 l 1
 60 48 l 1
 612 588 l 1
 509 562 l 1
 499 602 l 1
 525 608 l 1
 728 660 l 1
 673 447 l 1
EndSplineSet
Validated: 33
Ligature2: "ltligs1" O K
EndChar

StartChar: lt_OL
Encoding: 333 -1 102
Width: 833
VWidth: 0
Flags: W
HStem: -4 42<447.977 689.65> 498 42<267.181 304.214> 649 20G<362 392.556>
VStem: 348 41<123.917 322 368 596>
LayerCount: 2
Fore
SplineSet
266 468 m 4
 268 449 279 441 286 442 c 4
 298 443 309 455 307 470 c 4
 305 488 292 500 277 498 c 4
 272 498 264 488 266 468 c 4
225 463 m 4
 222 490 230 538 273 540 c 4
 313 543 344 510 348 475 c 4
 353 440 328 404 289 402 c 4
 249 400 229 435 225 463 c 4
389 331 m 1
 388 261 390 191 402 113 c 0
 412 51 492 40 588 38 c 0
 668 36 688 53 756 107 c 2
 772 119 l 1
 785 102 l 1
 798 87 l 1
 782 73 l 2
 714 19 677 -6 587 -4 c 0
 501 -2 377 3 361 107 c 0
 349 184 347 254 348 322 c 1
 102 452 l 1
 70 469 l 1
 101 488 l 1
 362 650 l 1
 392 669 l 1
 393 633 l 2
 396 523 392 433 390 346 c 1
 389 341 l 1
 389 331 l 1
348 368 m 1
 350 440 354 511 352 596 c 1
 153 472 l 1
 348 368 l 1
EndSplineSet
Validated: 37
Ligature2: "ltligs1" O L
EndChar

StartChar: lt_OM
Encoding: 334 -1 103
Width: 833
VWidth: 0
Flags: W
HStem: 8 42<198 677> 168 42<272.181 309.021> 178 41<427.371 649> 418 42<166 352.244> 639 20G<158 199>
VStem: 158 41<50 419 461 659> 165 34<419 460>
LayerCount: 2
Fore
SplineSet
271 140 m 4xd8
 273 121 283 112 290 113 c 4
 302 114 313 125 311 140 c 4
 309 158 297 170 282 168 c 4
 277 168 269 160 271 140 c 4xd8
230 133 m 4
 227 160 235 208 278 210 c 4
 318 213 348 181 352 146 c 4
 357 111 332 74 293 72 c 4
 253 70 234 105 230 133 c 4
165 440 m 1xba
 165 460 l 1
 185 461 l 2
 266 463 358 470 425 393 c 0
 430 387 433 380 435 372 c 0
 443 324 366 283 358 272 c 1
 441 210 496 227 632 219 c 2
 652 218 l 1
 651 198 l 1
 649 177 l 1
 628 178 l 2
 501 186 430 166 332 240 c 0
 324 247 317 255 315 266 c 0
 313 280 321 290 327 298 c 0
 350 328 390 354 393 365 c 0
 341 425 272 421 187 419 c 2
 166 418 l 1
 165 440 l 1xba
178 659 m 1
 199 659 l 1
 199 638 l 1
 199 639 200 638 199 638 c 1
 198 50 l 1
 657 53 l 1
 677 53 l 1
 678 32 l 1
 678 12 l 1
 657 12 l 1
 177 8 l 1
 156 8 l 1
 156 29 l 1
 158 638 l 1
 157 638 158 639 158 638 c 1
 158 659 l 1x9c
 178 659 l 1
EndSplineSet
Validated: 37
Ligature2: "ltligs1" O M
EndChar

StartChar: lt_ON
Encoding: 335 -1 104
Width: 835
VWidth: 0
Flags: W
HStem: 18 43<188 638> 200 42<394.181 431.214> 635 20G<677.212 696.362>
VStem: 656 40<268.727 552> 664 43<94 434.273>
LayerCount: 2
Fore
SplineSet
393 171 m 4xe0
 395 152 406 143 413 144 c 4
 425 145 435 157 433 172 c 4
 431 190 418 202 403 200 c 4
 398 200 391 191 393 171 c 4xe0
352 165 m 4
 349 192 357 240 400 242 c 4
 440 245 471 213 475 178 c 4
 480 143 455 105 416 103 c 4
 376 101 356 137 352 165 c 4
638 61 m 1
 416 298 l 1
 188 57 l 1
 638 61 l 1
656 552 m 1xf0
 445 329 l 1
 664 94 l 1xe8
 656 552 l 1xf0
417 358 m 1
 696 655 l 1xf0
 707 48 l 1
 707 18 l 1
 685 18 l 1
 666 18 l 1
 91 13 l 1
 388 328 l 1
 131 604 l 1
 161 632 l 1
 417 358 l 1
EndSplineSet
Validated: 33
Ligature2: "ltligs1" O N
EndChar

StartChar: lt_OP
Encoding: 336 -1 105
Width: 833
VWidth: 0
Flags: W
HStem: 484 42<388.188 426.752>
VStem: 192 42<82.3125 195.7>
LayerCount: 2
Fore
SplineSet
388 456 m 4
 390 437 400 428 407 429 c 4
 419 430 430 442 428 457 c 4
 426 475 413 486 398 484 c 4
 393 484 386 476 388 456 c 4
347 449 m 4
 344 476 351 524 394 526 c 4
 434 529 465 497 469 462 c 4
 474 427 449 390 410 388 c 4
 370 386 351 421 347 449 c 4
215 366 m 1
 643 327 l 1
 640 285 l 1
 210 324 l 1
 215 366 l 1
194 531 m 1
 180 546 l 1
 194 560 l 1
 193 559 195 560 194 560 c 1
 261 625 345 669 452 650 c 0
 482 644 515 633 545 616 c 0
 601 585 662 526 625 460 c 0
 577 375 491 359 418 307 c 0
 321 239 229 218 233 128 c 0
 233 126 234 124 234 122 c 0
 242 62 333 29 415 39 c 0
 499 49 552 113 604 190 c 2
 616 207 l 1
 633 196 l 1
 651 184 l 1
 639 167 l 2
 587 90 524 11 420 -2 c 0
 335 -12 204 15 192 117 c 0
 191 119 192 124 192 126 c 0
 185 251 313 285 393 341 c 0
 478 400 550 414 588 482 c 0
 605 513 581 548 525 579 c 0
 499 594 469 604 445 608 c 0
 356 625 285 589 223 530 c 2
 208 515 l 1
 194 531 l 1
EndSplineSet
Validated: 37
Ligature2: "ltligs1" O P
EndChar

StartChar: lt_OQ
Encoding: 337 -1 106
Width: 833
VWidth: 0
Flags: W
HStem: 430 42<512.181 549.214> 653 20G<622 643>
VStem: 205 42<-13 297 338 443> 222 30<298 338> 602 41<308 672>
LayerCount: 2
Fore
SplineSet
512 402 m 4xc8
 514 383 525 374 532 375 c 4
 544 376 554 387 552 402 c 4
 550 420 537 432 522 430 c 4
 517 430 510 422 512 402 c 4xc8
470 395 m 4
 467 422 475 470 518 472 c 4
 558 475 589 443 593 408 c 4
 598 373 573 335 534 333 c 4
 494 331 474 367 470 395 c 4
435 424 m 1
 431 404 l 1
 410 409 l 1
 252 443 l 1xd8
 247 7 l 1
 247 -14 l 1
 226 -13 l 1
 205 -13 l 1
 205 8 l 1
 205 9 204 8 205 8 c 1xe8
 211 470 l 1
 211 496 l 1
 236 490 l 1
 419 449 l 1
 440 445 l 1
 435 424 l 1
622 672 m 1
 643 673 l 1
 643 652 l 1
 648 286 l 1
 648 263 l 1
 625 265 l 1
 242 297 l 1
 222 298 l 1
 223 319 l 1
 225 340 l 1
 246 338 l 1
 606 308 l 1
 602 652 l 1
 602 672 l 1
 622 672 l 1
EndSplineSet
Validated: 37
Ligature2: "ltligs1" O Q
EndChar

StartChar: lt_OR
Encoding: 338 -1 107
Width: 833
VWidth: 0
Flags: W
HStem: 1 40<494.7 546.43> 388 42<176.188 213.407> 651 20G<318 346 486 512>
VStem: 65 42<246.734 444.111> 697 41<121.659 206.263 450.006 536.998>
LayerCount: 2
Fore
SplineSet
176 360 m 4
 178 341 188 332 195 333 c 4
 207 334 218 345 216 360 c 4
 214 378 201 390 186 388 c 4
 181 388 174 380 176 360 c 4
135 353 m 4
 132 380 139 428 182 430 c 4
 222 433 254 401 258 366 c 4
 263 331 237 294 198 292 c 4
 158 290 139 325 135 353 c 4
486 652 m 1
 493 671 l 1
 512 664 l 2
 600 632 737 605 739 482 c 0
 741 376 539 350 532 340 c 1
 540 324 738 278 738 168 c 0
 738 56 593 29 515 7 c 2
 495 1 l 1
 489 21 l 1
 483 41 l 1
 503 47 l 1
 595 74 697 100 697 168 c 0
 697 248 489 254 489 340 c 0
 489 431 700 407 698 481 c 0
 696 566 599 589 498 624 c 2
 479 632 l 1
 486 652 l 1
346 654 m 1
 356 636 l 1
 337 627 l 2
 209 561 105 484 107 348 c 0
 109 200 206 115 348 50 c 2
 366 41 l 1
 357 22 l 1
 348 3 l 1
 330 12 l 2
 183 80 67 179 65 348 c 0
 63 510 190 597 318 663 c 2
 337 673 l 1
 346 654 l 1
EndSplineSet
Validated: 33
Ligature2: "ltligs1" O R
EndChar

StartChar: lt_OS
Encoding: 339 -1 108
Width: 833
VWidth: 0
Flags: W
HStem: 270 42<119 412.462> 283 42<412.462 667> 338 42<670.66 709.021> 438 41<496.175 533.214> 668 20G<393 414.875>
VStem: 393 42<15 592> 400 42<-7 592>
LayerCount: 2
Fore
SplineSet
495 408 m 4x38
 497 389 508 381 515 382 c 4
 527 383 537 395 535 410 c 4
 533 428 520 440 505 438 c 4
 500 438 493 428 495 408 c 4x38
453 402 m 4
 450 429 459 477 502 479 c 4
 542 482 573 450 577 415 c 4
 582 380 557 343 518 341 c 4
 478 339 457 374 453 402 c 4
671 310 m 0
 673 291 683 282 690 283 c 0x78
 702 284 713 295 711 310 c 0
 709 328 696 340 681 338 c 0
 676 338 669 330 671 310 c 0
629 303 m 0
 626 330 635 378 678 380 c 0
 718 383 748 351 752 316 c 0
 757 281 732 244 693 242 c 0
 653 240 633 275 629 303 c 0
119 291 m 1
 118 312 l 1
 140 312 l 1
 139 312 140 311 140 312 c 1xb8
 646 325 l 1
 667 326 l 1
 668 305 l 1
 668 284 l 1
 648 283 l 1x78
 140 271 l 1
 140 272 139 271 140 271 c 1
 119 270 l 1xb8
 119 291 l 1
421 -7 m 1
 400 -7 l 1
 400 14 l 1x3a
 393 640 l 1
 393 688 l 1
 428 656 l 1
 640 464 l 1
 656 450 l 1
 641 434 l 1
 627 418 l 1
 612 432 l 1
 435 592 l 1x3c
 442 15 l 1
 442 -7 l 1x3a
 421 -7 l 1
EndSplineSet
Validated: 37
Ligature2: "ltligs1" O S
EndChar

StartChar: lt_OT
Encoding: 340 -1 109
Width: 833
VWidth: 0
Flags: W
HStem: 453 41<499.181 536.214> 533 46<238 402 404 440 443 584> 633 43<394 443>
VStem: 392 42<-8 436.667> 401 41<194 579>
LayerCount: 2
Fore
SplineSet
498 424 m 4xe0
 500 405 511 397 518 398 c 4
 530 399 541 411 539 426 c 4
 537 444 523 455 508 453 c 4
 503 453 496 444 498 424 c 4xe0
457 418 m 4
 454 445 462 492 505 494 c 4
 545 497 576 466 580 431 c 4
 585 396 560 359 521 357 c 4
 481 355 461 390 457 418 c 4
413 -8 m 1
 392 -8 l 1
 392 12 l 1xf0
 401 558 l 1
 402 579 l 1
 422 579 l 1
 443 579 l 1
 442 558 l 1xe8
 434 12 l 1
 434 -8 l 1xf0
 413 -8 l 1
189 485 m 1
 170 494 l 1
 180 513 l 1
 207 564 l 1
 212 575 l 1
 225 575 l 1
 593 578 l 1
 604 578 l 1
 611 570 l 1
 649 519 l 1
 662 502 l 1
 645 490 l 1
 628 478 l 1
 616 494 l 1
 584 537 l 1
 238 533 l 1
 217 493 l 1
 207 475 l 1
 189 485 l 1
420 595 m 1
 443 633 l 1
 394 633 l 1
 420 595 l 1
404 545 m 1
 338 642 l 1
 316 673 l 1
 355 674 l 1
 480 676 l 1
 517 677 l 1
 498 644 l 1
 440 546 l 1
 423 518 l 1
 404 545 l 1
EndSplineSet
Validated: 37
Ligature2: "ltligs1" O T
EndChar

StartChar: lt_OU
Encoding: 341 -1 110
Width: 833
VWidth: 0
Flags: W
HStem: 302 42<443.158 688.435> 485 42<328.181 365.214> 596 42<221.688 619.521> 628 41<125 141>
LayerCount: 2
Fore
SplineSet
328 457 m 4xc0
 330 438 341 429 348 430 c 4
 360 431 370 442 368 457 c 4
 366 475 353 487 338 485 c 4
 333 485 326 477 328 457 c 4xc0
286 450 m 4
 283 477 291 525 334 527 c 4
 374 530 405 497 409 462 c 4
 414 427 389 390 350 388 c 4
 310 386 290 422 286 450 c 4
123 648 m 1
 125 669 l 1xd0
 146 668 l 2
 258 656 317 640 427 638 c 0
 522 636 576 651 675 659 c 2
 727 663 l 1
 692 624 l 2
 592 511 503 468 441 357 c 1
 487 350 535 346 592 344 c 0
 646 342 672 359 733 383 c 2
 752 391 l 1
 760 372 l 1
 768 352 l 1
 748 345 l 2
 692 323 657 300 591 302 c 0
 527 304 473 311 422 318 c 1
 379 217 418 156 427 33 c 2
 432 -37 l 1
 381 16 l 1
 112 375 l 1
 82 415 l 1
 132 408 l 2
 238 393 316 376 398 363 c 1
 458 479 539 529 623 612 c 1
 559 604 506 594 427 596 c 0xe0
 313 598 250 614 141 626 c 2
 120 628 l 1xd0
 123 648 l 1
379 324 m 1
 314 334 253 348 176 360 c 1
 383 78 l 1
 371 151 347 239 379 324 c 1
EndSplineSet
Validated: 33
Ligature2: "ltligs1" O U
EndChar

StartChar: lt_OV
Encoding: 342 -1 111
Width: 833
VWidth: 0
Flags: W
HStem: 374 41<302.181 339.214> 658 20G<539 564.154>
LayerCount: 2
Fore
SplineSet
302 345 m 0
 304 326 315 317 322 318 c 0
 334 319 344 332 342 347 c 0
 340 365 327 376 312 374 c 0
 307 374 300 365 302 345 c 0
260 340 m 0
 257 367 265 413 308 415 c 0
 348 418 379 387 383 352 c 0
 388 317 363 279 324 277 c 0
 284 275 264 312 260 340 c 0
569 652 m 1
 561 642 l 2
 483 542 404 407 406 353 c 0
 408 293 454 134 572 24 c 2
 578 18 l 1
 562 -14 l 1
 552 -11 l 2
 345 47 238 186 231 352 c 0
 224 511 361 619 539 675 c 2
 548 678 l 1
 569 652 l 1
487 612 m 1
 350 554 267 466 272 354 c 0
 277 227 346 121 485 58 c 1
 400 168 366 291 364 352 c 0
 362 419 423 522 487 612 c 1
EndSplineSet
Validated: 37
Ligature2: "ltligs1" O V
EndChar

StartChar: lt_OW
Encoding: 343 -1 112
Width: 833
VWidth: 0
Flags: W
HStem: 110 42<141 703> 454 42<389.188 426.214> 502 42<142 705> 665 20G<398.276 422.857>
LayerCount: 2
Fore
SplineSet
388 425 m 4
 390 406 401 397 408 398 c 4
 420 399 430 412 428 427 c 4
 426 445 413 456 398 454 c 4
 393 454 386 445 388 425 c 4
348 419 m 4
 345 446 352 494 395 496 c 4
 435 499 466 467 470 432 c 4
 475 397 449 360 410 358 c 4
 370 356 352 391 348 419 c 4
452 -2 m 1
 435 -31 l 1
 418 -2 l 1
 87 512 l 1
 66 544 l 1
 104 544 l 1
 742 545 l 1
 778 545 l 1
 760 513 l 1
 452 -2 l 1
434 48 m 1
 705 503 l 1
 142 502 l 1
 434 48 l 1
393 656 m 1
 410 685 l 1
 428 657 l 1
 759 142 l 1
 780 110 l 1
 742 110 l 1
 104 109 l 1
 68 109 l 1
 86 141 l 1
 393 656 l 1
412 606 m 1
 141 151 l 1
 703 152 l 1
 412 606 l 1
EndSplineSet
Validated: 37
Ligature2: "ltligs1" O W
EndChar

StartChar: lt_OX
Encoding: 344 -1 113
Width: 833
VWidth: 0
Flags: W
HStem: 98 40<266.938 324.214> 505 42<307.181 345.774> 623 20G<698 718>
VStem: 125 42<542.333 594.781> 266 42<98 306.978> 677 41<163.889 642> 685 42<12 491.111>
LayerCount: 2
Fore
SplineSet
307 477 m 4xf8
 309 458 320 449 327 450 c 4
 339 451 350 462 348 477 c 4
 346 495 332 507 317 505 c 4
 312 505 305 497 307 477 c 4xf8
265 470 m 4
 262 497 270 545 313 547 c 4
 353 550 384 517 388 482 c 4
 393 447 368 410 329 408 c 4
 289 406 269 442 265 470 c 4
698 642 m 1
 718 643 l 1
 718 622 l 1xfc
 727 33 l 1
 727 12 l 1
 707 12 l 1
 685 12 l 1
 685 33 l 1xfa
 677 622 l 1
 677 642 l 1xfc
 698 642 l 1
287 98 m 1
 266 98 l 1
 267 118 l 2
 269 180 241 235 275 307 c 0
 332 429 469 413 448 498 c 0
 426 585 327 578 212 599 c 0
 209 600 204 600 199 599 c 0
 177 595 165 578 167 564 c 2
 170 543 l 1
 149 540 l 1
 129 536 l 1
 125 557 l 2
 117 602 156 633 192 640 c 0
 201 642 209 642 219 640 c 0
 317 622 457 631 488 508 c 0
 517 390 345 358 313 290 c 0
 287 235 310 196 308 118 c 2
 308 97 l 1
 287 98 l 1
287 68 m 0
 289 49 300 41 307 42 c 0
 319 43 329 53 327 68 c 0
 325 86 313 99 298 97 c 0
 293 97 285 88 287 68 c 0
245 62 m 0
 242 89 250 136 293 138 c 0
 333 141 364 109 368 74 c 0
 373 39 348 2 309 0 c 0
 269 -2 249 34 245 62 c 0
EndSplineSet
Validated: 37
Ligature2: "ltligs1" O X
EndChar

StartChar: lt_OY
Encoding: 345 -1 114
Width: 833
VWidth: 0
Flags: W
HStem: -2 41<337.357 513.92> 464 42<410.181 447.214> 528 41<361.967 490.296> 652 20G<409 436>
VStem: 160 42<184.237 375.094> 664 42<189.772 380.905>
LayerCount: 2
Fore
SplineSet
409 435 m 4
 411 416 421 408 428 409 c 4
 440 410 451 421 449 436 c 4
 447 454 434 466 419 464 c 4
 414 464 407 455 409 435 c 4
368 429 m 4
 365 456 373 504 416 506 c 4
 456 509 487 477 491 442 c 4
 496 407 471 370 432 368 c 4
 392 366 372 401 368 429 c 4
260 478 m 1
 247 493 l 1
 262 508 l 1
 409 660 l 1
 422 672 l 1
 436 661 l 1
 593 511 l 1
 610 498 l 1
 598 482 l 1
 584 466 l 1
 568 478 l 1
 424 618 l 1
 290 478 l 1
 275 463 l 1
 260 478 l 1
423 528 m 0
 302 530 205 410 202 282 c 0
 200 160 298 41 416 39 c 0
 552 37 660 143 664 280 c 0
 668 415 559 526 423 528 c 0
423 569 m 0
 581 567 710 438 706 278 c 0
 702 120 574 -4 415 -2 c 0
 269 0 157 140 160 282 c 0
 163 426 272 571 423 569 c 0
EndSplineSet
Validated: 37
Ligature2: "ltligs1" O Y
EndChar

StartChar: lt_OZ
Encoding: 346 -1 115
Width: 833
VWidth: 0
Flags: W
HStem: 365 42<486.181 524.986> 624 41G<131.5 135 529 558>
VStem: 404 42<224.094 445.913>
LayerCount: 2
Fore
SplineSet
486 336 m 4
 488 317 499 309 506 310 c 4
 518 311 529 323 527 338 c 4
 525 356 511 367 496 365 c 4
 491 365 484 356 486 336 c 4
444 331 m 4
 441 358 449 405 492 407 c 4
 532 410 564 377 568 342 c 4
 573 307 547 270 508 268 c 4
 468 266 448 303 444 331 c 4
558 632 m 1
 575 619 l 1
 562 602 l 2
 484 494 442 434 446 313 c 0
 450 196 505 144 583 39 c 2
 596 22 l 1
 579 10 l 1
 562 -2 l 1
 550 14 l 2
 473 116 408 180 404 312 c 0
 400 446 451 520 529 627 c 2
 541 644 l 1
 558 632 l 1
713 330 m 1
 118 2 l 1
 111 14 105 26 98 38 c 1
 275 136 451 234 628 332 c 1
 115 629 l 1
 122 641 128 653 135 665 c 1
 135 665 526 438 713 330 c 1
EndSplineSet
Validated: 37
Ligature2: "ltligs1" O Z
EndChar

StartChar: ltd14
Encoding: 347 -1 116
Width: 833
VWidth: 0
Flags: W
HStem: 293 90
LayerCount: 2
Fore
SplineSet
114 383 m 1
 732 335 l 1
 728 293 l 1
 110 342 l 1
 114 383 l 1
EndSplineSet
Validated: 1
EndChar

StartChar: lt_RX
Encoding: 348 -1 117
Width: 833
VWidth: 833
Flags: W
HStem: 1 40<591.75 640.297> 85 42<204 257.25> 651 20G<584 610>
VStem: 204 42<86 281.018> 487 41<97.125 580> 494 42<10 493.875> 732 42<102.632 212.371 441.849 557.828>
LayerCount: 2
Fore
SplineSet
508 581 m 5xfa
 527 581 l 5
 528 581 l 5
 528 578 l 5
 528 560 l 5xfa
 536 31 l 5
 536 12 l 5
 536 10 l 5
 534 10 l 5
 515 9 l 5
 497 9 l 5
 494 9 l 5
 494 10 l 5
 494 11 l 5
 494 30 l 5xf6
 487 559 l 5
 487 578 l 5
 487 580 l 5
 489 580 l 5
 508 581 l 5xfa
225 85 m 1
 207 86 l 1
 204 86 l 1
 204 88 l 1
 205 107 l 2
 207 162 180 212 212 277 c 0
 264 389 386 374 368 448 c 0
 350 524 263 520 158 538 c 0
 156 539 151 539 147 538 c 0
 129 535 116 519 118 508 c 2
 122 490 l 1
 122 488 l 1
 120 487 l 1
 102 483 l 1
 83 480 l 1
 82 480 l 1
 81 482 l 1
 77 500 l 2
 69 542 107 571 139 578 c 0
 147 580 156 580 165 578 c 0
 253 562 380 571 408 458 c 0
 435 350 277 319 250 260 c 0
 227 212 249 177 247 106 c 2
 246 87 l 1
 246 85 l 1
 243 85 l 1
 225 85 l 1
227 61 m 0
 229 44 238 40 242 40 c 0
 252 41 261 50 259 62 c 0
 257 77 246 87 234 85 c 0
 232 85 225 79 227 61 c 0
185 56 m 0
 182 79 190 125 231 127 c 0
 269 130 296 100 300 68 c 0
 304 35 281 0 245 -2 c 0
 207 -4 188 31 185 56 c 0
584 652 m 1
 591 671 l 1
 610 664 l 2
 698 632 773 605 775 482 c 0
 777 376 635 350 628 340 c 1
 636 324 774 278 774 168 c 0
 774 56 690 29 612 7 c 2
 592 1 l 1
 587 21 l 1
 582 41 l 1
 601 47 l 1
 693 74 732 100 732 168 c 0
 732 248 587 254 587 340 c 0
 587 431 735 407 733 481 c 0
 731 566 698 589 597 624 c 2
 577 632 l 1
 584 652 l 1
EndSplineSet
Validated: 37
Ligature2: "ltligs1" R X
EndChar

StartChar: lt_SP
Encoding: 349 -1 118
Width: 833
VWidth: 833
Flags: W
HStem: 270 42<48 400.308> 283 42<400.308 707> 338 42<709.713 749.021>
VStem: 192 42<82.3125 195.7>
LayerCount: 2
Fore
SplineSet
194 531 m 1x30
 180 546 l 1
 194 560 l 1
 193 559 195 560 194 560 c 1
 261 625 345 669 452 650 c 0
 482 644 515 633 545 616 c 0
 601 585 662 526 625 460 c 0
 577 375 491 359 418 307 c 0
 321 239 229 218 233 128 c 0
 233 126 234 124 234 122 c 0
 242 62 333 29 415 39 c 0
 499 49 552 113 604 190 c 2
 616 207 l 1
 633 196 l 1
 651 184 l 1
 639 167 l 2
 587 90 524 11 420 -2 c 0
 335 -12 204 15 192 117 c 0
 191 119 192 124 192 126 c 0
 185 251 313 285 393 341 c 0
 478 400 550 414 588 482 c 0
 605 513 581 548 525 579 c 0
 499 594 469 604 445 608 c 0
 356 625 285 589 223 530 c 2
 208 515 l 1
 194 531 l 1x30
710 310 m 0
 712 291 724 282 731 283 c 0x70
 743 284 753 295 751 310 c 0
 749 328 736 340 721 338 c 0
 716 338 708 330 710 310 c 0
669 303 m 0
 666 330 675 378 718 380 c 0
 758 383 788 351 792 316 c 0
 797 281 772 244 733 242 c 0
 693 240 673 275 669 303 c 0
47 291 m 1
 46 312 l 1
 67 312 l 1
 66 312 67 311 67 312 c 1xb0
 686 325 l 1
 707 326 l 1
 708 305 l 1
 708 284 l 1
 688 283 l 1x70
 68 271 l 1
 68 272 67 271 68 271 c 1
 48 270 l 1xb0
 47 291 l 1
EndSplineSet
Validated: 37
Ligature2: "ltligs1" S P
EndChar

StartChar: lt_PS
Encoding: 350 -1 119
Width: 833
VWidth: 833
Flags: W
HStem: 300 42<119 393> 312 42<394 667> 368 41<670.68 709.021> 668 20G<393 414.875>
VStem: 393 42<15 592> 400 42<-7 592>
LayerCount: 2
Fore
SplineSet
671 339 m 4x70
 673 320 683 311 690 312 c 4
 702 313 713 325 711 340 c 4
 709 358 696 370 681 368 c 4
 676 368 669 359 671 339 c 4x70
629 332 m 4
 626 359 635 407 678 409 c 4
 718 412 748 380 752 345 c 4
 757 310 732 273 693 271 c 4
 653 269 633 304 629 332 c 4
119 320 m 5
 118 341 l 5
 140 342 l 5
 139 342 140 341 140 342 c 5xb0
 646 354 l 5
 667 355 l 5
 668 334 l 5
 668 313 l 5
 648 312 l 5x70
 140 300 l 5
 140 301 139 300 140 300 c 5xb0
 119 299 l 5
 119 320 l 5
421 -7 m 1
 400 -7 l 1
 400 14 l 1x34
 393 640 l 1
 393 688 l 1
 428 656 l 1
 640 464 l 1
 656 450 l 1
 641 434 l 1
 627 418 l 1
 612 432 l 1
 435 592 l 1x38
 442 15 l 1
 442 -7 l 1x34
 421 -7 l 1
114 268 m 1
 732 219 l 1
 728 178 l 1
 110 226 l 1
 114 268 l 1
EndSplineSet
Validated: 37
Ligature2: "ltligs1" P S
EndChar

StartChar: lt_PH
Encoding: 351 -1 120
Width: 833
VWidth: 833
Flags: W
HStem: 632 20G<627 655>
LayerCount: 2
Fore
SplineSet
655 633 m 1
 665 615 l 1
 646 606 l 2
 523 544 412 490 429 422 c 0
 442 367 667 417 677 302 c 0
 689 167 559 109 452 38 c 2
 435 26 l 1
 423 43 l 1
 412 60 l 1
 430 72 l 2
 547 150 644 197 635 298 c 0
 628 367 419 285 389 412 c 0
 362 527 520 589 627 643 c 2
 646 652 l 1
 655 633 l 1
406 598 m 1
 415 580 l 1
 396 570 l 2
 273 508 162 454 179 386 c 0
 192 331 417 381 427 266 c 0
 439 131 309 73 202 2 c 1
 203 2 203 3 202 2 c 1
 185 -9 l 1
 174 8 l 1
 162 26 l 1
 180 37 l 2
 297 115 394 161 385 262 c 0
 378 331 169 250 139 377 c 0
 112 492 270 554 377 608 c 2
 396 617 l 1
 406 598 l 1
114 277 m 5
 732 228 l 5
 728 187 l 5
 110 235 l 5
 114 277 l 5
EndSplineSet
Validated: 37
Ligature2: "ltligs1" P H
EndChar

StartChar: lt_PG
Encoding: 352 -1 121
Width: 833
VWidth: 833
Flags: W
HStem: 662 20G<142 169 598.5 603>
VStem: 603 44<600.909 655>
LayerCount: 2
Fore
SplineSet
81 240 m 2
 179 262 276 295 367 318 c 0
 371 320 386 325 388 328 c 0
 391 333 414 345 417 350 c 0
 420 355 414 352 418 357 c 1
 408 354 382 350 372 348 c 0
 210 326 177 531 131 648 c 2
 123 668 l 1
 142 675 l 1
 162 682 l 1
 169 663 l 2
 223 524 250 367 365 383 c 0
 420 391 491 443 538 511 c 0
 578 568 594 637 603 655 c 1
 603 655 647 673 647 652 c 0
 647 635 644 645 642 638 c 0
 640 636 639 632 637 627 c 0
 602 545 567 486 535 442 c 0
 502 396 470 364 444 335 c 1
 535 351 623 350 697 307 c 0
 760 270 744 187 709 127 c 0
 686 87 651 50 608 27 c 0
 524 -18 370 -15 325 70 c 0
 317 86 313 107 315 127 c 0
 321 189 331 233 349 270 c 1
 267 248 181 220 90 200 c 2
 69 195 l 1
 65 215 l 1
 60 236 l 1
 81 240 l 2
81 240 m 1
 82 240 80 240 81 240 c 1
405 284 m 0
 403 282 401 278 399 276 c 0
 377 241 363 195 356 122 c 0
 354 109 357 99 362 90 c 0
 389 39 514 23 588 63 c 0
 623 81 653 114 673 148 c 0
 707 206 704 254 675 272 c 0
 607 312 522 310 422 288 c 0
 416 286 411 286 405 284 c 0
114 473 m 5
 732 425 l 5
 728 383 l 5
 110 432 l 5
 114 473 l 5
EndSplineSet
Validated: 37
Ligature2: "ltligs1" P G
EndChar

StartChar: lt_PQ
Encoding: 353 -1 122
Width: 833
VWidth: 833
Flags: W
HStem: 653 20G<622 643>
VStem: 205 42<-13 297 338 443> 222 30<298 338> 602 41<308 672>
LayerCount: 2
Fore
SplineSet
435 424 m 1xd0
 431 404 l 1
 410 409 l 1
 252 443 l 1xb0
 247 7 l 1
 247 -14 l 1
 226 -13 l 1
 205 -13 l 1
 205 8 l 1
 205 9 204 8 205 8 c 1
 211 470 l 1
 211 496 l 1
 236 490 l 1
 419 449 l 1
 440 445 l 1
 435 424 l 1xd0
622 672 m 1
 643 673 l 1
 643 652 l 1
 648 286 l 1
 648 263 l 1
 625 265 l 1
 242 297 l 1
 222 298 l 1
 223 319 l 1
 225 340 l 1
 246 338 l 1
 606 308 l 1
 602 652 l 1
 602 672 l 1
 622 672 l 1
106 419 m 5
 724 371 l 5
 720 329 l 5
 102 378 l 5
 106 419 l 5
EndSplineSet
Validated: 5
Ligature2: "ltligs1" P Q
EndChar

StartChar: lt_PE
Encoding: 354 -1 123
Width: 833
VWidth: 833
Flags: W
HStem: -12 41<143 200 201 298>
VStem: 201 41<-7 175.147> 455 40<44.25 98.0972>
LayerCount: 2
Fore
SplineSet
537 160 m 1
 540 155 l 1
 535 152 l 2
 534 148 534 145 532 142 c 0
 522 111 508 88 500 56 c 2
 495 35 l 1
 475 41 l 1
 455 46 l 1
 460 66 l 2
 467 89 475 107 482 124 c 1
 459 112 420 94 392 128 c 0
 351 180 417 230 447 249 c 0
 455 254 461 256 469 258 c 0
 496 261 534 248 539 212 c 0
 541 193 540 176 537 160 c 1
498 182 m 0
 499 190 500 198 498 207 c 0
 497 210 489 219 476 217 c 0
 474 216 470 215 468 214 c 0
 430 190 415 165 424 154 c 0
 432 144 445 153 490 177 c 0
 492 179 496 180 498 182 c 0
209 343 m 1
 207 241 238 147 242 14 c 1
 241 14 242 13 242 14 c 1
 242 -7 l 1
 222 -8 l 1
 201 -8 l 1
 200 12 l 2
 196 147 161 243 168 365 c 0
 170 400 175 437 185 478 c 0
 209 570 277 669 385 651 c 0
 398 649 412 645 427 641 c 0
 529 613 683 538 650 415 c 0
 604 246 347 330 209 343 c 1
211 385 m 1
 378 369 578 307 610 426 c 0
 631 504 524 572 416 601 c 0
 403 604 390 608 378 610 c 0
 305 623 249 554 226 468 c 0
 218 439 213 412 211 385 c 1
143 8 m 1
 143 29 l 1
 165 29 l 1
 277 28 l 1
 298 27 l 1
 298 7 l 1
 298 -15 l 1
 277 -14 l 1
 164 -12 l 1
 143 -12 l 1
 143 8 l 1
68 232 m 5
 686 184 l 5
 682 142 l 5
 64 191 l 5
 68 232 l 5
EndSplineSet
Validated: 37
Ligature2: "ltligs1" P E
EndChar

StartChar: lt_PU
Encoding: 355 -1 124
Width: 833
VWidth: 833
Flags: W
HStem: 302 42<443.158 688.435> 596 42<221.688 619.521> 628 41<125 141>
LayerCount: 2
Fore
SplineSet
123 648 m 1xa0
 125 669 l 1xa0
 146 668 l 2
 258 656 317 640 427 638 c 0
 522 636 576 651 675 659 c 2
 727 663 l 1
 692 624 l 2
 592 511 503 468 441 357 c 1
 487 350 535 346 592 344 c 0
 646 342 672 359 733 383 c 2
 752 391 l 1
 760 372 l 1
 768 352 l 1
 748 345 l 2
 692 323 657 300 591 302 c 0
 527 304 473 311 422 318 c 1
 379 217 418 156 427 33 c 2
 432 -37 l 1
 381 16 l 1
 112 375 l 1
 82 415 l 1
 132 408 l 2
 238 393 316 376 398 363 c 1
 458 479 539 529 623 612 c 1
 559 604 506 594 427 596 c 0xc0
 313 598 250 614 141 626 c 2
 120 628 l 1
 123 648 l 1xa0
379 324 m 1
 314 334 253 348 176 360 c 1
 383 78 l 1
 371 151 347 239 379 324 c 1
132 548 m 5
 752 499 l 5
 748 458 l 5
 129 506 l 5
 132 548 l 5
EndSplineSet
Validated: 37
Ligature2: "ltligs1" P U
EndChar

StartChar: lt_MA
Encoding: 356 -1 125
Width: 833
VWidth: 0
Flags: W
HStem: -2 42<158 684> 82 41<435.22 559.667> 471 41<395.313 437.094> 603 42<231.493 310.818 531.384 594.327>
LayerCount: 2
Fore
SplineSet
402 413 m 1
 418 433 l 1
 433 413 l 1
 743 32 l 1
 772 -2 l 1
 728 -2 l 1
 114 -2 l 1
 71 -2 l 1
 98 32 l 1
 402 413 l 1
418 367 m 1
 158 40 l 1
 684 39 l 1
 418 367 l 1
140 482 m 1
 122 493 l 1
 132 512 l 2
 164 567 197 647 285 645 c 0
 387 643 375 513 414 512 c 0
 444 511 473 644 551 641 c 0
 630 637 667 567 708 512 c 2
 720 496 l 1
 703 483 l 1
 687 471 l 1
 674 488 l 2
 628 550 601 597 549 599 c 0
 524 601 494 469 412 471 c 0
 316 473 336 601 284 603 c 0
 228 605 207 555 168 490 c 2
 158 472 l 1
 140 482 l 1
297 223 m 5
 296 233 l 5
 296 243 l 5
 307 243 l 5
 317 244 l 6
 357 246 407 250 444 207 c 4
 447 203 451 198 452 191 c 4
 456 166 431 148 421 140 c 5
 427 137 429 134 434 132 c 4
 460 122 488 126 541 123 c 6
 552 123 l 5
 562 122 l 5
 561 112 l 5
 560 102 l 5
 560 91 l 5
 559 81 l 5
 548 82 l 5
 538 82 l 6
 490 84 456 79 418 94 c 4
 406 99 396 106 384 115 c 4
 378 119 373 126 372 135 c 4
 370 146 376 155 379 159 c 4
 387 170 400 179 407 185 c 5
 385 204 357 204 318 202 c 6
 308 202 l 5
 298 202 l 5
 297 212 l 5
 297 223 l 5
EndSplineSet
Validated: 37
Ligature2: "ltligs1" M A
EndChar

StartChar: lt_MB
Encoding: 357 -1 126
Width: 833
VWidth: 0
Flags: W
HStem: 22 41<461.655 633.683> 193 42<268.777 407> 315 42<144 253.964>
VStem: 143 12<314 356> 393 41<398.327 503.05> 414 42<258.768 302> 640 41<63.6001 134.176>
LayerCount: 2
Fore
SplineSet
143 335 m 1xf2
 143 345 l 1
 143 356 l 1
 153 357 l 1
 164 357 l 2
 204 359 255 361 292 318 c 0
 295 314 299 309 300 302 c 0
 304 277 278 260 268 252 c 1
 274 249 277 247 282 245 c 0
 308 235 335 238 388 235 c 2
 398 235 l 1
 409 234 l 1
 408 223 l 1
 408 213 l 1
 407 202 l 1
 407 192 l 1
 396 193 l 1
 385 193 l 2
 337 195 305 192 267 207 c 0
 255 212 244 218 232 227 c 0
 226 231 220 239 219 248 c 0
 217 259 224 267 227 271 c 0
 235 282 248 292 255 298 c 1
 233 317 204 317 165 315 c 2
 155 315 l 1
 144 314 l 1
 144 324 l 1
 143 335 l 1xf2
413 505 m 5
 434 508 l 5xfa
 437 488 l 6
 446 421 450 380 478 382 c 4
 510 385 511 448 509 499 c 6
 509 504 l 5
 550 501 l 6
 556 500 560 448 562 436 c 4
 581 354 581 298 529 227 c 4
 519 213 503 209 490 210 c 4
 457 212 411 246 414 285 c 6
 415 306 l 5
 436 303 l 5
 457 302 l 5
 456 282 l 6xf6
 457 275 482 250 494 252 c 4
 495 252 495 252 495 252 c 4
 527 297 538 354 534 397 c 5
 524 382 504 343 482 341 c 4
 401 333 403 439 396 482 c 6
 393 502 l 5xfa
 413 505 l 5
648 552 m 1
 630 540 l 1
 618 557 l 2
 600 582 572 620 558 619 c 0
 393 609 300 622 209 529 c 0
 140 458 154 429 155 332 c 0
 156 233 145 159 217 87 c 0
 307 -4 425 53 627 63 c 1
 633 73 638 105 640 120 c 2
 643 141 l 1
 664 138 l 1
 684 133 l 1
 681 113 l 2
 680 106 681 24 633 22 c 0
 445 13 301 -57 187 58 c 0
 102 144 114 238 113 331 c 0
 112 424 96 473 179 558 c 0
 292 674 404 654 559 661 c 0
 601 663 634 607 652 582 c 2
 664 564 l 1
 648 552 l 1
EndSplineSet
Validated: 37
Ligature2: "ltligs1" M B
EndChar

StartChar: lt_MC
Encoding: 358 -1 127
Width: 833
VWidth: 0
Flags: W
HStem: 3 42<143 683> 140 42<401.551 538.667> 628 42<402.175 439.021>
LayerCount: 2
Fore
SplineSet
277 282 m 5
 276 292 l 5
 276 302 l 5
 286 302 l 5
 297 302 l 6
 337 304 387 308 424 265 c 4
 427 261 431 256 432 249 c 4
 436 224 411 206 401 198 c 5
 407 195 409 194 414 192 c 4
 440 182 467 185 520 182 c 6
 531 182 l 5
 541 181 l 5
 540 170 l 5
 540 160 l 5
 539 149 l 5
 538 139 l 5
 528 140 l 5
 518 140 l 6
 470 142 436 137 398 152 c 4
 386 157 375 164 363 173 c 4
 357 177 353 184 352 193 c 4
 350 204 356 214 359 218 c 4
 367 229 380 237 387 243 c 5
 365 262 337 263 298 261 c 6
 288 260 l 5
 277 260 l 5
 277 271 l 5
 277 282 l 5
401 600 m 0
 403 581 413 572 420 573 c 0
 432 574 443 586 441 601 c 0
 439 619 426 630 411 628 c 0
 406 628 399 620 401 600 c 0
359 593 m 0
 356 620 365 668 408 670 c 0
 448 673 478 642 482 607 c 0
 487 572 462 534 423 532 c 0
 383 530 363 565 359 593 c 0
398 533 m 1
 415 562 l 1
 432 533 l 1
 738 35 l 1
 758 2 l 1
 721 2 l 1
 106 3 l 1
 68 3 l 1
 88 35 l 1
 398 533 l 1
415 483 m 1
 143 45 l 1
 683 44 l 1
 415 483 l 1
EndSplineSet
Validated: 37
Ligature2: "ltligs1" M C
EndChar

StartChar: lt_MD
Encoding: 359 -1 128
Width: 833
VWidth: 0
Flags: W
HStem: 642 20G<153 182 651 680>
LayerCount: 2
Fore
SplineSet
445 341 m 5
 444 352 l 5
 444 362 l 5
 455 362 l 5
 465 362 l 6
 505 364 556 368 593 325 c 4
 596 321 600 316 601 309 c 4
 605 284 579 266 569 258 c 5
 575 255 577 254 582 252 c 4
 608 242 636 245 689 242 c 6
 699 241 l 5
 710 240 l 5
 709 230 l 5
 708 219 l 5
 708 209 l 5
 707 198 l 5
 697 199 l 5
 686 200 l 6
 638 202 606 197 568 212 c 4
 556 217 544 223 532 232 c 4
 526 236 521 244 520 253 c 4
 518 264 525 273 528 277 c 4
 536 288 549 297 556 303 c 5
 534 322 505 323 466 321 c 6
 456 320 l 5
 445 320 l 5
 445 331 l 5
 445 341 l 5
680 648 m 1
 696 635 l 1
 682 619 l 1
 182 3 l 1
 169 -12 l 1
 153 1 l 1
 138 14 l 1
 151 30 l 1
 651 646 l 1
 664 662 l 1
 680 648 l 1
153 648 m 1
 169 662 l 1
 182 646 l 1
 682 30 l 1
 696 14 l 1
 680 1 l 1
 664 -12 l 1
 651 3 l 1
 151 619 l 1
 138 635 l 1
 153 648 l 1
EndSplineSet
Validated: 37
Ligature2: "ltligs1" M D
EndChar

StartChar: lt_ME
Encoding: 360 -1 129
Width: 833
VWidth: 0
Flags: W
HStem: -12 41<143 200 201 298> 127 41<327.548 454 457 465> 248 42<202 212 213 310.964>
VStem: 201 41<-7 185.156> 202 7<248 290> 531 40<36.25 88.3651>
LayerCount: 2
Fore
SplineSet
202 268 m 1xec
 202 279 l 1
 202 290 l 1
 212 290 l 1
 222 290 l 2
 262 292 313 295 350 252 c 0
 353 248 357 244 358 237 c 0
 362 212 337 194 327 186 c 1
 333 183 335 181 340 179 c 0
 366 169 394 172 447 169 c 2
 457 168 l 1
 467 168 l 1
 467 158 l 1
 466 148 l 1
 465 137 l 1
 465 127 l 1
 454 127 l 1
 443 128 l 2
 395 130 362 125 324 140 c 0
 312 145 302 151 290 160 c 0
 284 164 278 173 277 182 c 0
 275 193 282 201 285 205 c 0
 293 216 305 226 312 232 c 1
 290 251 262 250 223 248 c 2
 213 248 l 1
 202 248 l 1
 202 258 l 1
 202 268 l 1xec
613 152 m 5
 615 148 l 5
 612 145 l 6
 611 141 610 136 608 133 c 4
 598 102 585 80 577 48 c 6
 571 28 l 5
 551 33 l 5
 531 38 l 5
 536 58 l 6
 543 81 550 100 557 117 c 5
 534 105 496 86 468 120 c 4
 427 172 492 223 522 242 c 4
 530 247 538 248 546 250 c 4
 573 253 610 240 615 204 c 4
 617 185 616 168 613 152 c 5
574 174 m 4
 575 182 575 189 573 198 c 4
 572 201 565 210 552 208 c 4
 550 207 546 208 544 207 c 4
 506 183 492 157 501 146 c 4
 509 136 520 145 565 169 c 4
 567 171 572 172 574 174 c 4
209 343 m 1
 207 241 238 147 242 14 c 1
 241 14 242 13 242 14 c 1
 242 -7 l 1
 222 -8 l 1
 201 -8 l 1xf4
 200 12 l 2
 196 147 161 243 168 365 c 0
 170 400 175 437 185 478 c 0
 209 570 277 669 385 651 c 0
 398 649 412 645 427 641 c 0
 529 613 683 538 650 415 c 0
 604 246 347 330 209 343 c 1
211 385 m 1
 378 369 578 307 610 426 c 0
 631 504 524 572 416 601 c 0
 403 604 390 608 378 610 c 0
 305 623 249 554 226 468 c 0
 218 439 213 412 211 385 c 1
143 8 m 1
 143 29 l 1
 165 29 l 1
 277 28 l 1
 298 27 l 1
 298 7 l 1
 298 -15 l 1
 277 -14 l 1
 164 -12 l 1
 143 -12 l 1
 143 8 l 1
EndSplineSet
Validated: 37
Ligature2: "ltligs1" M E
EndChar

StartChar: lt_MF
Encoding: 361 -1 130
Width: 833
VWidth: 0
Flags: W
HStem: 18 21G<112 142> 52 41<531.551 668> 173 42<407 515.964> 632 20G<399 430 635 657>
VStem: 395 42<15 173 215 622> 407 30<173 215> 635 42<492.919 651> 732 39<482.113 545.538>
LayerCount: 2
Fore
SplineSet
407 193 m 5xf7
 406 204 l 5
 406 215 l 5
 416 215 l 5
 427 215 l 6
 467 217 517 221 554 178 c 4
 557 174 561 169 562 162 c 4
 566 137 541 118 531 110 c 5
 537 107 538 105 543 103 c 4
 569 93 597 97 650 94 c 6
 660 93 l 5
 671 93 l 5
 670 82 l 5
 669 72 l 5
 668 62 l 5
 668 52 l 5
 658 52 l 5
 648 52 l 6
 600 54 566 50 528 65 c 4
 516 70 505 76 493 85 c 4
 487 89 483 98 482 107 c 4
 480 118 486 126 489 130 c 4
 497 141 510 151 517 157 c 5
 495 176 466 175 427 173 c 6
 417 173 l 5
 407 173 l 5
 407 183 l 5
 407 193 l 5xf7
758 552 m 1
 777 545 l 1
 771 525 l 2
 738 424 720 366 636 290 c 0
 543 207 428 292 356 244 c 0
 255 178 221 129 142 33 c 2
 128 18 l 1
 112 31 l 1
 97 43 l 1
 110 60 l 2
 188 153 226 210 332 279 c 0
 440 350 541 261 608 321 c 0
 685 390 699 436 732 538 c 2
 738 558 l 1
 758 552 l 1
657 651 m 1
 677 651 l 1
 677 630 l 2
 675 528 666 459 580 382 c 0
 487 299 370 386 298 338 c 0
 197 272 164 223 85 127 c 2
 72 110 l 1
 57 123 l 1
 40 138 l 1
 52 153 l 2
 130 246 171 303 277 372 c 0
 385 443 485 354 552 414 c 0
 628 482 633 530 635 631 c 2
 635 652 l 1
 657 651 l 1
399 638 m 1
 415 654 l 1
 430 637 l 1
 590 452 l 1
 574 438 l 1
 558 423 l 1
 413 592 l 1
 250 421 l 1
 235 435 l 1
 219 449 l 1
 399 638 l 1
412 622 m 1
 433 622 l 1
 433 616 l 1
 437 35 l 1
 437 15 l 1
 416 14 l 1
 395 14 l 1
 395 35 l 1xfb
 392 616 l 1
 392 622 l 1
 412 622 l 1
EndSplineSet
Validated: 37
Ligature2: "ltligs1" M F
EndChar

StartChar: lt_MG
Encoding: 362 -1 131
Width: 833
VWidth: 0
Flags: W
HStem: 100 42<487.546 613> 220 42<362 372 382 470.964> 662 20G<142 169 598.5 603>
VStem: 603 44<600.909 655>
LayerCount: 2
Fore
SplineSet
362 241 m 5
 361 252 l 5
 361 262 l 5
 372 262 l 5
 382 262 l 6
 422 264 473 268 510 225 c 4
 513 221 517 216 518 209 c 4
 522 184 496 166 486 158 c 5
 492 155 494 154 499 152 c 4
 525 142 553 145 606 142 c 6
 616 141 l 5
 627 140 l 5
 626 130 l 5
 625 119 l 5
 624 109 l 5
 623 98 l 5
 613 99 l 5
 602 100 l 6
 554 102 522 97 484 112 c 4
 472 117 460 123 448 132 c 4
 442 136 438 144 437 153 c 4
 435 164 441 173 444 177 c 4
 452 188 465 197 472 203 c 5
 450 222 421 223 382 221 c 6
 372 220 l 5
 362 220 l 5
 362 231 l 5
 362 241 l 5
81 240 m 2
 179 262 276 295 367 318 c 0
 371 320 386 325 388 328 c 0
 391 333 414 345 417 350 c 0
 420 355 414 352 418 357 c 1
 408 354 382 350 372 348 c 0
 210 326 177 531 131 648 c 2
 123 668 l 1
 142 675 l 1
 162 682 l 1
 169 663 l 2
 223 524 250 367 365 383 c 0
 420 391 491 443 538 511 c 0
 578 568 594 637 603 655 c 1
 603 655 647 673 647 652 c 0
 647 635 644 645 642 638 c 0
 640 636 639 632 637 627 c 0
 602 545 567 486 535 442 c 0
 502 396 470 364 444 335 c 1
 535 351 623 350 697 307 c 0
 760 270 744 187 709 127 c 0
 686 87 651 50 608 27 c 0
 524 -18 370 -15 325 70 c 0
 317 86 313 107 315 127 c 0
 321 189 331 233 349 270 c 1
 267 248 181 220 90 200 c 2
 69 195 l 1
 65 215 l 1
 60 236 l 1
 81 240 l 2
81 240 m 1
 82 240 80 240 81 240 c 1
405 284 m 0
 403 282 401 278 399 276 c 0
 377 241 363 195 356 122 c 0
 354 109 357 99 362 90 c 0
 389 39 514 23 588 63 c 0
 623 81 653 114 673 148 c 0
 707 206 704 254 675 272 c 0
 607 312 522 310 422 288 c 0
 416 286 411 286 405 284 c 0
EndSplineSet
Validated: 37
Ligature2: "ltligs1" M G
EndChar

StartChar: lt_MH
Encoding: 363 -1 132
Width: 833
VWidth: 0
Flags: W
HStem: 290 42<360 468.965> 632 20G<627 655>
LayerCount: 2
Fore
SplineSet
360 311 m 5
 360 322 l 5
 359 332 l 5
 369 332 l 5
 380 332 l 6
 420 334 471 337 508 294 c 4
 511 290 514 286 515 279 c 4
 519 254 494 236 484 228 c 5
 490 225 493 223 498 221 c 4
 524 211 551 214 604 211 c 6
 615 211 l 5
 625 210 l 5
 624 200 l 5
 623 190 l 5
 623 179 l 5
 622 168 l 5
 612 169 l 5
 602 170 l 6
 554 172 520 167 482 182 c 4
 470 187 460 193 448 202 c 4
 442 206 436 214 435 223 c 4
 433 234 439 244 442 248 c 4
 450 259 463 267 470 273 c 5
 448 292 421 293 382 291 c 6
 371 290 l 5
 360 290 l 5
 360 301 l 5
 360 311 l 5
655 633 m 1
 665 615 l 1
 646 606 l 2
 523 544 412 490 429 422 c 0
 442 367 667 417 677 302 c 0
 689 167 559 109 452 38 c 2
 435 26 l 1
 423 43 l 1
 412 60 l 1
 430 72 l 2
 547 150 644 197 635 298 c 0
 628 367 419 285 389 412 c 0
 362 527 520 589 627 643 c 2
 646 652 l 1
 655 633 l 1
406 598 m 1
 415 580 l 1
 396 570 l 2
 273 508 162 454 179 386 c 0
 192 331 417 381 427 266 c 0
 439 131 309 73 202 2 c 1
 203 2 203 3 202 2 c 1
 185 -9 l 1
 174 8 l 1
 162 26 l 1
 180 37 l 2
 297 115 394 161 385 262 c 0
 378 331 169 250 139 377 c 0
 112 492 270 554 377 608 c 2
 396 617 l 1
 406 598 l 1
EndSplineSet
Validated: 37
Ligature2: "ltligs1" M H
EndChar

StartChar: lt_MI
Encoding: 364 -1 133
Width: 833
VWidth: 0
Flags: W
HStem: 210 42<628.778 767> 331 41<505 514 515 613.964>
LayerCount: 2
Fore
SplineSet
504 351 m 5
 503 361 l 5
 503 372 l 5
 514 372 l 5
 524 372 l 6
 564 374 615 378 652 335 c 4
 655 331 659 325 660 318 c 4
 664 293 638 276 628 268 c 5
 634 265 637 263 642 261 c 4
 668 251 695 255 748 252 c 6
 758 251 l 5
 768 250 l 5
 768 240 l 5
 768 229 l 5
 767 218 l 5
 767 208 l 5
 757 209 l 5
 746 210 l 6
 698 212 665 207 627 222 c 4
 615 227 604 234 592 243 c 4
 586 247 580 254 579 263 c 4
 577 274 584 283 587 287 c 4
 595 298 608 308 615 314 c 5
 593 333 565 333 526 331 c 6
 515 331 l 5
 505 330 l 5
 504 340 l 5
 504 351 l 5
718 517 m 1
 702 506 l 1
 690 523 l 2
 688 525 687 527 685 529 c 0
 637 597 565 637 514 602 c 0
 402 524 350 315 382 177 c 0
 390 141 409 109 432 86 c 0
 497 21 608 7 702 102 c 2
 717 118 l 1
 732 102 l 1
 746 88 l 1
 732 73 l 2
 623 -37 484 -25 402 57 c 0
 373 86 350 124 340 167 c 0
 304 319 358 544 490 636 c 0
 573 694 669 625 720 553 c 0
 722 551 723 548 725 546 c 2
 736 528 l 1
 718 517 l 1
101 482 m 1
 82 490 l 1
 90 510 l 2
 102 537 123 565 146 592 c 0
 197 648 281 702 349 640 c 0
 501 500 557 339 498 138 c 0
 481 82 454 42 418 18 c 0
 321 -47 189 12 110 130 c 2
 98 148 l 1
 116 159 l 1
 133 171 l 1
 144 153 l 2
 217 44 327 7 395 52 c 0
 422 70 443 102 458 150 c 0
 513 336 464 478 321 610 c 0
 283 645 227 620 177 564 c 0
 156 541 138 514 128 492 c 2
 119 473 l 1
 101 482 l 1
EndSplineSet
Validated: 37
Ligature2: "ltligs1" M I
EndChar

StartChar: lt_MK
Encoding: 365 -1 134
Width: 833
VWidth: 0
Flags: W
HStem: 22 43<509 691> 281 41<618.548 755.333> 640 20G<649.923 722.836>
LayerCount: 2
Fore
SplineSet
492 422 m 5
 492 432 l 5
 492 442 l 5
 502 443 l 5
 512 443 l 6
 552 445 603 449 640 406 c 4
 643 402 647 397 648 390 c 4
 652 365 627 347 617 339 c 5
 623 336 625 334 630 332 c 4
 656 322 684 325 737 322 c 6
 748 322 l 5
 758 321 l 5
 757 310 l 5
 757 300 l 5
 756 290 l 5
 755 279 l 5
 744 280 l 5
 734 281 l 6
 686 283 653 278 615 293 c 4
 603 298 592 305 580 314 c 4
 574 318 569 325 568 334 c 4
 566 345 572 354 575 358 c 4
 583 369 595 379 602 385 c 5
 580 404 553 404 514 402 c 6
 503 402 l 5
 493 401 l 5
 492 411 l 5
 492 422 l 5
566 263 m 1
 582 293 l 1
 602 265 l 1
 748 60 l 1
 771 28 l 1
 732 28 l 1
 474 22 l 1
 440 22 l 1
 456 52 l 1
 566 263 l 1
587 214 m 1
 509 65 l 1
 691 68 l 1
 587 214 l 1
673 447 m 1
 652 452 l 1
 632 456 l 1
 638 477 l 1
 659 574 l 1
 89 18 l 1
 73 4 l 1
 59 18 l 1
 44 34 l 1
 60 48 l 1
 612 588 l 1
 509 562 l 1
 499 602 l 1
 525 608 l 1
 728 660 l 1
 673 447 l 1
EndSplineSet
Validated: 37
Ligature2: "ltligs1" M K
EndChar

StartChar: lt_ML
Encoding: 366 -1 135
Width: 833
VWidth: 0
Flags: W
HStem: -4 42<447.977 689.65> 206 41<502.28 641.333> 326 42<379 389 390 488.742> 649 20G<362 392.556>
VStem: 348 41<123.917 322 368 596> 378 11<326 368>
LayerCount: 2
Fore
SplineSet
378 347 m 5xf4
 378 357 l 5
 378 368 l 5
 388 368 l 5
 398 368 l 6
 438 370 490 373 527 330 c 4
 530 326 534 322 535 315 c 4
 539 290 512 271 502 263 c 5
 508 260 512 259 517 257 c 4
 543 247 570 250 623 247 c 6
 633 247 l 5
 643 246 l 5
 643 235 l 5
 642 225 l 5
 642 215 l 5
 641 204 l 5
 631 205 l 5
 620 206 l 6
 572 208 540 203 502 218 c 4
 490 223 478 229 466 238 c 4
 460 242 455 250 454 259 c 4
 452 270 458 278 461 282 c 4
 469 293 483 303 490 309 c 5
 468 328 439 329 400 327 c 6
 390 326 l 5
 379 326 l 5
 379 336 l 5
 378 347 l 5xf4
389 331 m 1
 388 261 390 191 402 113 c 0
 412 51 492 40 588 38 c 0
 668 36 688 53 756 107 c 2
 772 119 l 1
 785 102 l 1
 798 87 l 1
 782 73 l 2
 714 19 677 -6 587 -4 c 0
 501 -2 377 3 361 107 c 0
 349 184 347 254 348 322 c 1xf8
 102 452 l 1
 70 469 l 1
 101 488 l 1
 362 650 l 1
 392 669 l 1
 393 633 l 2
 396 523 392 433 390 346 c 1
 389 341 l 1
 389 331 l 1
348 368 m 1
 350 440 354 511 352 596 c 1
 153 472 l 1
 348 368 l 1
EndSplineSet
Validated: 37
Ligature2: "ltligs1" M L
EndChar

StartChar: lt_MN
Encoding: 367 -1 136
Width: 835
VWidth: 0
Flags: W
HStem: 18 43<188 638> 71 41<438.548 575> 191 41<313 322 332 421.964> 635 20G<677.212 696.362>
VStem: 656 40<268.727 552> 664 43<94 434.273>
LayerCount: 2
Fore
SplineSet
312 212 m 5xf0
 312 222 l 5
 312 232 l 5
 322 232 l 5
 332 233 l 6
 372 235 423 239 460 196 c 4
 463 192 467 187 468 180 c 4
 472 155 447 136 437 128 c 5
 443 125 445 124 450 122 c 4
 476 112 504 115 557 112 c 6
 567 112 l 5
 577 111 l 5
 577 101 l 5
 576 90 l 5
 575 80 l 5
 575 69 l 5
 565 70 l 5
 554 71 l 6
 506 73 473 68 435 83 c 4
 423 88 412 94 400 103 c 4
 394 107 389 115 388 124 c 4
 386 135 392 144 395 148 c 4
 403 159 416 168 423 174 c 5
 401 193 373 194 334 192 c 6
 323 191 l 5
 313 191 l 5
 312 202 l 5
 312 212 l 5xf0
638 61 m 1
 416 298 l 1
 188 57 l 1
 638 61 l 1
656 552 m 1xf8
 445 329 l 1
 664 94 l 1xf4
 656 552 l 1xf8
417 358 m 1
 696 655 l 1xf8
 707 48 l 1
 707 18 l 1
 685 18 l 1
 666 18 l 1
 91 13 l 1
 388 328 l 1
 131 604 l 1
 161 632 l 1
 417 358 l 1
EndSplineSet
Validated: 37
Ligature2: "ltligs1" M N
EndChar

StartChar: lt_MO
Encoding: 368 -1 137
Width: 833
VWidth: 0
Flags: W
HStem: 233 42<392.175 430.562> 260 41<440.77 559> 380 42<317 425.964> 675 20G<409.915 426.333>
LayerCount: 2
Fore
SplineSet
316 401 m 1x70
 316 411 l 1
 315 422 l 1
 326 422 l 1
 336 422 l 2
 376 424 428 427 465 384 c 0
 468 380 471 375 472 368 c 0
 476 343 450 326 440 318 c 1
 446 315 449 312 454 310 c 0
 480 300 499 304 552 301 c 6
 562 301 l 5
 572 300 l 5
 572 290 l 5
 571 279 l 5
 570 268 l 5
 569 258 l 5
 559 259 l 5
 548 260 l 6
 500 262 477 257 439 272 c 0
 427 277 415 283 403 292 c 0
 397 296 393 304 392 313 c 0
 390 324 395 333 398 337 c 0
 406 348 420 357 427 363 c 1
 405 382 377 383 338 381 c 2
 327 380 l 1
 317 380 l 1
 317 390 l 1
 316 401 l 1x70
391 204 m 0
 393 185 403 177 410 178 c 0
 422 179 434 191 432 206 c 0
 430 224 416 235 401 233 c 0xb0
 396 233 389 224 391 204 c 0
349 198 m 0
 346 225 355 273 398 275 c 0
 438 278 468 246 472 211 c 0
 477 176 452 139 413 137 c 0
 373 135 353 170 349 198 c 0
157 -1 m 1
 138 7 l 1
 146 27 l 1
 399 648 l 1
 418 695 l 1
 438 647 l 1
 685 23 l 1
 692 3 l 1
 673 -4 l 1
 653 -12 l 1
 646 8 l 1
 418 583 l 1
 184 10 l 1
 177 -9 l 1
 157 -1 l 1
EndSplineSet
Validated: 37
Ligature2: "ltligs1" M O
EndChar

StartChar: lt_MP
Encoding: 369 -1 138
Width: 833
VWidth: 0
Flags: W
VStem: 192 42<82.3125 195.7>
LayerCount: 2
Fore
SplineSet
292 232 m 5
 291 243 l 5
 291 253 l 5
 302 253 l 5
 312 254 l 6
 352 256 403 260 440 217 c 4
 443 213 447 208 448 201 c 4
 452 176 426 157 416 149 c 5
 422 146 424 145 429 143 c 4
 455 133 482 136 535 133 c 6
 546 132 l 5
 557 132 l 5
 556 122 l 5
 555 111 l 5
 554 101 l 5
 554 90 l 5
 543 91 l 5
 533 92 l 6
 485 94 452 89 414 104 c 4
 402 109 391 115 379 124 c 4
 373 128 368 136 367 145 c 4
 365 156 371 164 374 168 c 4
 382 179 395 189 402 195 c 5
 380 214 352 214 313 212 c 6
 302 212 l 5
 292 212 l 5
 292 222 l 5
 292 232 l 5
215 366 m 1
 643 327 l 1
 640 285 l 1
 210 324 l 1
 215 366 l 1
194 531 m 1
 180 546 l 1
 194 560 l 1
 193 559 195 560 194 560 c 1
 261 625 345 669 452 650 c 0
 482 644 515 633 545 616 c 0
 601 585 662 526 625 460 c 0
 577 375 491 359 418 307 c 0
 321 239 229 218 233 128 c 0
 233 126 234 124 234 122 c 0
 242 62 333 29 415 39 c 0
 499 49 552 113 604 190 c 2
 616 207 l 1
 633 196 l 1
 651 184 l 1
 639 167 l 2
 587 90 524 11 420 -2 c 0
 335 -12 204 15 192 117 c 0
 191 119 192 124 192 126 c 0
 185 251 313 285 393 341 c 0
 478 400 550 414 588 482 c 0
 605 513 581 548 525 579 c 0
 499 594 469 604 445 608 c 0
 356 625 285 589 223 530 c 2
 208 515 l 1
 194 531 l 1
EndSplineSet
Validated: 37
Ligature2: "ltligs1" M P
EndChar

StartChar: lt_MQ
Encoding: 370 -1 139
Width: 833
VWidth: 0
Flags: W
HStem: 92 42<379.22 495> 212 42<241 350.964> 653 20G<622 643>
VStem: 205 42<-13 212 254 297 338 443> 222 30<298 338> 602 41<308 672>
LayerCount: 2
Fore
SplineSet
241 233 m 5xec
 240 243 l 5
 240 254 l 5
 251 254 l 5
 261 255 l 6
 301 257 352 261 389 218 c 4
 392 214 396 209 397 202 c 4
 401 177 375 159 365 151 c 5
 371 148 373 145 378 143 c 4
 404 133 432 137 485 134 c 6
 495 133 l 5
 506 132 l 5
 505 122 l 5
 504 112 l 5
 503 102 l 5
 502 91 l 5
 492 92 l 5
 482 92 l 6
 434 94 401 90 363 105 c 4
 351 110 340 116 328 125 c 4
 322 129 317 137 316 146 c 4
 314 157 320 165 323 169 c 4
 331 180 345 190 352 196 c 5
 330 215 301 215 262 213 c 6
 252 212 l 5
 241 212 l 5
 241 223 l 5
 241 233 l 5xec
435 424 m 1
 431 404 l 1
 410 409 l 1
 252 443 l 1xec
 247 7 l 1
 247 -14 l 1
 226 -13 l 1
 205 -13 l 1
 205 8 l 1
 205 9 204 8 205 8 c 1xf4
 211 470 l 1
 211 496 l 1
 236 490 l 1
 419 449 l 1
 440 445 l 1
 435 424 l 1
622 672 m 1
 643 673 l 1
 643 652 l 1
 648 286 l 1
 648 263 l 1
 625 265 l 1
 242 297 l 1
 222 298 l 1
 223 319 l 1
 225 340 l 1
 246 338 l 1
 606 308 l 1
 602 652 l 1
 602 672 l 1
 622 672 l 1
EndSplineSet
Validated: 37
Ligature2: "ltligs1" M Q
EndChar

StartChar: lt_MR
Encoding: 371 -1 140
Width: 833
VWidth: 0
Flags: W
HStem: 1 40<494.7 546.43> 238 41<225.551 352> 358 41<101 110 111 208.965> 651 20G<318 346 486 512>
VStem: 65 35<358 399> 100 7<358 399> 697 41<121.659 206.263 450.006 536.998>
LayerCount: 2
Fore
SplineSet
100 378 m 5xfa
 99 389 l 5
 99 399 l 5
 110 399 l 5
 120 400 l 6
 160 402 211 405 248 362 c 4
 251 358 255 354 256 347 c 4
 260 322 234 303 224 295 c 5
 230 292 233 291 238 289 c 4
 264 279 290 282 343 279 c 6
 354 278 l 5
 365 278 l 5
 364 268 l 5
 363 257 l 5
 362 247 l 5
 362 236 l 5
 352 237 l 5
 342 238 l 6
 294 240 260 235 222 250 c 4
 210 255 200 261 188 270 c 4
 182 274 176 282 175 291 c 4
 173 302 179 311 182 315 c 4
 190 326 203 335 210 341 c 5
 188 360 161 360 122 358 c 6
 111 358 l 5
 101 358 l 5
 100 368 l 5
 100 378 l 5xfa
486 652 m 1
 493 671 l 1
 512 664 l 2
 600 632 737 605 739 482 c 0
 741 376 539 350 532 340 c 1
 540 324 738 278 738 168 c 0
 738 56 593 29 515 7 c 2
 495 1 l 1
 489 21 l 1
 483 41 l 1
 503 47 l 1
 595 74 697 100 697 168 c 0
 697 248 489 254 489 340 c 0
 489 431 700 407 698 481 c 0
 696 566 599 589 498 624 c 2
 479 632 l 1
 486 652 l 1
346 654 m 1
 356 636 l 1
 337 627 l 2
 209 561 105 484 107 348 c 0xf6
 109 200 206 115 348 50 c 2
 366 41 l 1
 357 22 l 1
 348 3 l 1
 330 12 l 2
 183 80 67 179 65 348 c 0
 63 510 190 597 318 663 c 2
 337 673 l 1
 346 654 l 1
EndSplineSet
Validated: 37
Ligature2: "ltligs1" M R
EndChar

StartChar: lt_MS
Encoding: 372 -1 141
Width: 833
VWidth: 0
Flags: W
HStem: 95 41<553.778 692> 215 42<430 439 440 538.964> 286 42<119 393> 298 42<351.667 667> 353 42<670.68 709.021> 668 20G<393 414.875>
VStem: 393 42<15 592> 400 42<-7 592>
LayerCount: 2
Fore
SplineSet
429 236 m 1xcc
 428 247 l 1
 428 257 l 1
 439 257 l 1
 449 258 l 2
 489 260 540 262 577 219 c 0
 580 215 584 211 585 204 c 0
 589 179 563 160 553 152 c 1
 559 149 562 148 567 146 c 0
 593 136 620 139 673 136 c 2
 683 136 l 1
 693 135 l 1
 693 125 l 1
 692 115 l 1
 692 104 l 1
 692 93 l 1
 682 94 l 1
 671 95 l 2
 623 97 590 93 552 108 c 0
 540 113 529 119 517 128 c 0
 511 132 505 139 504 148 c 0
 502 159 509 168 512 172 c 0
 520 183 533 192 540 198 c 1
 518 217 490 218 451 216 c 2
 440 215 l 1
 430 215 l 1
 429 226 l 1
 429 236 l 1xcc
671 324 m 4
 673 305 683 297 690 298 c 4xdc
 702 299 713 311 711 326 c 4
 709 344 696 355 681 353 c 4
 676 353 669 344 671 324 c 4
629 318 m 4
 626 345 635 393 678 395 c 4
 718 398 748 367 752 332 c 4
 757 297 732 259 693 257 c 4
 653 255 633 290 629 318 c 4
119 307 m 5
 118 327 l 5
 140 328 l 5
 139 328 140 327 140 328 c 5xec
 646 340 l 5
 667 340 l 5
 668 319 l 5
 668 298 l 5
 648 298 l 5xdc
 140 286 l 5
 140 287 139 286 140 286 c 5xec
 119 285 l 5
 119 307 l 5
421 -7 m 1
 400 -7 l 1
 400 14 l 1xcd
 393 640 l 1
 393 688 l 1
 428 656 l 1
 640 464 l 1
 656 450 l 1
 641 434 l 1
 627 418 l 1
 612 432 l 1
 435 592 l 1xce
 442 15 l 1
 442 -7 l 1xcd
 421 -7 l 1
EndSplineSet
Validated: 37
Ligature2: "ltligs1" M S
EndChar

StartChar: lt_MT
Encoding: 373 -1 142
Width: 833
VWidth: 0
Flags: W
HStem: 164 42<553.778 692> 285 42<430 538.964> 533 46<238 402 404 440 443 584> 633 43<394 443>
VStem: 392 42<-8 216.75 284 294> 401 41<194 579>
LayerCount: 2
Fore
SplineSet
429 305 m 5xf0
 428 315 l 5
 428 326 l 5
 439 327 l 5
 449 327 l 6
 489 329 540 332 577 289 c 4
 580 285 584 280 585 273 c 4
 589 248 563 230 553 222 c 5
 559 219 562 217 567 215 c 4
 593 205 620 209 673 206 c 6
 683 205 l 5
 693 204 l 5
 693 193 l 5
 692 183 l 5
 692 173 l 5
 692 162 l 5
 682 163 l 5
 671 164 l 6
 623 166 590 162 552 177 c 4
 540 182 529 189 517 198 c 4
 511 202 505 209 504 218 c 4
 502 229 509 237 512 241 c 4
 520 252 533 262 540 268 c 5
 518 287 490 287 451 285 c 6
 440 285 l 5
 430 284 l 5
 429 294 l 5
 429 305 l 5xf0
413 -8 m 1
 392 -8 l 1
 392 12 l 1xf8
 401 558 l 1
 402 579 l 1
 422 579 l 1
 443 579 l 1
 442 558 l 1xf4
 434 12 l 1
 434 -8 l 1xf8
 413 -8 l 1
189 485 m 1
 170 494 l 1
 180 513 l 1
 207 564 l 1
 212 575 l 1
 225 575 l 1
 593 578 l 1
 604 578 l 1
 611 570 l 1
 649 519 l 1
 662 502 l 1
 645 490 l 1
 628 478 l 1
 616 494 l 1
 584 537 l 1
 238 533 l 1
 217 493 l 1
 207 475 l 1
 189 485 l 1
420 595 m 1
 443 633 l 1
 394 633 l 1
 420 595 l 1
404 545 m 1
 338 642 l 1
 316 673 l 1
 355 674 l 1
 480 676 l 1
 517 677 l 1
 498 644 l 1
 440 546 l 1
 423 518 l 1
 404 545 l 1
EndSplineSet
Validated: 37
Ligature2: "ltligs1" M T
EndChar

StartChar: lt_MU
Encoding: 374 -1 143
Width: 833
VWidth: 0
Flags: W
HStem: 227 41<387 398 407 496.964> 302 42<443.158 688.435> 596 42<221.688 619.521> 628 41<125 141>
LayerCount: 2
Fore
SplineSet
387 247 m 5xc0
 386 257 l 5
 386 268 l 5
 397 268 l 5
 407 268 l 6
 447 270 498 274 535 231 c 4
 538 227 541 222 542 215 c 4
 546 190 521 172 511 164 c 5
 517 161 519 159 524 157 c 4
 550 147 578 151 631 148 c 6
 641 147 l 5
 652 146 l 5
 651 135 l 5
 650 125 l 5
 649 115 l 5
 648 104 l 5
 638 105 l 5
 628 106 l 6
 580 108 547 103 509 118 c 4
 497 123 485 130 473 139 c 4
 467 143 463 150 462 159 c 4
 460 170 466 178 469 182 c 4
 477 193 491 204 498 210 c 5
 476 229 447 229 408 227 c 6
 398 227 l 5
 387 226 l 5
 387 236 l 5
 387 247 l 5xc0
123 648 m 1
 125 669 l 1xd0
 146 668 l 2
 258 656 317 640 427 638 c 0
 522 636 576 651 675 659 c 2
 727 663 l 1
 692 624 l 2
 592 511 503 468 441 357 c 1
 487 350 535 346 592 344 c 0
 646 342 672 359 733 383 c 2
 752 391 l 1
 760 372 l 1
 768 352 l 1
 748 345 l 2
 692 323 657 300 591 302 c 0
 527 304 473 311 422 318 c 1
 379 217 418 156 427 33 c 2
 432 -37 l 1
 381 16 l 1
 112 375 l 1
 82 415 l 1
 132 408 l 2
 238 393 316 376 398 363 c 1
 458 479 539 529 623 612 c 1
 559 604 506 594 427 596 c 0xe0
 313 598 250 614 141 626 c 2
 120 628 l 1xd0
 123 648 l 1
379 324 m 1
 314 334 253 348 176 360 c 1
 383 78 l 1
 371 151 347 239 379 324 c 1
EndSplineSet
Validated: 37
Ligature2: "ltligs1" M U
EndChar

StartChar: lt_MV
Encoding: 375 -1 144
Width: 833
VWidth: 0
Flags: W
HStem: 202 42<523.548 660> 323 42<398 406 408 506.964> 658 20G<539 564.154>
VStem: 231 41<254.638 449.012> 398 8<323 365>
LayerCount: 2
Fore
SplineSet
398 344 m 5
 398 355 l 5
 397 365 l 5
 407 365 l 5
 418 366 l 6
 458 368 509 371 546 328 c 4
 549 324 551 319 552 312 c 4
 556 287 532 269 522 261 c 5
 528 258 530 256 535 254 c 4
 561 244 589 247 642 244 c 6
 652 244 l 5
 662 243 l 5
 662 233 l 5
 661 223 l 5
 660 212 l 5
 660 202 l 5
 649 202 l 5
 639 203 l 6
 591 205 558 201 520 216 c 4
 508 221 497 227 485 236 c 4
 479 240 473 248 472 257 c 4
 470 268 477 277 480 281 c 4
 488 292 501 301 508 307 c 5
 486 326 457 326 418 324 c 6
 408 323 l 5
 398 323 l 5
 398 334 l 5
 398 344 l 5
569 652 m 1
 561 642 l 2
 483 542 404 407 406 353 c 0
 408 293 454 134 572 24 c 2
 578 18 l 1
 562 -14 l 1
 552 -11 l 2
 345 47 238 186 231 352 c 0
 224 511 361 619 539 675 c 2
 548 678 l 1
 569 652 l 1
487 612 m 1
 350 554 267 466 272 354 c 0
 277 227 346 121 485 58 c 1
 400 168 366 291 364 352 c 0
 362 419 423 522 487 612 c 1
EndSplineSet
Validated: 37
Ligature2: "ltligs1" M V
EndChar

StartChar: lt_MW
Encoding: 376 -1 145
Width: 833
VWidth: 0
Flags: W
HStem: 110 42<141 703> 187 41<368.777 496> 307 41<244 253 264 353.964> 502 42<142 705> 665 20G<398.276 422.857>
LayerCount: 2
Fore
SplineSet
243 328 m 5
 243 338 l 5
 243 348 l 5
 253 348 l 5
 264 349 l 6
 304 351 355 354 392 311 c 4
 395 307 399 303 400 296 c 4
 404 271 378 252 368 244 c 5
 374 241 377 240 382 238 c 4
 408 228 435 231 488 228 c 6
 498 228 l 5
 509 227 l 5
 508 217 l 5
 508 207 l 5
 507 196 l 5
 507 185 l 5
 496 186 l 5
 485 187 l 6
 437 189 405 184 367 199 c 4
 355 204 344 210 332 219 c 4
 326 223 320 231 319 240 c 4
 317 251 324 260 327 264 c 4
 335 275 348 284 355 290 c 5
 333 309 304 310 265 308 c 6
 255 307 l 5
 244 307 l 5
 244 318 l 5
 243 328 l 5
452 -2 m 1
 435 -31 l 1
 418 -2 l 1
 87 512 l 1
 66 544 l 1
 104 544 l 1
 742 545 l 1
 778 545 l 1
 760 513 l 1
 452 -2 l 1
434 48 m 1
 705 503 l 1
 142 502 l 1
 434 48 l 1
393 656 m 1
 410 685 l 1
 428 657 l 1
 759 142 l 1
 780 110 l 1
 742 110 l 1
 104 109 l 1
 68 109 l 1
 86 141 l 1
 393 656 l 1
412 606 m 1
 141 151 l 1
 703 152 l 1
 412 606 l 1
EndSplineSet
Validated: 37
Ligature2: "ltligs1" M W
EndChar

StartChar: lt_MX
Encoding: 377 -1 146
Width: 833
VWidth: 0
Flags: W
HStem: 98 40<266.938 324.214> 164 42<433.546 569.556> 623 20G<698 718>
VStem: 125 42<542.333 594.781> 266 42<98 323.271> 677 41<163.889 642> 685 42<12 491.111>
LayerCount: 2
Fore
SplineSet
308 305 m 5xf8
 307 315 l 5
 307 326 l 5
 318 327 l 5
 328 327 l 6
 368 329 419 332 456 289 c 4
 459 285 462 280 463 273 c 4
 467 248 442 230 432 222 c 5
 438 219 440 217 445 215 c 4
 471 205 499 209 552 206 c 6
 562 205 l 5
 572 204 l 5
 572 193 l 5
 571 183 l 5
 570 173 l 5
 569 162 l 5
 559 163 l 5
 548 164 l 6
 500 166 468 162 430 177 c 4
 418 182 406 189 394 198 c 4
 388 202 383 209 382 218 c 4
 380 229 387 237 390 241 c 4
 398 252 411 262 418 268 c 5
 396 287 367 287 328 285 c 6
 318 285 l 5
 308 284 l 5
 308 294 l 5
 308 305 l 5xf8
698 642 m 1
 718 643 l 1
 718 622 l 1xfc
 727 33 l 1
 727 12 l 1
 707 12 l 1
 685 12 l 1
 685 33 l 1xfa
 677 622 l 1
 677 642 l 1xfc
 698 642 l 1
287 98 m 1
 266 98 l 1
 267 118 l 2
 269 180 241 235 275 307 c 0
 332 429 469 413 448 498 c 0
 426 585 327 578 212 599 c 0
 209 600 204 600 199 599 c 0
 177 595 165 578 167 564 c 2
 170 543 l 1
 149 540 l 1
 129 536 l 1
 125 557 l 2
 117 602 156 633 192 640 c 0
 201 642 209 642 219 640 c 0
 317 622 457 631 488 508 c 0
 517 390 345 358 313 290 c 0
 287 235 310 196 308 118 c 2
 308 97 l 1
 287 98 l 1
287 68 m 0
 289 49 300 41 307 42 c 0
 319 43 329 53 327 68 c 0
 325 86 313 99 298 97 c 0
 293 97 285 88 287 68 c 0
245 62 m 0
 242 89 250 136 293 138 c 0
 333 141 364 109 368 74 c 0
 373 39 348 2 309 0 c 0
 269 -2 249 34 245 62 c 0
EndSplineSet
Validated: 37
Ligature2: "ltligs1" M X
EndChar

StartChar: lt_MY
Encoding: 378 -1 147
Width: 833
VWidth: 0
Flags: W
HStem: -2 41<337.357 513.92> 170 41<322.778 450> 290 42<208 307.964> 528 41<361.967 490.296> 652 20G<409 436>
VStem: 198 4<290 332> 664 42<189.772 380.905>
LayerCount: 2
Fore
SplineSet
198 311 m 5
 198 322 l 5
 198 332 l 5
 208 332 l 5
 218 332 l 6
 258 334 310 337 347 294 c 4
 350 290 353 286 354 279 c 4
 358 254 332 236 322 228 c 5
 328 225 331 223 336 221 c 4
 362 211 389 214 442 211 c 6
 452 211 l 5
 463 210 l 5
 462 200 l 5
 462 190 l 5
 461 179 l 5
 460 168 l 5
 450 169 l 5
 440 170 l 6
 392 172 359 167 321 182 c 4
 309 187 297 193 285 202 c 4
 279 206 274 214 273 223 c 4
 271 234 278 244 281 248 c 4
 289 259 302 267 309 273 c 5
 287 292 258 293 219 291 c 6
 209 290 l 5
 198 290 l 5
 198 301 l 5
 198 311 l 5
260 478 m 1
 247 493 l 1
 262 508 l 1
 409 660 l 1
 422 672 l 1
 436 661 l 1
 593 511 l 1
 610 498 l 1
 598 482 l 1
 584 466 l 1
 568 478 l 1
 424 618 l 1
 290 478 l 1
 275 463 l 1
 260 478 l 1
423 528 m 0
 302 530 205 410 202 282 c 0
 200 160 298 41 416 39 c 0
 552 37 660 143 664 280 c 0
 668 415 559 526 423 528 c 0
423 569 m 0
 581 567 710 438 706 278 c 0
 702 120 574 -4 415 -2 c 0
 269 0 157 140 160 282 c 0
 163 426 272 571 423 569 c 0
EndSplineSet
Validated: 37
Ligature2: "ltligs1" M Y
EndChar

StartChar: lt_MZ
Encoding: 379 -1 148
Width: 833
VWidth: 0
Flags: W
HStem: 282 41<292.778 431> 402 42<168 276.687> 624 41G<131.5 135 529 558>
VStem: 404 28<282 323> 432 14<286.712 318.628>
LayerCount: 2
Fore
SplineSet
168 423 m 5xf0
 168 434 l 5
 168 444 l 5
 178 444 l 5
 188 445 l 6
 228 447 280 450 317 407 c 4
 320 403 322 399 323 392 c 4
 327 367 302 348 292 340 c 5
 298 337 302 335 307 333 c 4
 333 323 359 326 412 323 c 6
 423 323 l 5
 433 323 l 5
 432 312 l 5
 432 302 l 5
 432 292 l 5
 431 282 l 5
 420 282 l 5
 410 282 l 6
 362 284 329 280 291 295 c 4
 279 300 268 306 256 315 c 4
 250 319 244 327 243 336 c 4
 241 347 248 356 251 360 c 4
 259 371 271 380 278 386 c 5
 256 405 229 405 190 403 c 6
 179 402 l 5
 168 402 l 5
 168 413 l 5
 168 423 l 5xf0
558 632 m 1
 575 619 l 1
 562 602 l 2
 484 494 442 434 446 313 c 0xe8
 450 196 505 144 583 39 c 2
 596 22 l 1
 579 10 l 1
 562 -2 l 1
 550 14 l 2
 473 116 408 180 404 312 c 0
 400 446 451 520 529 627 c 2
 541 644 l 1
 558 632 l 1
713 330 m 1
 118 2 l 1
 111 14 105 26 98 38 c 1
 275 136 451 234 628 332 c 1
 115 629 l 1
 122 641 128 653 135 665 c 1
 135 665 526 438 713 330 c 1
EndSplineSet
Validated: 37
Ligature2: "ltligs1" M Z
EndChar

StartChar: lt_xa
Encoding: 380 -1 149
Width: 0
VWidth: 0
Flags: W
HStem: 680 125
VStem: -509 180
LayerCount: 2
Fore
SplineSet
-495 696 m 5
 -509 710 l 5
 -433 789 l 5
 -417 805 l 5
 -402 788 l 5
 -329 708 l 5
 -345 694 l 5
 -360 680 l 5
 -418 744 l 5
 -480 681 l 5
 -495 696 l 5
EndSplineSet
Validated: 1
EndChar

StartChar: lt_xi
Encoding: 381 -1 150
Width: 0
VWidth: 0
Flags: W
HStem: 680 124
VStem: -502 180
LayerCount: 2
Fore
SplineSet
-337 789 m 5
 -322 774 l 5
 -398 696 l 5
 -414 680 l 5
 -429 696 l 5
 -502 776 l 5
 -487 790 l 5
 -471 804 l 5
 -413 741 l 5
 -351 803 l 5
 -337 789 l 5
EndSplineSet
Validated: 1
EndChar

StartChar: lt_xy
Encoding: 382 -1 151
Width: 0
VWidth: 0
Flags: W
HStem: 667 42<-380.525 -312.269>
VStem: -515 249
LayerCount: 2
Fore
SplineSet
-420 725 m 5
 -418 732 -419 772 -384 783 c 4
 -358 791 -275 816 -266 751 c 4
 -259 698 -312 673 -350 668 c 4
 -356 667 -363 667 -369 667 c 4
 -387 668 -403 672 -417 677 c 4
 -457 692 -479 719 -515 736 c 5
 -506 755 l 5
 -498 774 l 5
 -464 758 -441 737 -420 725 c 5
-381 710 m 5
 -377 709 -373 709 -368 709 c 4
 -364 709 -360 709 -356 709 c 4
 -323 713 -305 730 -307 745 c 4
 -308 752 -329 756 -372 743 c 4
 -373 743 -373 743 -373 743 c 4
 -374 742 -375 729 -381 710 c 5
EndSplineSet
Validated: 33
EndChar

StartChar: lt_xz
Encoding: 383 -1 152
Width: 0
VWidth: 0
Flags: W
HStem: 783 42<-496 -328>
VStem: -327 41<702.099 728 782 783>
LayerCount: 2
Fore
SplineSet
-496 801 m 5
 -497 822 l 5
 -309 825 l 5
 -286 826 l 5
 -287 803 l 6
 -287 799 -287 791 -286 782 c 5
 -265 788 -246 795 -232 802 c 5
 -223 783 l 5
 -214 764 l 5
 -234 754 -258 747 -282 740 c 5
 -281 718 -280 690 -299 671 c 4
 -329 642 -423 651 -447 676 c 4
 -457 686 -456 706 -446 715 c 4
 -416 743 -370 757 -327 770 c 5
 -327 775 -328 778 -328 783 c 5
 -496 780 l 5
 -496 801 l 5
-324 728 m 5
 -351 720 -376 711 -396 700 c 5
 -371 696 -335 698 -327 702 c 4
 -326 704 -324 713 -324 728 c 5
EndSplineSet
Validated: 33
EndChar

StartChar: bar
Encoding: 124 124 153
Width: 0
VWidth: 0
Flags: W
HStem: 783 42<-496 -328>
VStem: -327 41<702.099 728 782 783>
LayerCount: 2
Fore
SplineSet
-496 801 m 5
 -497 822 l 5
 -309 825 l 5
 -286 826 l 5
 -287 803 l 6
 -287 799 -287 791 -286 782 c 5
 -265 788 -246 795 -232 802 c 5
 -223 783 l 5
 -214 764 l 5
 -234 754 -258 747 -282 740 c 5
 -281 718 -280 690 -299 671 c 4
 -329 642 -423 651 -447 676 c 4
 -457 686 -456 706 -446 715 c 4
 -416 743 -370 757 -327 770 c 5
 -327 775 -328 778 -328 783 c 5
 -496 780 l 5
 -496 801 l 5
-324 728 m 5
 -351 720 -376 711 -396 700 c 5
 -371 696 -335 698 -327 702 c 4
 -326 704 -324 713 -324 728 c 5
EndSplineSet
Validated: 33
EndChar

StartChar: asciitilde
Encoding: 126 126 154
Width: 833
VWidth: 0
Flags: W
HStem: 155 247
VStem: 202 317
LayerCount: 2
Fore
SplineSet
202 402 m 29
 519 298 l 25
 332 155 l 25
 202 402 l 29
EndSplineSet
Validated: 1
EndChar

StartChar: lt_xe
Encoding: 384 -1 155
Width: 0
VWidth: 0
Flags: W
HStem: 702 41<-504 -304>
VStem: -504 200<703 743>
LayerCount: 2
Fore
SplineSet
-504 722 m 5
 -504 743 l 5
 -304 745 l 5
 -304 724 l 5
 -304 703 l 5
 -504 702 l 5
 -504 722 l 5
EndSplineSet
Validated: 1
EndChar

StartChar: lt_xf
Encoding: 385 -1 156
Width: 0
VWidth: 0
Flags: W
HStem: 661 21G<-438 -417> 714 41<-534.928 -458 -406 -357.891> 721 41<-560 -459.455>
VStem: -458 42<757 784.394> -438 42<662 713.295>
LayerCount: 2
Fore
SplineSet
-406 714 m 5xd0
 -401 699 -396 682 -396 662 c 5
 -417 662 l 5
 -438 661 l 5
 -438 678 -444 696 -450 715 c 5
 -485 717 -521 722 -560 721 c 5
 -561 741 l 5
 -561 762 l 5xa8
 -523 763 -489 759 -458 757 c 5
 -458 776 -450 796 -434 814 c 4
 -403 848 -347 811 -327 793 c 4
 -318 785 -296 760 -317 738 c 4
 -321 734 -326 731 -331 729 c 4
 -357 719 -381 715 -406 714 c 5xd0
-416 755 m 5xd0
 -395 755 -376 758 -357 764 c 5
 -372 776 -396 786 -404 785 c 5
 -415 772 -416 764 -416 755 c 5xd0
EndSplineSet
Validated: 33
EndChar

StartChar: lt_xm
Encoding: 386 -1 157
Width: 0
VWidth: 0
Flags: W
HStem: 657 169
VStem: -363 43<723 803>
LayerCount: 2
Fore
SplineSet
-596 807 m 1
 -587 826 l 1
 -363 723 l 1
 -365 803 l 1
 -344 803 l 1
 -323 804 l 1
 -320 691 l 1
 -319 657 l 1
 -350 671 l 1
 -604 788 l 1
 -596 807 l 1
EndSplineSet
Validated: 1
EndChar

StartChar: lt_xu
Encoding: 387 -1 158
Width: 0
VWidth: 0
Flags: W
HStem: 671 42<-606 -326>
VStem: -326 43<713 799>
LayerCount: 2
Fore
SplineSet
-606 693 m 1
 -606 714 l 1
 -326 713 l 1
 -328 799 l 1
 -308 800 l 1
 -287 801 l 1
 -283 692 l 1
 -283 671 l 1
 -304 671 l 1
 -606 672 l 1
 -606 693 l 1
EndSplineSet
Validated: 1
EndChar

StartChar: lt_PP
Encoding: 523 -1 159
Width: 1000
Flags: W
HStem: -53 41<390.331 429.021>
VStem: 192 42<82.3125 195.7>
LayerCount: 2
Fore
SplineSet
215 366 m 5
 643 327 l 5
 640 285 l 5
 210 324 l 5
 215 366 l 5
194 531 m 1
 180 546 l 1
 194 560 l 1
 193 559 195 560 194 560 c 1
 261 625 345 669 452 650 c 0
 482 644 515 633 545 616 c 0
 601 585 662 526 625 460 c 0
 577 375 491 359 418 307 c 0
 321 239 229 218 233 128 c 0
 233 126 234 124 234 122 c 0
 242 62 333 29 415 39 c 0
 499 49 552 113 604 190 c 2
 616 207 l 1
 633 196 l 1
 651 184 l 1
 639 167 l 2
 587 90 524 11 420 -2 c 0
 335 -12 204 15 192 117 c 0
 191 119 192 124 192 126 c 0
 185 251 313 285 393 341 c 0
 478 400 550 414 588 482 c 0
 605 513 581 548 525 579 c 0
 499 594 469 604 445 608 c 0
 356 625 285 589 223 530 c 2
 208 515 l 1
 194 531 l 1
390 -82 m 0
 392 -101 403 -109 410 -108 c 0
 422 -107 434 -97 432 -82 c 0
 430 -64 416 -51 401 -53 c 0
 396 -53 388 -62 390 -82 c 0
349 -88 m 0
 346 -61 355 -14 398 -12 c 0
 438 -9 468 -41 472 -76 c 0
 477 -111 452 -148 413 -150 c 0
 373 -152 353 -116 349 -88 c 0
EndSplineSet
Validated: 37
Ligature2: "ltligs1" P P
EndChar

StartChar: lt_PT
Encoding: 524 -1 160
Width: 1000
Flags: W
HStem: 533 46<238 402 404 440 443 584> 633 43<394 443>
VStem: 392 42<-8 436.667> 401 41<194 579>
LayerCount: 2
Fore
SplineSet
413 -8 m 5xe0
 392 -8 l 5
 392 12 l 5xe0
 401 558 l 5
 402 579 l 5
 422 579 l 5
 443 579 l 5
 442 558 l 5xd0
 434 12 l 5
 434 -8 l 5
 413 -8 l 5xe0
189 485 m 5
 170 494 l 5
 180 513 l 5
 207 564 l 5
 212 575 l 5
 225 575 l 5
 593 578 l 5
 604 578 l 5
 611 570 l 5
 649 519 l 5
 662 502 l 5
 645 490 l 5
 628 478 l 5
 616 494 l 5
 584 537 l 5
 238 533 l 5
 217 493 l 5
 207 475 l 5
 189 485 l 5
420 595 m 5
 443 633 l 5
 394 633 l 5
 420 595 l 5
404 545 m 5
 338 642 l 5
 316 673 l 5
 355 674 l 5
 480 676 l 5
 517 677 l 5
 498 644 l 5
 440 546 l 5
 423 518 l 5
 404 545 l 5
114 383 m 1
 732 335 l 1
 728 293 l 1
 110 342 l 1
 114 383 l 1
EndSplineSet
Validated: 5
Ligature2: "ltligs1" P T
EndChar

StartChar: lt_PK
Encoding: 525 -1 161
Width: 1000
Flags: W
HStem: 22 43<509 691> 640 20G<649.923 722.836>
LayerCount: 2
Fore
SplineSet
566 263 m 1
 582 293 l 1
 602 265 l 1
 748 60 l 1
 771 28 l 1
 732 28 l 1
 474 22 l 1
 440 22 l 1
 456 52 l 1
 566 263 l 1
587 214 m 1
 509 65 l 1
 691 68 l 1
 587 214 l 1
673 447 m 1
 652 452 l 1
 632 456 l 1
 638 477 l 1
 659 574 l 1
 89 18 l 1
 73 4 l 1
 59 18 l 1
 44 34 l 1
 60 48 l 1
 612 588 l 1
 509 562 l 1
 499 602 l 1
 525 608 l 1
 728 660 l 1
 673 447 l 1
114 383 m 1
 732 335 l 1
 728 293 l 1
 110 342 l 1
 114 383 l 1
EndSplineSet
Validated: 5
Ligature2: "ltligs1" P K
EndChar

StartChar: lt_PF
Encoding: 526 -1 162
Width: 1000
Flags: W
HStem: 18 21G<112 142> 632 20G<399 430 635 657>
VStem: 395 42<15 622> 635 42<492.919 651> 732 39<482.113 545.538>
LayerCount: 2
Fore
SplineSet
758 552 m 5
 777 545 l 5
 771 525 l 6
 738 424 720 366 636 290 c 4
 543 207 428 292 356 244 c 4
 255 178 221 129 142 33 c 6
 128 18 l 5
 112 31 l 5
 97 43 l 5
 110 60 l 6
 188 153 226 210 332 279 c 4
 440 350 541 261 608 321 c 4
 685 390 699 436 732 538 c 6
 738 558 l 5
 758 552 l 5
657 651 m 5
 677 651 l 5
 677 630 l 6
 675 528 666 459 580 382 c 4
 487 299 370 386 298 338 c 4
 197 272 164 223 85 127 c 6
 72 110 l 5
 57 123 l 5
 40 138 l 5
 52 153 l 6
 130 246 171 303 277 372 c 4
 385 443 485 354 552 414 c 4
 628 482 633 530 635 631 c 6
 635 652 l 5
 657 651 l 5
399 638 m 1
 415 654 l 1
 430 637 l 1
 590 452 l 1
 574 438 l 1
 558 423 l 1
 413 592 l 1
 250 421 l 1
 235 435 l 1
 219 449 l 1
 399 638 l 1
412 622 m 1
 433 622 l 1
 433 616 l 1
 437 35 l 1
 437 15 l 1
 416 14 l 1
 395 14 l 1
 395 35 l 1
 392 616 l 1
 392 622 l 1
 412 622 l 1
114 383 m 1
 732 335 l 1
 728 293 l 1
 110 342 l 1
 114 383 l 1
EndSplineSet
Validated: 37
Ligature2: "ltligs1" P F
EndChar

StartChar: lt_PN
Encoding: 527 -1 163
Width: 1000
Flags: W
HStem: 18 43<188 638> 635 20G<677.212 696.362>
VStem: 656 40<268.727 552> 664 43<94 434.273>
LayerCount: 2
Fore
SplineSet
638 61 m 5xc0
 416 298 l 5
 188 57 l 5
 638 61 l 5xc0
656 552 m 5xe0
 445 329 l 5
 664 94 l 5xd0
 656 552 l 5xe0
417 358 m 5
 696 655 l 5xe0
 707 48 l 5
 707 18 l 5
 685 18 l 5
 666 18 l 5
 91 13 l 5
 388 328 l 5
 131 604 l 5
 161 632 l 5
 417 358 l 5
114 383 m 1
 732 335 l 1
 728 293 l 1
 110 342 l 1
 114 383 l 1
EndSplineSet
Validated: 5
Ligature2: "ltligs1" P N
EndChar

StartChar: lt_PM
Encoding: 528 -1 164
Width: 1000
Flags: W
HStem: 8 42<198 677> 178 41<427.371 649> 419 43<198 353.109> 639 20G<157.939 199>
VStem: 156 42<50 419 462 659>
LayerCount: 2
Fore
SplineSet
199 659 m 5
 198 462 l 5
 276 464 362 465 425 393 c 4
 430 387 433 380 435 372 c 4
 443 324 366 283 358 272 c 5
 441 210 496 227 632 219 c 6
 652 218 l 5
 651 198 l 5
 649 177 l 5
 628 178 l 6
 501 186 430 166 332 240 c 4
 324 247 317 255 315 266 c 4
 313 280 321 290 327 298 c 4
 350 328 390 354 393 365 c 5
 344 423 278 421 198 419 c 5
 198 50 l 5
 677 53 l 5
 678 12 l 5
 156 8 l 5
 158 659 l 5
 199 659 l 5
114 383 m 1
 732 335 l 1
 728 293 l 1
 110 342 l 1
 114 383 l 1
EndSplineSet
Validated: 37
Ligature2: "ltligs1" P M
EndChar

StartChar: lt_PZ
Encoding: 529 -1 165
Width: 1000
Flags: W
HStem: 624 41G<131.5 135 529 558>
VStem: 404 42<224.094 445.913>
LayerCount: 2
Fore
SplineSet
558 632 m 5
 575 619 l 5
 562 602 l 6
 484 494 442 434 446 313 c 4
 450 196 505 144 583 39 c 6
 596 22 l 5
 579 10 l 5
 562 -2 l 5
 550 14 l 6
 473 116 408 180 404 312 c 4
 400 446 451 520 529 627 c 6
 541 644 l 5
 558 632 l 5
713 330 m 1
 118 2 l 1
 111 14 105 26 98 38 c 1
 275 136 451 234 628 332 c 1
 115 629 l 1
 122 641 128 653 135 665 c 1
 135 665 526 438 713 330 c 1
114 383 m 1
 732 335 l 1
 728 293 l 1
 110 342 l 1
 114 383 l 1
EndSplineSet
Validated: 37
Ligature2: "ltligs1" P Z
EndChar

StartChar: lt_PY
Encoding: 530 -1 166
Width: 1000
Flags: W
HStem: -2 41<337.357 513.92> 528 41<361.967 490.296> 652 20G<409 436>
VStem: 160 42<184.237 335.208> 664 42<189.772 292.906>
LayerCount: 2
Fore
SplineSet
260 478 m 1
 247 493 l 1
 262 508 l 1
 409 660 l 1
 422 672 l 1
 436 661 l 1
 593 511 l 1
 610 498 l 1
 598 482 l 1
 584 466 l 1
 568 478 l 1
 424 618 l 1
 290 478 l 1
 275 463 l 1
 260 478 l 1
423 528 m 0
 302 530 205 410 202 282 c 0
 200 160 298 41 416 39 c 0
 552 37 660 143 664 280 c 0
 668 415 559 526 423 528 c 0
423 569 m 0
 581 567 710 438 706 278 c 0
 702 120 574 -4 415 -2 c 0
 269 0 157 140 160 282 c 0
 163 426 272 571 423 569 c 0
114 383 m 1
 732 335 l 1
 728 293 l 1
 110 342 l 1
 114 383 l 1
EndSplineSet
Validated: 37
Ligature2: "ltligs1" P Y
EndChar

StartChar: lt_PC
Encoding: 531 -1 167
Width: 1000
Flags: W
HStem: 3 42<143 683> 628 42<402.175 439.021>
LayerCount: 2
Fore
SplineSet
401 600 m 4
 403 581 413 572 420 573 c 4
 432 574 443 586 441 601 c 4
 439 619 426 630 411 628 c 4
 406 628 399 620 401 600 c 4
359 593 m 4
 356 620 365 668 408 670 c 4
 448 673 478 642 482 607 c 4
 487 572 462 534 423 532 c 4
 383 530 363 565 359 593 c 4
398 533 m 1
 415 562 l 1
 432 533 l 1
 738 35 l 1
 758 2 l 1
 721 2 l 1
 106 3 l 1
 68 3 l 1
 88 35 l 1
 398 533 l 1
415 483 m 1
 143 45 l 1
 683 44 l 1
 415 483 l 1
114 383 m 1
 732 335 l 1
 728 293 l 1
 110 342 l 1
 114 383 l 1
EndSplineSet
Validated: 37
Ligature2: "ltligs1" P C
EndChar

StartChar: lt_PX
Encoding: 532 -1 168
Width: 1000
Flags: W
HStem: 98 40<266.938 324.214> 623 20G<698 718>
VStem: 125 42<542.333 594.781> 266 42<98 306.978> 677 41<163.889 642> 685 42<12 491.111>
LayerCount: 2
Fore
SplineSet
698 642 m 1xf8
 718 643 l 1
 718 622 l 1xf8
 727 33 l 1
 727 12 l 1
 707 12 l 1
 685 12 l 1
 685 33 l 1xf4
 677 622 l 1
 677 642 l 1
 698 642 l 1xf8
287 98 m 1
 266 98 l 1
 267 118 l 2
 269 180 241 235 275 307 c 0
 332 429 469 413 448 498 c 0
 426 585 327 578 212 599 c 0
 209 600 204 600 199 599 c 0
 177 595 165 578 167 564 c 2
 170 543 l 1
 149 540 l 1
 129 536 l 1
 125 557 l 2
 117 602 156 633 192 640 c 0
 201 642 209 642 219 640 c 0
 317 622 457 631 488 508 c 0
 517 390 345 358 313 290 c 0
 287 235 310 196 308 118 c 2
 308 97 l 1
 287 98 l 1
287 68 m 4
 289 49 300 41 307 42 c 4
 319 43 329 53 327 68 c 4
 325 86 313 99 298 97 c 4
 293 97 285 88 287 68 c 4
245 62 m 4
 242 89 250 136 293 138 c 4
 333 141 364 109 368 74 c 4
 373 39 348 2 309 0 c 4
 269 -2 249 34 245 62 c 4
114 383 m 1
 732 335 l 1
 728 293 l 1
 110 342 l 1
 114 383 l 1
EndSplineSet
Validated: 37
Ligature2: "ltligs1" P X
EndChar

StartChar: lt_PL
Encoding: 533 -1 169
Width: 1000
Flags: W
HStem: -4 42<447.977 689.65> 649 20G<362 392.556>
VStem: 348 42<123.917 322 368 596>
LayerCount: 2
Fore
SplineSet
389 331 m 1
 388 261 390 191 402 113 c 0
 412 51 492 40 588 38 c 0
 668 36 688 53 756 107 c 2
 772 119 l 1
 785 102 l 1
 798 87 l 1
 782 73 l 2
 714 19 677 -6 587 -4 c 0
 501 -2 377 3 361 107 c 0
 349 184 347 254 348 322 c 1
 102 452 l 1
 70 469 l 1
 101 488 l 1
 362 650 l 1
 392 669 l 1
 393 633 l 2
 396 523 392 433 390 346 c 1
 389 341 l 1
 389 331 l 1
348 368 m 1
 350 440 354 511 352 596 c 1
 153 472 l 1
 348 368 l 1
114 383 m 1
 732 335 l 1
 728 293 l 1
 110 342 l 1
 114 383 l 1
EndSplineSet
Validated: 37
Ligature2: "ltligs1" P L
EndChar

StartChar: lt_PW
Encoding: 534 -1 170
Width: 1000
Flags: W
HStem: 110 42<141 703> 502 42<142 705> 665 20G<398.276 422.857>
LayerCount: 2
Fore
SplineSet
452 -2 m 5
 435 -31 l 5
 418 -2 l 5
 87 512 l 5
 66 544 l 5
 104 544 l 5
 742 545 l 5
 778 545 l 5
 760 513 l 5
 452 -2 l 5
434 48 m 5
 705 503 l 5
 142 502 l 5
 434 48 l 5
393 656 m 5
 410 685 l 5
 428 657 l 5
 759 142 l 5
 780 110 l 5
 742 110 l 5
 104 109 l 5
 68 109 l 5
 86 141 l 5
 393 656 l 5
412 606 m 5
 141 151 l 5
 703 152 l 5
 412 606 l 5
114 383 m 1
 732 335 l 1
 728 293 l 1
 110 342 l 1
 114 383 l 1
EndSplineSet
Validated: 5
Ligature2: "ltligs1" P W
EndChar

StartChar: lt_PD
Encoding: 535 -1 171
Width: 1000
Flags: W
HStem: 642 20G<153 182 651 680>
LayerCount: 2
Fore
SplineSet
680 648 m 1
 696 635 l 1
 682 619 l 1
 182 3 l 1
 169 -12 l 1
 153 1 l 1
 138 14 l 1
 151 30 l 1
 651 646 l 1
 664 662 l 1
 680 648 l 1
153 648 m 1
 169 662 l 1
 182 646 l 1
 682 30 l 1
 696 14 l 1
 680 1 l 1
 664 -12 l 1
 651 3 l 1
 151 619 l 1
 138 635 l 1
 153 648 l 1
114 383 m 1
 732 335 l 1
 728 293 l 1
 110 342 l 1
 114 383 l 1
EndSplineSet
Validated: 5
Ligature2: "ltligs1" P D
EndChar

StartChar: lt_PB
Encoding: 536 -1 172
Width: 1000
Flags: W
HStem: 22 41<461.655 633.683> 293 42<641.875 728.667>
VStem: 113 42<145.229 486.418> 300 41<384.638 487> 640 41<63.6001 134.176>
LayerCount: 2
Fore
SplineSet
321 489 m 5
 341 492 l 5
 343 471 l 6
 352 404 357 365 385 367 c 4
 417 370 418 432 416 483 c 6
 416 488 l 5
 457 485 l 6
 463 484 467 431 469 419 c 4
 488 337 488 282 436 211 c 4
 426 197 410 192 397 193 c 4
 364 195 318 229 321 268 c 6
 323 290 l 5
 343 288 l 5
 365 285 l 5
 362 265 l 6
 363 258 390 233 402 235 c 4
 434 280 445 338 441 381 c 5
 431 366 412 327 390 325 c 4
 309 317 309 422 302 465 c 6
 300 486 l 5
 321 489 l 5
648 552 m 5
 630 540 l 5
 618 557 l 6
 600 582 572 620 558 619 c 4
 393 609 300 622 209 529 c 4
 140 458 154 429 155 332 c 4
 156 233 145 159 217 87 c 4
 307 -4 425 53 627 63 c 5
 633 73 638 105 640 120 c 6
 643 141 l 5
 664 138 l 5
 684 133 l 5
 681 113 l 6
 680 106 681 24 633 22 c 4
 445 13 301 -57 187 58 c 4
 102 144 114 238 113 331 c 4
 112 424 96 473 179 558 c 4
 292 674 404 654 559 661 c 4
 601 663 634 607 652 582 c 6
 664 564 l 5
 648 552 l 5
114 383 m 1
 732 335 l 1
 728 293 l 1
 110 342 l 1
 114 383 l 1
EndSplineSet
Validated: 37
Ligature2: "ltligs1" P B
EndChar

StartChar: lt_PA
Encoding: 537 -1 173
Width: 1000
Flags: W
HStem: -2 42<158 684> 471 41<395.313 437.094> 603 42<231.493 310.818 531.384 594.327>
LayerCount: 2
Fore
SplineSet
402 413 m 1
 418 433 l 1
 433 413 l 1
 743 32 l 1
 772 -2 l 1
 728 -2 l 1
 114 -2 l 1
 71 -2 l 1
 98 32 l 1
 402 413 l 1
418 367 m 1
 158 40 l 1
 684 39 l 1
 418 367 l 1
140 482 m 1
 122 493 l 1
 132 512 l 2
 164 567 197 647 285 645 c 0
 387 643 375 513 414 512 c 0
 444 511 473 644 551 641 c 0
 630 637 667 567 708 512 c 2
 720 496 l 1
 703 483 l 1
 687 471 l 1
 674 488 l 2
 628 550 601 597 549 599 c 0
 524 601 494 469 412 471 c 0
 316 473 336 601 284 603 c 0
 228 605 207 555 168 490 c 2
 158 472 l 1
 140 482 l 1
114 383 m 1
 732 335 l 1
 728 293 l 1
 110 342 l 1
 114 383 l 1
EndSplineSet
Validated: 37
Ligature2: "ltligs1" P A
EndChar

StartChar: lt_PI
Encoding: 538 -1 174
Width: 1000
Flags: W
LayerCount: 2
Fore
SplineSet
718 517 m 1
 702 506 l 1
 690 523 l 2
 688 525 687 527 685 529 c 0
 637 597 565 637 514 602 c 0
 402 524 350 315 382 177 c 0
 390 141 409 109 432 86 c 0
 497 21 608 7 702 102 c 2
 717 118 l 1
 732 102 l 1
 746 88 l 1
 732 73 l 2
 623 -37 484 -25 402 57 c 0
 373 86 350 124 340 167 c 0
 304 319 358 544 490 636 c 0
 573 694 669 625 720 553 c 0
 722 551 723 548 725 546 c 2
 736 528 l 1
 718 517 l 1
101 482 m 1
 82 490 l 1
 90 510 l 2
 102 537 123 565 146 592 c 0
 197 648 281 702 349 640 c 0
 501 500 557 339 498 138 c 0
 481 82 454 42 418 18 c 0
 321 -47 189 12 110 130 c 2
 98 148 l 1
 116 159 l 1
 133 171 l 1
 144 153 l 2
 217 44 327 7 395 52 c 0
 422 70 443 102 458 150 c 0
 513 336 464 478 321 610 c 0
 283 645 227 620 177 564 c 0
 156 541 138 514 128 492 c 2
 119 473 l 1
 101 482 l 1
114 383 m 1
 732 335 l 1
 728 293 l 1
 110 342 l 1
 114 383 l 1
EndSplineSet
Validated: 37
Ligature2: "ltligs1" P I
EndChar

StartChar: lt_PR
Encoding: 539 -1 175
Width: 1000
Flags: W
HStem: 1 40<494.7 546.43> 651 20G<318 346 486 512>
VStem: 65 42<246.734 444.111> 697 41<121.659 206.263 450.006 536.998>
LayerCount: 2
Fore
SplineSet
486 652 m 1
 493 671 l 1
 512 664 l 2
 600 632 737 605 739 482 c 0
 741 376 539 350 532 340 c 1
 540 324 738 278 738 168 c 0
 738 56 593 29 515 7 c 2
 495 1 l 1
 489 21 l 1
 483 41 l 1
 503 47 l 1
 595 74 697 100 697 168 c 0
 697 248 489 254 489 340 c 0
 489 431 700 407 698 481 c 0
 696 566 599 589 498 624 c 2
 479 632 l 1
 486 652 l 1
346 654 m 1
 356 636 l 1
 337 627 l 2
 209 561 105 484 107 348 c 0
 109 200 206 115 348 50 c 2
 366 41 l 1
 357 22 l 1
 348 3 l 1
 330 12 l 2
 183 80 67 179 65 348 c 0
 63 510 190 597 318 663 c 2
 337 673 l 1
 346 654 l 1
114 383 m 1
 732 335 l 1
 728 293 l 1
 110 342 l 1
 114 383 l 1
EndSplineSet
Validated: 37
Ligature2: "ltligs1" P R
EndChar

StartChar: lt_PO
Encoding: 540 -1 176
Width: 1000
Flags: W
HStem: 233 42<392.175 430.562> 675 20G<409.915 426.333>
LayerCount: 2
Fore
SplineSet
391 204 m 4
 393 185 403 177 410 178 c 4
 422 179 434 191 432 206 c 4
 430 224 416 235 401 233 c 4
 396 233 389 224 391 204 c 4
349 198 m 4
 346 225 355 273 398 275 c 4
 438 278 468 246 472 211 c 4
 477 176 452 139 413 137 c 4
 373 135 353 170 349 198 c 4
157 -1 m 1
 138 7 l 1
 146 27 l 1
 399 648 l 1
 418 695 l 1
 438 647 l 1
 685 23 l 1
 692 3 l 1
 673 -4 l 1
 653 -12 l 1
 646 8 l 1
 418 583 l 1
 184 10 l 1
 177 -9 l 1
 157 -1 l 1
114 383 m 1
 732 335 l 1
 728 293 l 1
 110 342 l 1
 114 383 l 1
EndSplineSet
Validated: 37
Ligature2: "ltligs1" P O
EndChar

StartChar: lt_PV
Encoding: 541 -1 177
Width: 1000
Flags: W
HStem: 658 20G<539 564.154>
VStem: 231 41<254.638 449.012> 364 42<256.824 423.815>
LayerCount: 2
Fore
SplineSet
569 652 m 1
 561 642 l 2
 483 542 404 407 406 353 c 0
 408 293 454 134 572 24 c 2
 578 18 l 1
 562 -14 l 1
 552 -11 l 2
 345 47 238 186 231 352 c 0
 224 511 361 619 539 675 c 2
 548 678 l 1
 569 652 l 1
487 612 m 1
 350 554 267 466 272 354 c 0
 277 227 346 121 485 58 c 1
 400 168 366 291 364 352 c 0
 362 419 423 522 487 612 c 1
114 383 m 1
 732 335 l 1
 728 293 l 1
 110 342 l 1
 114 383 l 1
EndSplineSet
Validated: 37
Ligature2: "ltligs1" P V
EndChar

StartChar: lt_TP
Encoding: 542 -1 178
Width: 1000
Flags: W
HStem: 533 42<238 404 440 584> 633 43<394 443>
VStem: 248.899 42.9935<65.8909 100.8>
LayerCount: 2
Fore
SplineSet
272.453729995 297.779175038 m 1
 614.85412062 266.578979726 l 1
 619.737077969 266.134035073 l 1
 619.387679709 261.243312317 l 1
 616.987289084 227.643702942 l 1
 616.624109699 222.560078071 l 1
 611.548362608 223.02043941 l 1
 267.548362608 254.220634723 l 1
 262.427177449 254.685117215 l 1
 263.035059436 259.791266537 l 1
 267.035059436 293.390875912 l 1
 267.610026465 298.220542806 l 1
 272.453729995 297.779175038 l 1
242.785120638 442.787688828 m 1
 251.718616637 451.588678019 l 2
 305.993693696 504.243987265 374.84337142 540.483800307 462.527084327 524.913524091 c 0
 487.102545105 519.998631931 513.882141729 511.080837761 538.443419011 497.162180994 c 0
 583.201202043 472.385638213 636.38841624 422.684830909 604.353757127 365.54138273 c 0
 564.789055449 295.479602881 494.255293279 282.098120924 437.285964971 241.516250778 c 0
 357.618911956 185.668205924 288.38058983 170.452824769 291.400390625 102.511453692 c 0
 291.400390625 100.279090251 291.858298129 100.42181221 291.892517385 100.239239874 c 0
 298.120560152 53.5246422748 366.307480138 28.2258875235 431.408937245 36.1651368851 c 0
 496.114360173 43.8681410358 537.441154978 93.1767123207 579.085531374 154.841163934 c 2
 588.714949113 168.48300233 l 1
 591.484193434 172.406145404 l 1
 595.515936096 169.797541029 l 1
 609.145336136 160.979093139 l 1
 623.573305669 151.360446784 l 1
 627.845807428 148.512112278 l 1
 624.884757803 144.316940547 l 1
 615.314906589 130.758515535 l 2
 573.728652999 69.180128627 522.279748067 4.14581964717 436.602179926 -6.56324784505 c 0
 367.66741848 -14.6732197798 259.418017447 8.27975067134 248.899011143 90.8953718329 c 0
 247.282584503 99.9243678945 248.599609375 98.9833275606 248.599609375 100.799804688 c 2
 248.599609375 100.799804688 383.327365836 257.152003491 411.549309275 276.907277771 c 0
 480.757752624 324.946278409 536.897077273 335.897197151 566.025912239 388.021249568 c 0
 577.259899423 408.507989373 562.485434986 433.966576559 517.539705863 458.847160561 c 0
 497.234830114 470.561621954 473.821205782 478.361062847 455.119826073 481.478117997 c 0
 385.842234129 494.710500082 330.798298011 466.960970373 281.892112939 420.420654502 c 2
 269.935924531 408.464466094 l 1
 266.156901705 404.685443268 l 1
 262.637560504 408.707415987 l 1
 251.4902018 421.446837953 l 1
 240.344753335 433.38818164 l 1
 237.048716063 436.919588563 l 1
 240.464466094 440.335338593 l 1
 242.785120638 442.787688828 l 1
189 485 m 1
 170 494 l 1
 180 513 l 1
 207 564 l 1
 212 575 l 1
 225 575 l 1
 593 578 l 1
 604 578 l 1
 611 570 l 1
 649 519 l 1
 662 502 l 1
 645 490 l 1
 628 478 l 1
 616 494 l 1
 584 537 l 1
 238 533 l 1
 217 493 l 1
 207 475 l 1
 189 485 l 1
420 595 m 1
 443 633 l 1
 394 633 l 1
 420 595 l 1
404 545 m 1
 338 642 l 1
 316 673 l 1
 355 674 l 1
 480 676 l 1
 517 677 l 1
 498 644 l 1
 440 546 l 1
 422 544 l 1
 404 545 l 1
EndSplineSet
Validated: 524325
Ligature2: "ltligs1" T P
EndChar

StartChar: lt_TT
Encoding: 543 -1 179
Width: 1000
Flags: W
HStem: -53 41<390.331 429.021> 533 46<238 402 404 440 443 584> 633 43<394 443>
VStem: 392 42<-8 436.667> 401 41<194 579>
LayerCount: 2
Fore
SplineSet
413 -8 m 5xf0
 392 -8 l 5
 392 12 l 5xf0
 401 558 l 5
 402 579 l 5
 422 579 l 5
 443 579 l 5
 442 558 l 5xe8
 434 12 l 5
 434 -8 l 5
 413 -8 l 5xf0
189 485 m 5
 170 494 l 5
 180 513 l 5
 207 564 l 5
 212 575 l 5
 225 575 l 5
 593 578 l 5
 604 578 l 5
 611 570 l 5
 649 519 l 5
 662 502 l 5
 645 490 l 5
 628 478 l 5
 616 494 l 5
 584 537 l 5
 238 533 l 5
 217 493 l 5
 207 475 l 5
 189 485 l 5
420 595 m 5
 443 633 l 5
 394 633 l 5
 420 595 l 5
404 545 m 5
 338 642 l 5
 316 673 l 5
 355 674 l 5
 480 676 l 5
 517 677 l 5
 498 644 l 5
 440 546 l 5
 423 518 l 5
 404 545 l 5
390 -82 m 0
 392 -101 403 -109 410 -108 c 0
 422 -107 434 -97 432 -82 c 0
 430 -64 416 -51 401 -53 c 0xe8
 396 -53 388 -62 390 -82 c 0
349 -88 m 0
 346 -61 355 -14 398 -12 c 0
 438 -9 468 -41 472 -76 c 0
 477 -111 452 -148 413 -150 c 0
 373 -152 353 -116 349 -88 c 0
EndSplineSet
Validated: 37
Ligature2: "ltligs1" T T
EndChar

StartChar: lt_TK
Encoding: 544 -1 180
Width: 1000
Flags: W
HStem: 12.5996 44.5385<515.534 643.211> 533 42<238 404 440 584> 633 43<394 443>
LayerCount: 2
Fore
SplineSet
548.376978537 212.732591276 m 1
 561.187829761 236.753303849 l 1
 564.982000558 243.867482647 l 1
 569.668300701 237.306548036 l 1
 585.672290708 214.90056318 l 1
 702.46049042 50.9181483266 l 1
 720.859904482 25.3185389516 l 1
 726.550979199 17.400390625 l 1
 716.799804688 17.400390625 l 1
 685.657750675 17.400390625 l 1
 479.258336613 12.599609375 l 1
 452 12.599609375 l 1
 443.666726505 12.599609375 l 1
 447.588220386 19.9525225991 l 1
 460.376978537 43.9318100263 l 1
 548.376978537 212.732591276 l 1
570.252270877 161.666004401 m 1
 515.533550457 57.1380651671 l 1
 643.211421129 59.2429936425 l 1
 570.252270877 161.666004401 l 1
144.602850451 42.0717229098 m 1
 572.857949533 461.017299119 l 1
 508.423996326 444.751691154 l 1
 503.564945654 443.525079882 l 1
 502.349482812 448.38693125 l 1
 494.349482812 480.38693125 l 1
 493.114602154 485.326453883 l 1
 498.075714018 486.471522943 l 1
 518.817232653 491.25885125 l 1
 681.159675756 532.8436171 l 1
 689.357301441 534.943476743 l 1
 687.241600494 526.7499252 l 1
 643.241600494 356.349534575 l 1
 642.015008913 351.599269018 l 1
 637.242338952 352.735566168 l 1
 620.52991159 356.714530506 l 1
 604.618971152 359.896912819 l 1
 599.302274657 360.960317019 l 1
 600.792052916 366.173631785 l 1
 605.548069234 382.816786528 l 1
 618.797885694 444.019493346 l 1
 174.691499903 10.8211739154 l 1
 174.594624464 10.7266779142 l 1
 174.492779325 10.6375605041 l 1
 161.692974638 -0.562634808361 l 1
 158.172590113 -3.64307198777 l 1
 154.864856719 -0.335338593433 l 1
 143.607664956 10.9218531699 l 1
 131.552535328 23.7804618962 l 1
 128.013401466 27.5554804129 l 1
 131.9076113 30.9630254334 l 1
 144.602850451 42.0717229098 l 1
189 485 m 1
 170 494 l 1
 180 513 l 1
 207 564 l 1
 212 575 l 1
 225 575 l 1
 593 578 l 1
 604 578 l 1
 611 570 l 1
 649 519 l 1
 662 502 l 1
 645 490 l 1
 628 478 l 1
 616 494 l 1
 584 537 l 1
 238 533 l 1
 217 493 l 1
 207 475 l 1
 189 485 l 1
420 595 m 1
 443 633 l 1
 394 633 l 1
 420 595 l 1
404 545 m 1
 338 642 l 1
 316 673 l 1
 355 674 l 1
 480 676 l 1
 517 677 l 1
 498 644 l 1
 440 546 l 1
 422 544 l 1
 404 545 l 1
EndSplineSet
Validated: 524293
Ligature2: "ltligs1" T K
EndChar

StartChar: lt_TS
Encoding: 545 -1 181
Width: 1000
Flags: W
HStem: 210.756 43.8433<190.2 212> 533 42<238 404 409.4 422 440 584> 633 43<394 443>
VStem: 190.2 22.0376<211.805 254.6> 415 43.5996<-10.5996 462.215>
LayerCount: 2
Fore
SplineSet
641.773692203 248.510506135 m 0
 643.29895016 234.02567386 650.516481836 231.239106174 651.29216813 231.350034455 c 2
 651.438024737 231.370892916 l 1
 651.5848565 231.383126407 l 2
 658.510982237 231.96018612 665.053600052 238.267991816 663.836434216 247.393393766 c 0
 662.446875645 259.90281421 654.03933184 266.587799671 645.460464772 265.444229989 c 2
 645.131589252 265.400390625 l 1
 644.979850476 265.400390625 l 2
 643.988509093 264.756027322 640.57634469 260.486905194 641.773692203 248.510506135 c 0
598.239410702 241.77054047 m 0
 595.774365564 263.951935251 602.879339627 307.167683873 642.097200451 308.991304381 c 0
 677.077073781 311.615221881 703.118920703 283.54798624 706.559303872 253.437282269 c 0
 710.911678615 222.970659067 689.154344376 190.375989598 654.650017903 188.605844641 c 0
 618.908021486 186.819181123 601.609376828 218.181805956 598.239410702 241.77054047 c 0
211.871578994 254.597959907 m 0
 616.616686973 264.996945228 l 1
 638.355892465 266.031904787 l 1
 639.400390625 244.119097651 l 1
 639.400390625 222.443891226 l 1
 618.584278319 221.403339714 l 1
 212.118084387 211.801199274 l 1024
212 244.599609375 m 1
 212.237770573 211.805461372 l 1
 190.200195312 210.756297032 l 1
 190.200195312 232.680852113 l 1
 189.156687657 254.599609375 l 1
 212 254.599609375 l 1
 212 244.599609375 l 1
436.799804688 -10.599609375 m 1
 420 -10.599609375 l 1
 415 -10.599609375 l 1
 415 -5.599609375 l 1
 415 11.1722428537 l 1
 409.400390625 511.972047541 l 1
 409.400390625 550.400390625 l 1
 409.400390625 561.746797689 l 1
 417.774278683 554.090496229 l 1
 445.756787346 528.505826956 l 1
 615.324733045 374.93489411 l 1
 628.0923887 363.762830121 l 1
 631.986598534 360.3552851 l 1
 628.447464672 356.580266584 l 1
 616.506140557 343.843048552 l 1
 605.362439496 331.107806612 l 1
 601.962606807 327.222410583 l 1
 598.188145313 330.744995578 l 1
 586.217201035 341.917097546 l 1
 453.138478306 462.214579893 l 1
 458.599609375 12.0303260838 l 1
 458.599609375 -5.599609375 l 1
 458.599609375 -10.599609375 l 1
 453.599609375 -10.599609375 l 1
 436.799804688 -10.599609375 l 1
189 485 m 1
 170 494 l 1
 180 513 l 1
 207 564 l 1
 212 575 l 1
 225 575 l 1
 593 578 l 1
 604 578 l 1
 611 570 l 1
 649 519 l 1
 662 502 l 1
 645 490 l 1
 628 478 l 1
 616 494 l 1
 584 537 l 1
 238 533 l 1
 217 493 l 1
 207 475 l 1
 189 485 l 1
420 595 m 1
 443 633 l 1
 394 633 l 1
 420 595 l 1
404 545 m 1
 338 642 l 1
 316 673 l 1
 355 674 l 1
 480 676 l 1
 517 677 l 1
 498 644 l 1
 440 546 l 1
 422 544 l 1
 404 545 l 1
EndSplineSet
Validated: 524331
Ligature2: "ltligs1" T S
EndChar

StartChar: lt_TF
Encoding: 546 -1 182
Width: 1000
Flags: W
HStem: 533 42<238 404 440 584> 633 43<394 443>
VStem: 411 43.5996<7.23238 28.0172 466.148 502.6> 603 43.5996<386.655 504.849 519 525.8>
LayerCount: 2
Fore
SplineSet
708.12888948 446.291335252 m 1
 723.32810823 440.691725877 l 1
 727.73964362 439.066453202 l 1
 726.388756891 434.563314206 l 1
 721.571461982 418.505011095 l 2
 695.176193728 337.717895347 680.192332276 289.850099604 612.141774438 228.280924007 c 0
 535.116060873 159.536599426 440.292781495 226.18536725 387.554152694 191.027175516 c 0
 307.309301667 138.590013349 280.85199014 100.255622914 217.460412411 23.2232535617 c 2
 217.361361137 23.1028881349 l 1
 217.255004422 22.9889265625 l 1
 206.055785672 10.9889265625 l 1
 202.870785204 7.57618800774 l 1
 199.24765042 10.5196395119 l 1
 186.461399539 20.9072490356 l 1
 174.476017896 30.4961395733 l 1
 170.656316986 33.5520868104 l 1
 173.627917354 37.4377681935 l 1
 184.028307979 51.0373775685 l 1
 184.096698048 51.1268048072 l 1
 184.169043882 51.2130632144 l 2
 246.33038737 125.328436387 277.420766408 171.766376145 362.852963311 227.378225398 c 0
 452.979175258 286.627393125 533.239852462 215.905695818 583.063571837 260.523464228 c 0
 643.893082866 315.033564595 654.403603626 350.21721625 680.825911865 431.888568087 c 2
 685.611323564 447.837344585 l 1
 687.048277523 452.626411646 l 1
 691.837344585 451.189457686 l 1
 707.837344585 446.388676436 l 1
 707.984613707 446.344488509 l 1
 708.12888948 446.291335252 l 1
625.71316192 525.799804688 m 1
 641.599609375 525.799804688 l 1
 646.599609375 525.799804688 l 1
 646.599609375 520.799804688 l 1
 646.599609375 503.950996833 l 2
 644.993501113 422.01986486 637.414420612 364.620632212 567.329255575 301.869186166 c 0
 490.302357515 233.125717816 393.825964239 301.341223348 341.154761113 266.2273856 c 0
 260.968896259 213.828432966 235.201131429 175.393543068 171.917503909 98.4913751262 c 2
 161.571301396 84.9626224315 l 1
 158.34200761 80.7399796845 l 1
 154.324886446 84.2216154595 l 1
 142.308102155 94.6365530158 l 1
 128.69183839 106.651248488 l 1
 125.119445025 109.80345082 l 1
 128.095593955 113.523788364 l 1
 137.731418703 125.569059422 l 2
 200.032948936 199.850603145 233.440465921 246.179596955 318.852930338 301.777617784 c 0
 408.979544075 361.028068328 488.438401122 290.304673109 538.265678814 334.926441012 c 0
 597.91478578 388.295434002 601.403918256 424.227676561 603 504.849292823 c 2
 603 521.599609375 l 1
 603 526.831991993 l 1
 608.226988017 526.594454362 l 1
 625.71316192 525.799804688 l 1
415.621550409 513.892813534 m 1
 428.464466094 526.735729218 l 1
 432.227950074 530.499213198 l 1
 435.749259982 526.508223363 l 1
 447.765630136 512.889083786 l 1
 575.781815862 364.87036904 l 1
 579.033848022 361.110206855 l 1
 575.292421411 357.836636979 l 1
 562.557263239 346.693980848 l 1
 549.820124041 334.752730641 l 1
 546.008166749 331.178966148 l 1
 542.605702337 335.144574168 l 1
 430.205359309 466.148354898 l 1
 303.619171714 333.349935689 l 1
 300.205389021 329.768621221 l 1
 296.588376953 333.144558022 l 1
 284.647033266 344.290006488 l 1
 271.9076113 355.437365192 l 1
 267.982676373 358.871795547 l 1
 271.579503433 362.648468839 l 1
 415.621550409 513.892813534 l 1
429.599609375 502.599609375 m 1
 446.400390625 502.599609375 l 1
 451.400390625 502.599609375 l 1
 451.400390625 497.599609375 l 1
 451.400390625 492.817011993 l 1
 454.599609375 28.0172073053 l 1
 454.599609375 12 l 1
 454.599609375 7.23237678553 l 1
 449.837379948 7.00565668437 l 1
 433.037575261 6.20585199687 l 1
 432.918757262 6.2001953125 l 1
 432.799804688 6.2001953125 l 1
 416 6.2001953125 l 1
 411 6.2001953125 l 1
 411 11.2001953125 l 1
 411.000066675 27.9741785755 l 1
 408.599609375 492.799804688 l 1
 408.599609375 497.599609375 l 1
 408.599609375 502.599609375 l 1
 413.599609375 502.599609375 l 1
 429.599609375 502.599609375 l 1
189 485 m 1
 170 494 l 1
 180 513 l 1
 207 564 l 1
 212 575 l 1
 225 575 l 1
 593 578 l 1
 604 578 l 1
 611 570 l 1
 649 519 l 1
 662 502 l 1
 645 490 l 1
 628 478 l 1
 616 494 l 1
 584 537 l 1
 238 533 l 1
 217 493 l 1
 207 475 l 1
 189 485 l 1
420 595 m 1
 443 633 l 1
 394 633 l 1
 420 595 l 1
404 545 m 1
 338 642 l 1
 316 673 l 1
 355 674 l 1
 480 676 l 1
 517 677 l 1
 498 644 l 1
 440 546 l 1
 422 544 l 1
 404 545 l 1
EndSplineSet
Validated: 524325
Ligature2: "ltligs1" T F
EndChar

